AsbirSansItalic-ItalicDisplayThin.ufo
<glyph name="exclam" format="2">
  <advance width="400"/>
  <unicode hex="0021"/>
  <outline>
    <contour>
      <point x="149" y="354" type="line"/>
      <point x="195" y="354" type="line"/>
      <point x="383" y="1490" type="line"/>
      <point x="337" y="1490" type="line"/>
    </contour>
    <contour>
      <point x="114" y="-12" type="curve" smooth="yes"/>
      <point x="142" y="-12"/>
      <point x="168" y="10"/>
      <point x="173" y="39" type="curve" smooth="yes"/>
      <point x="178" y="70"/>
      <point x="157" y="96"/>
      <point x="125" y="96" type="curve" smooth="yes"/>
      <point x="97" y="96"/>
      <point x="71" y="74"/>
      <point x="66" y="45" type="curve" smooth="yes"/>
      <point x="61" y="14"/>
      <point x="82" y="-12"/>
    </contour>
  </outline>
</glyph>
<glyph name="numbersign" format="2">
  <advance width="1170"/>
  <unicode hex="0023"/>
  <outline>
    <contour>
      <point x="614.59" y="0" type="line"/>
      <point x="660.59" y="0" type="line"/>
      <point x="1151.258" y="1490" type="line"/>
      <point x="1105.258" y="1490" type="line"/>
    </contour>
    <contour>
      <point x="-28.926" y="462" type="line"/>
      <point x="1083.074" y="462" type="line"/>
      <point x="1099.02" y="510" type="line"/>
      <point x="-10.98" y="510" type="line"/>
    </contour>
    <contour>
      <point x="90.59" y="0" type="line"/>
      <point x="136.59" y="0" type="line"/>
      <point x="627.258" y="1490" type="line"/>
      <point x="581.258" y="1490" type="line"/>
    </contour>
    <contour>
      <point x="140.828" y="980" type="line"/>
      <point x="1252.828" y="980" type="line"/>
      <point x="1268.443" y="1026" type="line"/>
      <point x="158.443" y="1026" type="line"/>
    </contour>
  </outline>
</glyph>
<glyph name="dollar" format="2">
  <advance width="1127"/>
  <unicode hex="0024"/>
  <anchor x="477" y="0" name="bottom"/>
  <anchor x="477" y="0" name="cedilla"/>
  <anchor x="723" y="1490" name="top"/>
  <outline>
    <contour>
      <point x="430" y="-186" type="line"/>
      <point x="476" y="-186" type="line"/>
      <point x="784" y="1676" type="line"/>
      <point x="738" y="1676" type="line"/>
    </contour>
    <component base="S"/>
  </outline>
</glyph>
<glyph name="ampersand" format="2">
  <advance width="1102"/>
  <unicode hex="0026"/>
  <outline>
    <contour>
      <point x="401" y="-16" type="curve" smooth="yes"/>
      <point x="566" y="-16"/>
      <point x="724" y="64"/>
      <point x="846" y="194" type="curve"/>
      <point x="861" y="210" type="line"/>
      <point x="965" y="327"/>
      <point x="1040" y="480"/>
      <point x="1067" y="650" type="curve"/>
      <point x="1021" y="650" type="line"/>
      <point x="962" y="300"/>
      <point x="690" y="30"/>
      <point x="401" y="30" type="curve" smooth="yes"/>
      <point x="188" y="30"/>
      <point x="55" y="172"/>
      <point x="86" y="361" type="curve" smooth="yes"/>
      <point x="109" y="504"/>
      <point x="217" y="590"/>
      <point x="395" y="710" type="curve" smooth="yes"/>
      <point x="632" y="870" type="line" smooth="yes"/>
      <point x="722" y="931"/>
      <point x="871" y="1026"/>
      <point x="899" y="1194" type="curve" smooth="yes"/>
      <point x="928" y="1370"/>
      <point x="814" y="1506"/>
      <point x="637" y="1506" type="curve" smooth="yes"/>
      <point x="468" y="1506"/>
      <point x="317" y="1379"/>
      <point x="288" y="1208" type="curve" smooth="yes"/>
      <point x="263" y="1054"/>
      <point x="356" y="954"/>
      <point x="439" y="823" type="curve" smooth="yes"/>
      <point x="952" y="0" type="line"/>
      <point x="1006" y="0" type="line"/>
      <point x="477" y="847" type="line" smooth="yes"/>
      <point x="393" y="983"/>
      <point x="312" y="1068"/>
      <point x="334" y="1200" type="curve" smooth="yes"/>
      <point x="358" y="1349"/>
      <point x="489" y="1460"/>
      <point x="637" y="1460" type="curve" smooth="yes"/>
      <point x="786" y="1460"/>
      <point x="878" y="1350"/>
      <point x="853" y="1202" type="curve" smooth="yes"/>
      <point x="829" y="1054"/>
      <point x="696" y="969"/>
      <point x="606" y="908" type="curve" smooth="yes"/>
      <point x="369" y="748" type="line" smooth="yes"/>
      <point x="189" y="626"/>
      <point x="67" y="531"/>
      <point x="40" y="369" type="curve" smooth="yes"/>
      <point x="4" y="151"/>
      <point x="161" y="-16"/>
    </contour>
  </outline>
</glyph>
<glyph name="quotesingle" format="2">
  <advance width="480"/>
  <unicode hex="0027"/>
  <outline>
    <contour>
      <point x="307.41" y="1056" type="line"/>
      <point x="347.41" y="1056" type="line"/>
      <point x="423.258" y="1490" type="line"/>
      <point x="375.258" y="1490" type="line"/>
    </contour>
  </outline>
</glyph>
<glyph name="parenleft" format="2">
  <advance width="518"/>
  <unicode hex="0028"/>
  <outline>
    <contour>
      <point x="191.714" y="635" type="curve" smooth="yes"/>
      <point x="141.228" y="324"/>
      <point x="163.252" y="4"/>
      <point x="253.753" y="-295" type="curve"/>
      <point x="303.753" y="-295" type="line"/>
      <point x="209.252" y="4"/>
      <point x="186.731" y="321"/>
      <point x="239.714" y="635" type="curve" smooth="yes"/>
      <point x="290.365" y="947"/>
      <point x="417.01" y="1265"/>
      <point x="612.005" y="1567" type="curve"/>
      <point x="562.005" y="1567" type="line"/>
      <point x="372.837" y="1270"/>
      <point x="244.862" y="950"/>
    </contour>
  </outline>
</glyph>
<glyph name="parenright" format="2">
  <advance width="518"/>
  <unicode hex="0029"/>
  <outline>
    <contour>
      <point x="-58" y="-294" type="curve"/>
      <point x="-8" y="-294" type="line"/>
      <point x="181" y="5"/>
      <point x="309" y="325"/>
      <point x="362" y="636" type="curve" smooth="yes"/>
      <point x="413" y="951"/>
      <point x="391" y="1271"/>
      <point x="300" y="1568" type="curve"/>
      <point x="250" y="1568" type="line"/>
      <point x="345" y="1266"/>
      <point x="367" y="948"/>
      <point x="314" y="636" type="curve" smooth="yes"/>
      <point x="263" y="322"/>
      <point x="135" y="5"/>
    </contour>
  </outline>
</glyph>
<glyph name="asterisk" format="2">
  <advance width="896"/>
  <unicode hex="002A"/>
  <outline>
    <contour>
      <point x="444.528" y="652" type="line"/>
      <point x="492.528" y="652" type="line"/>
      <point x="555.106" y="1030" type="line"/>
      <point x="851.651" y="840" type="line"/>
      <point x="882.604" y="882" type="line"/>
      <point x="583.728" y="1070" type="line"/>
      <point x="945.182" y="1260" type="line"/>
      <point x="927.804" y="1300" type="line"/>
      <point x="568.681" y="1112" type="line"/>
      <point x="631.258" y="1490" type="line"/>
      <point x="583.258" y="1490" type="line"/>
      <point x="520.681" y="1112" type="line"/>
      <point x="223.804" y="1300" type="line"/>
      <point x="193.182" y="1260" type="line"/>
      <point x="491.728" y="1070" type="line"/>
      <point x="130.604" y="882" type="line"/>
      <point x="147.651" y="840" type="line"/>
      <point x="507.106" y="1030" type="line"/>
    </contour>
  </outline>
</glyph>
<glyph name="plus" format="2">
  <advance width="1176"/>
  <unicode hex="002B"/>
  <outline>
    <contour>
      <point x="504" y="160" type="line"/>
      <point x="550" y="160" type="line"/>
      <point x="690" y="1004" type="line"/>
      <point x="644" y="1004" type="line"/>
    </contour>
    <contour>
      <point x="171" y="558" type="line"/>
      <point x="1015" y="558" type="line"/>
      <point x="1023" y="606" type="line"/>
      <point x="179" y="606" type="line"/>
    </contour>
  </outline>
</glyph>
<glyph name="hyphen" format="2">
  <advance width="771"/>
  <unicode hex="002D"/>
  <outline>
    <contour>
      <point x="681" y="630" type="line"/>
      <point x="125" y="630" type="line"/>
      <point x="118" y="584" type="line"/>
      <point x="674" y="584" type="line"/>
    </contour>
  </outline>
</glyph>
<glyph name="period" format="2">
  <advance width="400"/>
  <unicode hex="002E"/>
  <outline>
    <contour>
      <point x="114" y="-12" type="curve" smooth="yes"/>
      <point x="142" y="-12"/>
      <point x="168" y="10"/>
      <point x="173" y="39" type="curve" smooth="yes"/>
      <point x="178" y="70"/>
      <point x="157" y="96"/>
      <point x="125" y="96" type="curve" smooth="yes"/>
      <point x="97" y="96"/>
      <point x="71" y="74"/>
      <point x="66" y="45" type="curve" smooth="yes"/>
      <point x="61" y="14"/>
      <point x="82" y="-12"/>
    </contour>
  </outline>
</glyph>
<glyph name="slash" format="2">
  <advance width="534"/>
  <unicode hex="002F"/>
  <outline>
    <contour>
      <point x="702.846" y="1560" type="line"/>
      <point x="652.846" y="1560" type="line"/>
      <point x="-122.493" y="-224" type="line"/>
      <point x="-72.493" y="-224" type="line"/>
    </contour>
  </outline>
</glyph>
<glyph name="zero" format="2">
  <advance width="1138"/>
  <unicode hex="0030"/>
  <anchor x="605" y="745" name="center"/>
  <anchor x="728" y="1490" name="top"/>
  <outline>
    <contour>
      <point x="480" y="-16" type="curve" smooth="yes"/>
      <point x="776" y="-16"/>
      <point x="1036" y="295"/>
      <point x="1110" y="744" type="curve" smooth="yes"/>
      <point x="1185" y="1194"/>
      <point x="1028" y="1506"/>
      <point x="732" y="1506" type="curve" smooth="yes"/>
      <point x="435" y="1506"/>
      <point x="175" y="1194"/>
      <point x="100" y="744" type="curve" smooth="yes"/>
      <point x="26" y="295"/>
      <point x="183" y="-16"/>
    </contour>
    <contour>
      <point x="480" y="30" type="curve" smooth="yes"/>
      <point x="211" y="30"/>
      <point x="73" y="302"/>
      <point x="145" y="736" type="curve" smooth="yes"/>
      <point x="218" y="1174"/>
      <point x="456" y="1460"/>
      <point x="732" y="1460" type="curve" smooth="yes"/>
      <point x="1000" y="1460"/>
      <point x="1137" y="1187"/>
      <point x="1065" y="752" type="curve" smooth="yes"/>
      <point x="992" y="315"/>
      <point x="754" y="30"/>
    </contour>
  </outline>
</glyph>
<glyph name="one" format="2">
  <advance width="616"/>
  <unicode hex="0031"/>
  <outline>
    <contour>
      <point x="402.0" y="0" type="line"/>
      <point x="448.0" y="0" type="line"/>
      <point x="716.2" y="1490" type="line"/>
      <point x="676.2" y="1490" type="line"/>
      <point x="605.72" y="1304"/>
      <point x="428.91999999999996" y="1244"/>
      <point x="299.91999999999996" y="1244" type="curve" smooth="yes"/>
      <point x="297.91999999999996" y="1244" type="line"/>
      <point x="289.64" y="1198" type="line"/>
      <point x="397.64" y="1198"/>
      <point x="548.66" y="1237"/>
      <point x="649.62" y="1359" type="curve"/>
      <point x="646.98" y="1361" type="line"/>
    </contour>
  </outline>
</glyph>
<glyph name="two" format="2">
  <advance width="1098"/>
  <unicode hex="0032"/>
  <anchor x="622" y="580" name="cross"/>
  <anchor x="741" y="1490" name="top"/>
  <outline>
    <contour>
      <point x="5" y="0" type="line"/>
      <point x="919" y="0" type="line"/>
      <point x="926" y="46" type="line"/>
      <point x="78" y="46" type="line"/>
      <point x="79" y="47" type="line"/>
      <point x="656" y="541" type="line" smooth="yes"/>
      <point x="934" y="779"/>
      <point x="1044" y="914"/>
      <point x="1072" y="1085" type="curve" smooth="yes"/>
      <point x="1113" y="1329"/>
      <point x="958" y="1510"/>
      <point x="696" y="1510" type="curve" smooth="yes"/>
      <point x="428" y="1510"/>
      <point x="225" y="1331"/>
      <point x="185" y="1088" type="curve"/>
      <point x="230" y="1088" type="line"/>
      <point x="266" y="1305"/>
      <point x="457" y="1464"/>
      <point x="694" y="1464" type="curve" smooth="yes"/>
      <point x="927" y="1464"/>
      <point x="1063" y="1307"/>
      <point x="1027" y="1091" type="curve" smooth="yes"/>
      <point x="1001" y="931"/>
      <point x="891" y="803"/>
      <point x="621" y="571" type="curve" smooth="yes"/>
      <point x="12" y="46" type="line"/>
    </contour>
  </outline>
</glyph>
<glyph name="three" format="2">
  <advance width="1088"/>
  <unicode hex="0033"/>
  <anchor x="706" y="1490" name="top"/>
  <outline>
    <contour>
      <point x="459" y="-20" type="curve" smooth="yes"/>
      <point x="740" y="-20"/>
      <point x="962" y="156"/>
      <point x="1000" y="383" type="curve" smooth="yes"/>
      <point x="1032" y="574"/>
      <point x="914" y="728"/>
      <point x="699" y="769" type="curve"/>
      <point x="703" y="770" type="line"/>
      <point x="906" y="814"/>
      <point x="1046" y="952"/>
      <point x="1075" y="1125" type="curve" smooth="yes"/>
      <point x="1111" y="1345"/>
      <point x="957" y="1510"/>
      <point x="705" y="1510" type="curve" smooth="yes"/>
      <point x="451" y="1510"/>
      <point x="243" y="1347"/>
      <point x="205" y="1118" type="curve"/>
      <point x="250" y="1118" type="line"/>
      <point x="284" y="1321"/>
      <point x="474" y="1464"/>
      <point x="703" y="1464" type="curve" smooth="yes"/>
      <point x="928" y="1464"/>
      <point x="1061" y="1322"/>
      <point x="1030" y="1131" type="curve" smooth="yes"/>
      <point x="995" y="924"/>
      <point x="785" y="792"/>
      <point x="541" y="792" type="curve" smooth="yes"/>
      <point x="521" y="792" type="line"/>
      <point x="513" y="744" type="line"/>
      <point x="536" y="744" type="line" smooth="yes"/>
      <point x="813" y="744"/>
      <point x="990" y="603"/>
      <point x="955" y="389" type="curve" smooth="yes"/>
      <point x="922" y="189"/>
      <point x="721" y="26"/>
      <point x="461" y="26" type="curve" smooth="yes"/>
      <point x="219" y="26"/>
      <point x="57" y="171"/>
      <point x="90" y="372" type="curve"/>
      <point x="44" y="372" type="line"/>
      <point x="7" y="145"/>
      <point x="188" y="-20"/>
    </contour>
  </outline>
</glyph>
<glyph name="four" format="2">
  <advance width="1186"/>
  <unicode hex="0034"/>
  <outline>
    <contour>
      <point x="139.95999999999998" y="422" type="line"/>
      <point x="1197.96" y="422" type="line"/>
      <point x="1206.24" y="468" type="line"/>
      <point x="215.24" y="468" type="line"/>
      <point x="215.42000000000002" y="469" type="line"/>
      <point x="1150.2" y="1490" type="line"/>
      <point x="1093.2" y="1490" type="line"/>
      <point x="146.07999999999998" y="456" type="line"/>
    </contour>
    <contour>
      <point x="841.0" y="0" type="line"/>
      <point x="887.0" y="0" type="line"/>
      <point x="1048.6399999999999" y="898" type="line"/>
      <point x="1002.64" y="898" type="line"/>
      <point x="922.0" y="450" type="line"/>
      <point x="919.48" y="436" type="line"/>
    </contour>
  </outline>
</glyph>
<glyph name="five" format="2">
  <advance width="1042"/>
  <unicode hex="0035"/>
  <outline>
    <contour>
      <point x="405" y="-20" type="curve" smooth="yes"/>
      <point x="687" y="-20"/>
      <point x="921" y="184"/>
      <point x="967" y="459" type="curve" smooth="yes"/>
      <point x="1013" y="738"/>
      <point x="848" y="940"/>
      <point x="572" y="940" type="curve" smooth="yes"/>
      <point x="400" y="940"/>
      <point x="260" y="860"/>
      <point x="190" y="785" type="curve"/>
      <point x="190" y="784" type="line"/>
      <point x="357" y="1444" type="line"/>
      <point x="1105" y="1444" type="line"/>
      <point x="1112" y="1490" type="line"/>
      <point x="322" y="1490" type="line"/>
      <point x="119" y="688" type="line"/>
      <point x="162" y="688" type="line"/>
      <point x="235" y="815"/>
      <point x="405" y="894"/>
      <point x="572" y="894" type="curve" smooth="yes"/>
      <point x="818" y="894"/>
      <point x="963" y="717"/>
      <point x="922" y="465" type="curve" smooth="yes"/>
      <point x="880" y="217"/>
      <point x="668" y="26"/>
      <point x="407" y="26" type="curve" smooth="yes"/>
      <point x="176" y="26"/>
      <point x="50" y="170"/>
      <point x="84" y="372" type="curve"/>
      <point x="38" y="372" type="line"/>
      <point x="1" y="145"/>
      <point x="148" y="-20"/>
    </contour>
  </outline>
</glyph>
<glyph name="six" format="2">
  <advance width="1068"/>
  <unicode hex="0036"/>
  <outline>
    <contour>
      <point x="460" y="-16" type="curve" smooth="yes"/>
      <point x="731" y="-16"/>
      <point x="950" y="200"/>
      <point x="991" y="447" type="curve" smooth="yes"/>
      <point x="1035" y="714"/>
      <point x="854" y="914"/>
      <point x="598" y="914" type="curve" smooth="yes"/>
      <point x="390" y="914"/>
      <point x="191" y="783"/>
      <point x="123" y="610" type="curve"/>
      <point x="122" y="607" type="line"/>
      <point x="210" y="1185"/>
      <point x="437" y="1460"/>
      <point x="719" y="1460" type="curve" smooth="yes"/>
      <point x="912" y="1460"/>
      <point x="1033" y="1336"/>
      <point x="1030" y="1152" type="curve"/>
      <point x="1075" y="1152" type="line"/>
      <point x="1083" y="1364"/>
      <point x="939" y="1506"/>
      <point x="721" y="1506" type="curve" smooth="yes"/>
      <point x="346" y="1506"/>
      <point x="156" y="1083"/>
      <point x="89" y="681" type="curve" smooth="yes"/>
      <point x="12" y="214"/>
      <point x="182" y="-16"/>
    </contour>
    <contour>
      <point x="462" y="30" type="curve" smooth="yes"/>
      <point x="259" y="30"/>
      <point x="133" y="162"/>
      <point x="119" y="423" type="curve" smooth="yes"/>
      <point x="108" y="658"/>
      <point x="341" y="868"/>
      <point x="596" y="868" type="curve" smooth="yes"/>
      <point x="832" y="868"/>
      <point x="984" y="686"/>
      <point x="946" y="453" type="curve" smooth="yes"/>
      <point x="907" y="222"/>
      <point x="701" y="30"/>
    </contour>
  </outline>
</glyph>
<glyph name="seven" format="2">
  <advance width="1056"/>
  <unicode hex="0037"/>
  <outline>
    <contour>
      <point x="131" y="0" type="line"/>
      <point x="185" y="0" type="line"/>
      <point x="1147" y="1442" type="line"/>
      <point x="1155" y="1490" type="line"/>
      <point x="219" y="1490" type="line"/>
      <point x="212" y="1444" type="line"/>
      <point x="1094" y="1444" type="line"/>
      <point x="1093" y="1443" type="line"/>
    </contour>
  </outline>
</glyph>
<glyph name="eight" format="2">
  <advance width="1062"/>
  <unicode hex="0038"/>
  <outline>
    <contour>
      <point x="444" y="-16" type="curve" smooth="yes"/>
      <point x="701" y="-16"/>
      <point x="937" y="158"/>
      <point x="974" y="381" type="curve" smooth="yes"/>
      <point x="1006" y="576"/>
      <point x="878" y="737"/>
      <point x="684" y="770" type="curve"/>
      <point x="687" y="769" type="line"/>
      <point x="892" y="818"/>
      <point x="1022" y="967"/>
      <point x="1048" y="1129" type="curve" smooth="yes"/>
      <point x="1084" y="1343"/>
      <point x="919" y="1506"/>
      <point x="690" y="1506" type="curve" smooth="yes"/>
      <point x="461" y="1506"/>
      <point x="250" y="1345"/>
      <point x="215" y="1135" type="curve" smooth="yes"/>
      <point x="188" y="970"/>
      <point x="271" y="819"/>
      <point x="458" y="769" type="curve"/>
      <point x="455" y="770" type="line"/>
      <point x="249" y="737"/>
      <point x="73" y="580"/>
      <point x="41" y="387" type="curve" smooth="yes"/>
      <point x="3" y="162"/>
      <point x="185" y="-16"/>
    </contour>
    <contour>
      <point x="446" y="30" type="curve" smooth="yes"/>
      <point x="211" y="30"/>
      <point x="53" y="182"/>
      <point x="86" y="382" type="curve" smooth="yes"/>
      <point x="120" y="585"/>
      <point x="332" y="745"/>
      <point x="570" y="745" type="curve" smooth="yes"/>
      <point x="804" y="745"/>
      <point x="962" y="589"/>
      <point x="929" y="388" type="curve" smooth="yes"/>
      <point x="895" y="186"/>
      <point x="683" y="30"/>
    </contour>
    <contour>
      <point x="572" y="791" type="curve" smooth="yes"/>
      <point x="366" y="791"/>
      <point x="229" y="939"/>
      <point x="261" y="1130" type="curve" smooth="yes"/>
      <point x="292" y="1316"/>
      <point x="480" y="1460"/>
      <point x="688" y="1460" type="curve" smooth="yes"/>
      <point x="895" y="1460"/>
      <point x="1034" y="1320"/>
      <point x="1004" y="1136" type="curve" smooth="yes"/>
      <point x="972" y="943"/>
      <point x="781" y="791"/>
    </contour>
  </outline>
</glyph>
<glyph name="nine" format="2">
  <advance width="1068"/>
  <unicode hex="0039"/>
  <outline>
    <contour>
      <point x="419" y="-16" type="curve" smooth="yes"/>
      <point x="793" y="-16"/>
      <point x="984" y="407"/>
      <point x="1051" y="809" type="curve" smooth="yes"/>
      <point x="1128" y="1276"/>
      <point x="957" y="1506"/>
      <point x="680" y="1506" type="curve" smooth="yes"/>
      <point x="408" y="1506"/>
      <point x="190" y="1290"/>
      <point x="149" y="1043" type="curve" smooth="yes"/>
      <point x="105" y="776"/>
      <point x="285" y="576"/>
      <point x="542" y="576" type="curve" smooth="yes"/>
      <point x="749" y="576"/>
      <point x="949" y="707"/>
      <point x="1017" y="880" type="curve"/>
      <point x="1018" y="883" type="line"/>
      <point x="930" y="305"/>
      <point x="703" y="30"/>
      <point x="421" y="30" type="curve" smooth="yes"/>
      <point x="228" y="30"/>
      <point x="107" y="155"/>
      <point x="110" y="339" type="curve"/>
      <point x="65" y="339" type="line"/>
      <point x="57" y="127"/>
      <point x="200" y="-16"/>
    </contour>
    <contour>
      <point x="544" y="622" type="curve" smooth="yes"/>
      <point x="308" y="622"/>
      <point x="156" y="804"/>
      <point x="194" y="1037" type="curve" smooth="yes"/>
      <point x="233" y="1268"/>
      <point x="439" y="1460"/>
      <point x="678" y="1460" type="curve" smooth="yes"/>
      <point x="881" y="1460"/>
      <point x="1007" y="1328"/>
      <point x="1021" y="1067" type="curve" smooth="yes"/>
      <point x="1032" y="832"/>
      <point x="799" y="622"/>
    </contour>
  </outline>
</glyph>
<glyph name="less" format="2">
  <advance width="1176"/>
  <unicode hex="003C"/>
  <outline>
    <contour>
      <point x="162.966" y="558" type="line"/>
      <point x="873.212" y="40" type="line"/>
      <point x="882.483" y="96" type="line"/>
      <point x="209.271" y="584" type="line"/>
      <point x="216.953" y="570" type="line"/>
      <point x="220.926" y="594" type="line"/>
      <point x="208.277" y="578" type="line"/>
      <point x="1043.396" y="1068" type="line"/>
      <point x="1052.336" y="1122" type="line"/>
      <point x="170.913" y="606" type="line"/>
    </contour>
  </outline>
</glyph>
<glyph name="equal" format="2">
  <advance width="1176"/>
  <unicode hex="003D"/>
  <outline>
    <contour>
      <point x="279.414" y="754" type="line"/>
      <point x="971.414" y="754" type="line"/>
      <point x="979.029" y="800" type="line"/>
      <point x="287.029" y="800" type="line"/>
    </contour>
    <contour>
      <point x="214.85" y="364" type="line"/>
      <point x="906.85" y="364" type="line"/>
      <point x="914.465" y="410" type="line"/>
      <point x="222.465" y="410" type="line"/>
    </contour>
  </outline>
</glyph>
<glyph name="greater" format="2">
  <advance width="1176"/>
  <unicode hex="003E"/>
  <outline>
    <contour>
      <point x="1023" y="558" type="line"/>
      <point x="1031" y="606" type="line"/>
      <point x="320" y="1122" type="line"/>
      <point x="311" y="1068" type="line"/>
      <point x="982" y="578" type="line"/>
      <point x="977" y="594" type="line"/>
      <point x="973" y="570" type="line"/>
      <point x="983" y="584" type="line"/>
      <point x="150" y="96" type="line"/>
      <point x="141" y="40" type="line"/>
    </contour>
  </outline>
</glyph>
<glyph name="question" format="2">
  <advance width="920"/>
  <unicode hex="003F"/>
  <outline>
    <contour>
      <point x="378" y="442" type="line"/>
      <point x="426" y="442" type="line"/>
      <point x="443" y="544" type="line" smooth="yes"/>
      <point x="463" y="662"/>
      <point x="512" y="722"/>
      <point x="666" y="823" type="curve" smooth="yes"/>
      <point x="844" y="936"/>
      <point x="913" y="1020"/>
      <point x="935" y="1146" type="curve" smooth="yes"/>
      <point x="972" y="1356"/>
      <point x="822" y="1510"/>
      <point x="609" y="1510" type="curve" smooth="yes"/>
      <point x="386" y="1510"/>
      <point x="199" y="1341"/>
      <point x="162" y="1118" type="curve"/>
      <point x="208" y="1118" type="line"/>
      <point x="241" y="1315"/>
      <point x="411" y="1464"/>
      <point x="609" y="1464" type="curve" smooth="yes"/>
      <point x="796" y="1464"/>
      <point x="920" y="1337"/>
      <point x="890" y="1152" type="curve" smooth="yes"/>
      <point x="872" y="1047"/>
      <point x="811" y="967"/>
      <point x="646" y="864" type="curve" smooth="yes"/>
      <point x="479" y="758"/>
      <point x="417" y="678"/>
      <point x="395" y="544" type="curve" smooth="yes"/>
    </contour>
    <contour>
      <point x="327" y="-12" type="curve" smooth="yes"/>
      <point x="357" y="-12"/>
      <point x="385" y="12"/>
      <point x="390" y="42" type="curve" smooth="yes"/>
      <point x="395" y="72"/>
      <point x="375" y="96"/>
      <point x="345" y="96" type="curve" smooth="yes"/>
      <point x="315" y="96"/>
      <point x="287" y="72"/>
      <point x="282" y="42" type="curve" smooth="yes"/>
      <point x="277" y="12"/>
      <point x="297" y="-12"/>
    </contour>
  </outline>
</glyph>
<glyph name="at" format="2">
  <advance width="1928"/>
  <unicode hex="0040"/>
  <outline>
    <contour>
      <point x="813" y="-385" type="curve" smooth="yes"/>
      <point x="990" y="-385"/>
      <point x="1166" y="-334"/>
      <point x="1319" y="-246" type="curve"/>
      <point x="1301" y="-208" type="line"/>
      <point x="1154" y="-292"/>
      <point x="982" y="-339"/>
      <point x="813" y="-339" type="curve" smooth="yes"/>
      <point x="343" y="-339"/>
      <point x="49" y="40"/>
      <point x="129" y="528" type="curve" smooth="yes"/>
      <point x="210" y="1016"/>
      <point x="646" y="1395"/>
      <point x="1116" y="1395" type="curve" smooth="yes"/>
      <point x="1586" y="1395"/>
      <point x="1880" y="1016"/>
      <point x="1799" y="528" type="curve" smooth="yes"/>
      <point x="1756" y="264"/>
      <point x="1608" y="100"/>
      <point x="1425" y="100" type="curve" smooth="yes"/>
      <point x="1314" y="100"/>
      <point x="1285" y="157"/>
      <point x="1308" y="295" type="curve" smooth="yes"/>
      <point x="1423" y="992" type="line"/>
      <point x="1377" y="992" type="line"/>
      <point x="1339" y="761" type="line"/>
      <point x="1338" y="761" type="line"/>
      <point x="1307" y="915"/>
      <point x="1208" y="1011"/>
      <point x="1036" y="1011" type="curve" smooth="yes"/>
      <point x="790" y="1011"/>
      <point x="586" y="797"/>
      <point x="541" y="528" type="curve" smooth="yes"/>
      <point x="497" y="259"/>
      <point x="630" y="45"/>
      <point x="876" y="45" type="curve" smooth="yes"/>
      <point x="1048" y="45"/>
      <point x="1179" y="141"/>
      <point x="1261" y="295" type="curve"/>
      <point x="1262" y="295" type="line"/>
      <point x="1235" y="133"/>
      <point x="1288" y="55"/>
      <point x="1425" y="55" type="curve" smooth="yes"/>
      <point x="1636" y="55"/>
      <point x="1798" y="241"/>
      <point x="1845" y="528" type="curve" smooth="yes"/>
      <point x="1929" y="1032"/>
      <point x="1621" y="1441"/>
      <point x="1116" y="1441" type="curve" smooth="yes"/>
      <point x="610" y="1441"/>
      <point x="167" y="1032"/>
      <point x="83" y="528" type="curve" smooth="yes"/>
      <point x="0" y="24"/>
      <point x="308" y="-385"/>
    </contour>
    <contour>
      <point x="876" y="91" type="curve" smooth="yes"/>
      <point x="658" y="91"/>
      <point x="547" y="281"/>
      <point x="587" y="528" type="curve" smooth="yes"/>
      <point x="628" y="775"/>
      <point x="819" y="965"/>
      <point x="1037" y="965" type="curve" smooth="yes"/>
      <point x="1256" y="965"/>
      <point x="1341" y="779"/>
      <point x="1299" y="528" type="curve" smooth="yes"/>
      <point x="1258" y="277"/>
      <point x="1096" y="91"/>
    </contour>
  </outline>
</glyph>
<glyph name="A" format="2">
  <advance width="1218"/>
  <unicode hex="0041"/>
  <anchor x="522" y="0" name="bottom"/>
  <anchor x="1111" y="0" name="ogonek"/>
  <anchor x="648" y="1490" name="tonos"/>
  <anchor x="769" y="1490" name="top"/>
  <outline>
    <contour>
      <point x="-67" y="0" type="line"/>
      <point x="-15" y="0" type="line"/>
      <point x="606" y="1154" type="line" smooth="yes"/>
      <point x="664" y="1261"/>
      <point x="720" y="1367"/>
      <point x="777" y="1474" type="curve"/>
      <point x="759" y="1474" type="line"/>
      <point x="780" y="1367"/>
      <point x="802" y="1261"/>
      <point x="824" y="1154" type="curve" smooth="yes"/>
      <point x="1065" y="0" type="line"/>
      <point x="1111" y="0" type="line"/>
      <point x="800" y="1490" type="line"/>
      <point x="737" y="1490" type="line"/>
    </contour>
    <contour>
      <point x="235" y="491" type="line"/>
      <point x="971" y="491" type="line"/>
      <point x="979" y="537" type="line"/>
      <point x="243" y="537" type="line"/>
    </contour>
  </outline>
</glyph>
<glyph name="B" format="2">
  <advance width="1236"/>
  <unicode hex="0042"/>
  <anchor x="512" y="0" name="bottom"/>
  <anchor x="191" y="390" name="cross"/>
  <anchor x="738" y="1479" name="top"/>
  <anchor x="327" y="1490" name="topl"/>
  <outline>
    <contour>
      <point x="81" y="0" type="line"/>
      <point x="596" y="0" type="line" smooth="yes"/>
      <point x="875" y="0"/>
      <point x="1075" y="159"/>
      <point x="1114" y="393" type="curve" smooth="yes"/>
      <point x="1148" y="600"/>
      <point x="1008" y="732"/>
      <point x="852" y="758" type="curve"/>
      <point x="852" y="759" type="line"/>
      <point x="1000" y="800"/>
      <point x="1145" y="934"/>
      <point x="1174" y="1109" type="curve" smooth="yes"/>
      <point x="1213" y="1344"/>
      <point x="1056" y="1490"/>
      <point x="790" y="1490" type="curve" smooth="yes"/>
      <point x="327" y="1490" type="line"/>
    </contour>
    <contour>
      <point x="134" y="46" type="line"/>
      <point x="248" y="734" type="line"/>
      <point x="718" y="734" type="line" smooth="yes"/>
      <point x="928" y="734"/>
      <point x="1104" y="612"/>
      <point x="1069" y="399" type="curve" smooth="yes"/>
      <point x="1034" y="191"/>
      <point x="856" y="46"/>
      <point x="601" y="46" type="curve" smooth="yes"/>
    </contour>
    <contour>
      <point x="256" y="780" type="line"/>
      <point x="366" y="1444" type="line"/>
      <point x="785" y="1444" type="line" smooth="yes"/>
      <point x="1021" y="1444"/>
      <point x="1164" y="1325"/>
      <point x="1129" y="1115" type="curve" smooth="yes"/>
      <point x="1099" y="936"/>
      <point x="925" y="780"/>
      <point x="722" y="780" type="curve" smooth="yes"/>
    </contour>
  </outline>
</glyph>
<glyph name="C" format="2">
  <advance width="1352"/>
  <unicode hex="0043"/>
  <anchor x="615" y="0" name="cedilla"/>
  <anchor x="732" y="745" name="center"/>
  <anchor x="861" y="1490" name="top"/>
  <anchor x="1354" y="1024" name="topr"/>
  <outline>
    <contour>
      <point x="614" y="-20" type="curve" smooth="yes"/>
      <point x="963" y="-20"/>
      <point x="1190" y="256"/>
      <point x="1262" y="466" type="curve"/>
      <point x="1215" y="466" type="line"/>
      <point x="1141" y="263"/>
      <point x="925" y="26"/>
      <point x="616" y="26" type="curve" smooth="yes"/>
      <point x="352" y="26"/>
      <point x="150" y="212"/>
      <point x="150" y="564" type="curve" smooth="yes"/>
      <point x="150" y="1024"/>
      <point x="443" y="1464"/>
      <point x="860" y="1464" type="curve" smooth="yes"/>
      <point x="1167" y="1464"/>
      <point x="1301" y="1228"/>
      <point x="1308" y="1024" type="curve"/>
      <point x="1354" y="1024" type="line"/>
      <point x="1352" y="1236"/>
      <point x="1213" y="1510"/>
      <point x="861" y="1510" type="curve" smooth="yes"/>
      <point x="394" y="1510"/>
      <point x="104" y="1024"/>
      <point x="104" y="564" type="curve" smooth="yes"/>
      <point x="104" y="209"/>
      <point x="297" y="-20"/>
    </contour>
  </outline>
</glyph>
<glyph name="D" format="2">
  <advance width="1333"/>
  <unicode hex="0044"/>
  <anchor x="439" y="0" name="bottom"/>
  <anchor x="360" y="745" name="cross"/>
  <anchor x="728" y="1490" name="top"/>
  <anchor x="328" y="1490" name="topl"/>
  <outline>
    <contour>
      <point x="479" y="0" type="line" smooth="yes"/>
      <point x="917" y="0"/>
      <point x="1209" y="275"/>
      <point x="1287" y="750" type="curve" smooth="yes"/>
      <point x="1364" y="1214"/>
      <point x="1167" y="1490"/>
      <point x="756" y="1490" type="curve" smooth="yes"/>
      <point x="352" y="1490" type="line"/>
      <point x="344" y="1444" type="line"/>
      <point x="756" y="1444" type="line" smooth="yes"/>
      <point x="1143" y="1444"/>
      <point x="1313" y="1185"/>
      <point x="1241" y="750" type="curve" smooth="yes"/>
      <point x="1168" y="309"/>
      <point x="893" y="46"/>
      <point x="479" y="46" type="curve" smooth="yes"/>
      <point x="113" y="46" type="line"/>
      <point x="105" y="0" type="line"/>
    </contour>
    <contour>
      <point x="374" y="1490" type="line"/>
      <point x="328" y="1490" type="line"/>
      <point x="81" y="0" type="line"/>
      <point x="127" y="0" type="line"/>
    </contour>
  </outline>
</glyph>
<glyph name="E" format="2">
  <advance width="1146"/>
  <unicode hex="0045"/>
  <anchor x="532" y="0" name="bottom"/>
  <anchor x="529" y="0" name="cedilla"/>
  <anchor x="983" y="0" name="ogonek"/>
  <anchor x="328" y="1490" name="tonos"/>
  <anchor x="779" y="1490" name="top"/>
  <outline>
    <contour>
      <point x="81" y="0" type="line"/>
      <point x="983" y="0" type="line"/>
      <point x="991" y="46" type="line"/>
      <point x="137" y="46" type="line"/>
      <point x="251" y="738" type="line"/>
      <point x="1028" y="738" type="line"/>
      <point x="1036" y="784" type="line"/>
      <point x="259" y="784" type="line"/>
      <point x="368" y="1442" type="line"/>
      <point x="1222" y="1442" type="line"/>
      <point x="1230" y="1490" type="line"/>
      <point x="328" y="1490" type="line"/>
    </contour>
  </outline>
</glyph>
<glyph name="F" format="2">
  <advance width="1091"/>
  <unicode hex="0046"/>
  <anchor x="104" y="0" name="bottom"/>
  <anchor x="172" y="410" name="cross"/>
  <anchor x="81" y="0" name="lfthook"/>
  <anchor x="760" y="1490" name="top"/>
  <outline>
    <contour>
      <point x="81" y="0" type="line"/>
      <point x="127" y="0" type="line"/>
      <point x="249" y="738" type="line"/>
      <point x="971" y="738" type="line"/>
      <point x="979" y="784" type="line"/>
      <point x="257" y="784" type="line"/>
      <point x="366" y="1444" type="line"/>
      <point x="1182" y="1444" type="line"/>
      <point x="1190" y="1490" type="line"/>
      <point x="328" y="1490" type="line"/>
    </contour>
  </outline>
</glyph>
<glyph name="G" format="2">
  <advance width="1422"/>
  <unicode hex="0047"/>
  <anchor x="692.0" y="0" name="bottom"/>
  <anchor x="1059.72" y="354" name="cross"/>
  <anchor x="960.2" y="1490" name="top"/>
  <anchor x="1456.32" y="1024" name="topr"/>
  <outline>
    <contour>
      <point x="703.12" y="-16" type="curve" smooth="yes"/>
      <point x="1052.12" y="-16"/>
      <point x="1320.48" y="236"/>
      <point x="1391.04" y="628" type="curve" smooth="yes"/>
      <point x="1392.48" y="636" type="line"/>
      <point x="1353.48" y="636" type="line"/>
      <point x="1286.16" y="262"/>
      <point x="1036.4" y="30"/>
      <point x="711.4" y="30" type="curve" smooth="yes"/>
      <point x="360.4" y="30"/>
      <point x="187.42" y="319"/>
      <point x="263.91999999999996" y="744" type="curve" smooth="yes"/>
      <point x="341.5" y="1175"/>
      <point x="621.8" y="1460"/>
      <point x="964.8" y="1460" type="curve" smooth="yes"/>
      <point x="1269.8" y="1460"/>
      <point x="1410.86" y="1227"/>
      <point x="1409.32" y="1024" type="curve"/>
      <point x="1456.32" y="1024" type="line"/>
      <point x="1458.48" y="1236"/>
      <point x="1320.08" y="1506"/>
      <point x="973.0799999999999" y="1506" type="curve" smooth="yes"/>
      <point x="603.0799999999999" y="1506"/>
      <point x="300.53999999999996" y="1203"/>
      <point x="217.92" y="744" type="curve" smooth="yes"/>
      <point x="136.01999999999998" y="289"/>
      <point x="326.12" y="-16"/>
    </contour>
    <contour>
      <point x="1244.0" y="0" type="line"/>
      <point x="1282.0" y="0" type="line"/>
      <point x="1402.96" y="672" type="line"/>
      <point x="840.96" y="672" type="line"/>
      <point x="832.68" y="626" type="line"/>
      <point x="1360.68" y="626" type="line"/>
      <point x="1316.64" y="448" type="line"/>
    </contour>
  </outline>
</glyph>
<glyph name="H" format="2">
  <advance width="1379"/>
  <unicode hex="0048"/>
  <anchor x="603" y="0" name="bottom"/>
  <anchor x="106" y="0" name="cedilla"/>
  <anchor x="1123" y="0" name="cyrtic"/>
  <anchor x="1077" y="0" name="lfthook"/>
  <anchor x="1123" y="0" name="right"/>
  <anchor x="328" y="1490" name="tonos"/>
  <anchor x="850" y="1490" name="top"/>
  <outline>
    <contour>
      <point x="81" y="0" type="line"/>
      <point x="129" y="0" type="line"/>
      <point x="251" y="738" type="line"/>
      <point x="1199" y="738" type="line"/>
      <point x="1077" y="0" type="line"/>
      <point x="1123" y="0" type="line"/>
      <point x="1370" y="1490" type="line"/>
      <point x="1324" y="1490" type="line"/>
      <point x="1207" y="784" type="line"/>
      <point x="259" y="784" type="line"/>
      <point x="376" y="1490" type="line"/>
      <point x="328" y="1490" type="line"/>
    </contour>
  </outline>
</glyph>
<glyph name="I" format="2">
  <advance width="383"/>
  <unicode hex="0049"/>
  <anchor x="104" y="0" name="bottom"/>
  <anchor x="231" y="768" name="cross"/>
  <anchor x="127" y="0" name="ogonek"/>
  <anchor x="135" y="0" name="right"/>
  <anchor x="328" y="1490" name="tonos"/>
  <anchor x="351" y="1490" name="top"/>
  <outline>
    <contour>
      <point x="419" y="1490" type="line"/>
      <point x="283" y="1490" type="line"/>
      <point x="272" y="1426" type="line"/>
      <point x="317" y="1426" type="line"/>
      <point x="92" y="64" type="line"/>
      <point x="47" y="64" type="line"/>
      <point x="36" y="0" type="line"/>
      <point x="172" y="0" type="line"/>
      <point x="183" y="64" type="line"/>
      <point x="138" y="64" type="line"/>
      <point x="363" y="1426" type="line"/>
      <point x="408" y="1426" type="line"/>
    </contour>
  </outline>
</glyph>
<glyph name="J" format="2">
  <advance width="1034"/>
  <unicode hex="004A"/>
  <anchor x="928" y="884" name="cross"/>
  <anchor x="1029" y="1490" name="top"/>
  <outline>
    <contour>
      <point x="419" y="-20" type="curve" smooth="yes"/>
      <point x="659" y="-20"/>
      <point x="829" y="139"/>
      <point x="872" y="396" type="curve" smooth="yes"/>
      <point x="1053" y="1490" type="line"/>
      <point x="1006" y="1490" type="line"/>
      <point x="825" y="396" type="line" smooth="yes"/>
      <point x="787" y="167"/>
      <point x="634" y="26"/>
      <point x="418" y="26" type="curve" smooth="yes"/>
      <point x="229" y="26"/>
      <point x="127" y="132"/>
      <point x="127" y="310" type="curve" smooth="yes"/>
      <point x="127" y="337"/>
      <point x="129" y="366"/>
      <point x="145" y="464" type="curve"/>
      <point x="99" y="464" type="line"/>
      <point x="83" y="365"/>
      <point x="81" y="335"/>
      <point x="81" y="307" type="curve" smooth="yes"/>
      <point x="81" y="103"/>
      <point x="207" y="-20"/>
    </contour>
  </outline>
</glyph>
<glyph name="K" format="2">
  <advance width="1120"/>
  <unicode hex="004B"/>
  <anchor x="511" y="0" name="bottom"/>
  <anchor x="758" y="1490" name="top"/>
  <outline>
    <contour>
      <point x="211" y="536" type="line"/>
      <point x="517" y="817" type="line"/>
      <point x="531" y="828" type="line"/>
      <point x="1254" y="1490" type="line"/>
      <point x="1188" y="1490" type="line"/>
      <point x="601" y="952" type="line" smooth="yes"/>
      <point x="460" y="822"/>
      <point x="341" y="713"/>
      <point x="200" y="584" type="curve"/>
    </contour>
    <contour>
      <point x="81" y="0" type="line"/>
      <point x="127" y="0" type="line"/>
      <point x="220" y="560" type="line"/>
      <point x="225" y="592" type="line"/>
      <point x="286" y="960" type="line"/>
      <point x="374" y="1490" type="line"/>
      <point x="328" y="1490" type="line"/>
    </contour>
    <contour>
      <point x="954" y="0" type="line"/>
      <point x="1005" y="0" type="line"/>
      <point x="540" y="852" type="line"/>
      <point x="503" y="826" type="line"/>
    </contour>
  </outline>
</glyph>
<glyph name="L" format="2">
  <advance width="1045"/>
  <unicode hex="004C"/>
  <anchor x="477" y="0" name="bottom"/>
  <anchor x="374" y="745" name="cross"/>
  <anchor x="579" y="748" name="dot"/>
  <anchor x="722" y="1490" name="raccent"/>
  <anchor x="352" y="1490" name="top"/>
  <outline>
    <contour>
      <point x="81" y="0" type="line"/>
      <point x="897" y="0" type="line"/>
      <point x="905" y="46" type="line"/>
      <point x="137" y="46" type="line"/>
      <point x="376" y="1490" type="line"/>
      <point x="328" y="1490" type="line"/>
    </contour>
  </outline>
</glyph>
<glyph name="M" format="2">
  <advance width="1705"/>
  <unicode hex="004D"/>
  <anchor x="765" y="0" name="bottom"/>
  <anchor x="1417" y="0" name="cyrtic"/>
  <anchor x="1012" y="1490" name="top"/>
  <outline>
    <contour>
      <point x="81" y="0" type="line"/>
      <point x="127" y="0" type="line"/>
      <point x="315" y="1136" type="line" smooth="yes"/>
      <point x="333" y="1243"/>
      <point x="349" y="1349"/>
      <point x="367" y="1456" type="curve"/>
      <point x="353" y="1456" type="line"/>
      <point x="380" y="1349"/>
      <point x="408" y="1243"/>
      <point x="437" y="1136" type="curve" smooth="yes"/>
      <point x="742" y="0" type="line"/>
      <point x="788" y="0" type="line"/>
      <point x="1469" y="1136" type="line" smooth="yes"/>
      <point x="1533" y="1243"/>
      <point x="1596" y="1349"/>
      <point x="1659" y="1456" type="curve"/>
      <point x="1645" y="1456" type="line"/>
      <point x="1627" y="1349"/>
      <point x="1609" y="1243"/>
      <point x="1591" y="1136" type="curve" smooth="yes"/>
      <point x="1403" y="0" type="line"/>
      <point x="1449" y="0" type="line"/>
      <point x="1696" y="1490" type="line"/>
      <point x="1627" y="1490" type="line"/>
      <point x="916" y="304" type="line" smooth="yes"/>
      <point x="862" y="213"/>
      <point x="809" y="123"/>
      <point x="755" y="32" type="curve"/>
      <point x="779" y="32" type="line"/>
      <point x="755" y="123"/>
      <point x="730" y="213"/>
      <point x="705" y="304" type="curve" smooth="yes"/>
      <point x="387" y="1490" type="line"/>
      <point x="328" y="1490" type="line"/>
    </contour>
  </outline>
</glyph>
<glyph name="N" format="2">
  <advance width="1453"/>
  <unicode hex="004E"/>
  <anchor x="639" y="0" name="bottom"/>
  <anchor x="81" y="0" name="lfthook"/>
  <anchor x="1197" y="0" name="lfthook2"/>
  <anchor x="886" y="1490" name="top"/>
  <outline>
    <contour>
      <point x="81" y="0" type="line"/>
      <point x="127" y="0" type="line"/>
      <point x="314" y="1129" type="line" smooth="yes"/>
      <point x="331" y="1233"/>
      <point x="346" y="1337"/>
      <point x="364" y="1441" type="curve"/>
      <point x="347" y="1441" type="line"/>
      <point x="405" y="1337"/>
      <point x="460" y="1233"/>
      <point x="519" y="1129" type="curve" smooth="yes"/>
      <point x="1158" y="0" type="line"/>
      <point x="1197" y="0" type="line"/>
      <point x="1444" y="1490" type="line"/>
      <point x="1398" y="1490" type="line"/>
      <point x="1210" y="359" type="line" smooth="yes"/>
      <point x="1193" y="255"/>
      <point x="1178" y="152"/>
      <point x="1161" y="48" type="curve"/>
      <point x="1179" y="48" type="line"/>
      <point x="1121" y="152"/>
      <point x="1066" y="255"/>
      <point x="1007" y="359" type="curve" smooth="yes"/>
      <point x="367" y="1490" type="line"/>
      <point x="328" y="1490" type="line"/>
    </contour>
  </outline>
</glyph>
<glyph name="O" format="2">
  <advance width="1402"/>
  <unicode hex="004F"/>
  <anchor x="615" y="0" name="bottom"/>
  <anchor x="738" y="745" name="center"/>
  <anchor x="1369" y="926" name="ogonek"/>
  <anchor x="365" y="1490" name="tonos"/>
  <anchor x="861" y="1490" name="top"/>
  <anchor x="865" y="1510" name="tophorn"/>
  <outline>
    <contour>
      <point x="614" y="-20" type="curve" smooth="yes"/>
      <point x="1082" y="-20"/>
      <point x="1369" y="466"/>
      <point x="1369" y="926" type="curve" smooth="yes"/>
      <point x="1369" y="1280"/>
      <point x="1177" y="1510"/>
      <point x="861" y="1510" type="curve" smooth="yes"/>
      <point x="394" y="1510"/>
      <point x="104" y="1024"/>
      <point x="104" y="564" type="curve" smooth="yes"/>
      <point x="104" y="211"/>
      <point x="296" y="-20"/>
    </contour>
    <contour>
      <point x="616" y="26" type="curve" smooth="yes"/>
      <point x="323" y="26"/>
      <point x="150" y="240"/>
      <point x="150" y="567" type="curve" smooth="yes"/>
      <point x="150" y="998"/>
      <point x="421" y="1464"/>
      <point x="860" y="1464" type="curve" smooth="yes"/>
      <point x="1148" y="1464"/>
      <point x="1323" y="1251"/>
      <point x="1323" y="922" type="curve" smooth="yes"/>
      <point x="1323" y="491"/>
      <point x="1052" y="26"/>
    </contour>
  </outline>
</glyph>
<glyph name="P" format="2">
  <advance width="1125"/>
  <unicode hex="0050"/>
  <anchor x="286" y="1490" name="tonos"/>
  <anchor x="734" y="1490" name="top"/>
  <anchor x="328" y="1490" name="topl"/>
  <outline>
    <contour>
      <point x="81" y="0" type="line"/>
      <point x="127" y="0" type="line"/>
      <point x="366" y="1444" type="line"/>
      <point x="806" y="1444" type="line" smooth="yes"/>
      <point x="1029" y="1444"/>
      <point x="1161" y="1293"/>
      <point x="1123" y="1064" type="curve" smooth="yes"/>
      <point x="1086" y="838"/>
      <point x="904" y="688"/>
      <point x="681" y="688" type="curve" smooth="yes"/>
      <point x="219" y="688" type="line"/>
      <point x="211" y="642" type="line"/>
      <point x="673" y="642" type="line" smooth="yes"/>
      <point x="922" y="642"/>
      <point x="1127" y="811"/>
      <point x="1169" y="1064" type="curve" smooth="yes"/>
      <point x="1212" y="1320"/>
      <point x="1062" y="1490"/>
      <point x="814" y="1490" type="curve" smooth="yes"/>
      <point x="328" y="1490" type="line"/>
    </contour>
  </outline>
</glyph>
<glyph name="Q" format="2">
  <advance width="1402"/>
  <unicode hex="0051"/>
  <anchor x="615" y="0" name="bottom"/>
  <anchor x="738" y="745" name="center"/>
  <anchor x="1369" y="926" name="ogonek"/>
  <anchor x="365" y="1490" name="tonos"/>
  <anchor x="861" y="1490" name="top"/>
  <anchor x="865" y="1510" name="tophorn"/>
  <outline>
    <contour>
      <point x="751" y="466" type="line"/>
      <point x="952" y="122" type="line"/>
      <point x="960" y="110" type="line"/>
      <point x="1107" y="-140" type="line"/>
      <point x="1160" y="-140" type="line"/>
      <point x="999" y="134" type="line"/>
      <point x="991" y="146" type="line"/>
      <point x="804" y="466" type="line"/>
    </contour>
    <component base="O"/>
  </outline>
</glyph>
<glyph name="R" format="2">
  <advance width="1184"/>
  <unicode hex="0052"/>
  <anchor x="509" y="0" name="bottom"/>
  <anchor x="756" y="1490" name="top"/>
  <outline>
    <contour>
      <point x="81" y="0" type="line"/>
      <point x="127" y="0" type="line"/>
      <point x="366" y="1444" type="line"/>
      <point x="814" y="1444" type="line" smooth="yes"/>
      <point x="1037" y="1444"/>
      <point x="1161" y="1293"/>
      <point x="1123" y="1064" type="curve" smooth="yes"/>
      <point x="1086" y="838"/>
      <point x="896" y="688"/>
      <point x="673" y="688" type="curve" smooth="yes"/>
      <point x="219" y="688" type="line"/>
      <point x="211" y="642" type="line"/>
      <point x="673" y="642" type="line" smooth="yes"/>
      <point x="922" y="642"/>
      <point x="1127" y="811"/>
      <point x="1169" y="1064" type="curve" smooth="yes"/>
      <point x="1212" y="1320"/>
      <point x="1062" y="1490"/>
      <point x="814" y="1490" type="curve" smooth="yes"/>
      <point x="328" y="1490" type="line"/>
    </contour>
    <contour>
      <point x="958" y="0" type="line"/>
      <point x="1007" y="0" type="line"/>
      <point x="761" y="678" type="line"/>
      <point x="712" y="678" type="line"/>
    </contour>
  </outline>
</glyph>
<glyph name="S" format="2">
  <advance width="1127"/>
  <unicode hex="0053"/>
  <anchor x="477" y="0" name="bottom"/>
  <anchor x="477" y="0" name="cedilla"/>
  <anchor x="723" y="1490" name="top"/>
  <outline>
    <contour>
      <point x="470" y="-22" type="curve" smooth="yes"/>
      <point x="759" y="-22"/>
      <point x="969" y="143"/>
      <point x="1008" y="375" type="curve" smooth="yes"/>
      <point x="1038" y="559"/>
      <point x="938" y="675"/>
      <point x="694" y="755" type="curve" smooth="yes"/>
      <point x="533" y="808" type="line" smooth="yes"/>
      <point x="331" y="874"/>
      <point x="248" y="975"/>
      <point x="273" y="1125" type="curve" smooth="yes"/>
      <point x="306" y="1322"/>
      <point x="500" y="1466"/>
      <point x="728" y="1466" type="curve" smooth="yes"/>
      <point x="958" y="1466"/>
      <point x="1083" y="1329"/>
      <point x="1064" y="1118" type="curve"/>
      <point x="1109" y="1118" type="line"/>
      <point x="1133" y="1347"/>
      <point x="986" y="1512"/>
      <point x="730" y="1512" type="curve" smooth="yes"/>
      <point x="477" y="1512"/>
      <point x="264" y="1350"/>
      <point x="228" y="1131" type="curve" smooth="yes"/>
      <point x="199" y="958"/>
      <point x="296" y="838"/>
      <point x="518" y="765" type="curve" smooth="yes"/>
      <point x="678" y="712" type="line" smooth="yes"/>
      <point x="908" y="636"/>
      <point x="988" y="540"/>
      <point x="962" y="381" type="curve" smooth="yes"/>
      <point x="926" y="169"/>
      <point x="730" y="24"/>
      <point x="471" y="24" type="curve" smooth="yes"/>
      <point x="228" y="24"/>
      <point x="92" y="146"/>
      <point x="110" y="350" type="curve"/>
      <point x="65" y="350" type="line"/>
      <point x="42" y="130"/>
      <point x="197" y="-22"/>
    </contour>
  </outline>
</glyph>
<glyph name="T" format="2">
  <advance width="1207"/>
  <unicode hex="0054"/>
  <anchor x="515" y="0" name="bottom"/>
  <anchor x="539" y="0" name="bottomr"/>
  <anchor x="516" y="0" name="cedilla"/>
  <anchor x="642" y="768" name="cross"/>
  <anchor x="539" y="0" name="cyrtic"/>
  <anchor x="527" y="0" name="right"/>
  <anchor x="762" y="1490" name="top"/>
  <outline>
    <contour>
      <point x="212" y="1444" type="line"/>
      <point x="732" y="1444" type="line"/>
      <point x="493" y="0" type="line"/>
      <point x="539" y="0" type="line"/>
      <point x="778" y="1444" type="line"/>
      <point x="1298" y="1444" type="line"/>
      <point x="1306" y="1490" type="line"/>
      <point x="220" y="1490" type="line"/>
    </contour>
  </outline>
</glyph>
<glyph name="U" format="2">
  <advance width="1352"/>
  <unicode hex="0055"/>
  <anchor x="589" y="0" name="bottom"/>
  <anchor x="1209" y="508" name="ogonek"/>
  <anchor x="651" y="0" name="right"/>
  <anchor x="1323" y="1490" name="rtophorn"/>
  <anchor x="835" y="1490" name="top"/>
  <outline>
    <contour>
      <point x="589" y="-16" type="curve" smooth="yes"/>
      <point x="893" y="-16"/>
      <point x="1159" y="205"/>
      <point x="1209" y="508" type="curve" smooth="yes"/>
      <point x="1371" y="1490" type="line"/>
      <point x="1325" y="1490" type="line"/>
      <point x="1163" y="512" type="line" smooth="yes"/>
      <point x="1117" y="236"/>
      <point x="873" y="30"/>
      <point x="590" y="30" type="curve" smooth="yes"/>
      <point x="311" y="30"/>
      <point x="137" y="232"/>
      <point x="183" y="508" type="curve" smooth="yes"/>
      <point x="345" y="1490" type="line"/>
      <point x="299" y="1490" type="line"/>
      <point x="137" y="512" type="line" smooth="yes"/>
      <point x="87" y="210"/>
      <point x="282" y="-16"/>
    </contour>
  </outline>
</glyph>
<glyph name="V" format="2">
  <advance width="1218"/>
  <unicode hex="0056"/>
  <anchor x="521" y="0" name="bottom"/>
  <anchor x="768" y="1490" name="top"/>
  <outline>
    <contour>
      <point x="490" y="0" type="line"/>
      <point x="553" y="0" type="line"/>
      <point x="1357" y="1490" type="line"/>
      <point x="1305" y="1490" type="line"/>
      <point x="684" y="336" type="line" smooth="yes"/>
      <point x="626" y="229"/>
      <point x="569" y="123"/>
      <point x="513" y="16" type="curve"/>
      <point x="531" y="16" type="line"/>
      <point x="509" y="123"/>
      <point x="488" y="229"/>
      <point x="466" y="336" type="curve" smooth="yes"/>
      <point x="225" y="1490" type="line"/>
      <point x="179" y="1490" type="line"/>
    </contour>
  </outline>
</glyph>
<glyph name="W" format="2">
  <advance width="1810"/>
  <unicode hex="0057"/>
  <anchor x="817" y="0" name="bottom"/>
  <anchor x="1064" y="1490" name="top"/>
  <outline>
    <contour>
      <point x="354" y="0" type="line"/>
      <point x="424" y="0" type="line"/>
      <point x="907" y="1104" type="line" smooth="yes"/>
      <point x="961" y="1227"/>
      <point x="1014" y="1349"/>
      <point x="1068" y="1472" type="curve"/>
      <point x="1054" y="1472" type="line"/>
      <point x="1066" y="1349"/>
      <point x="1079" y="1227"/>
      <point x="1092" y="1104" type="curve" smooth="yes"/>
      <point x="1210" y="0" type="line"/>
      <point x="1280" y="0" type="line"/>
      <point x="1949" y="1490" type="line"/>
      <point x="1899" y="1490" type="line"/>
      <point x="1388" y="352" type="line" smooth="yes"/>
      <point x="1338" y="240"/>
      <point x="1289" y="128"/>
      <point x="1239" y="16" type="curve"/>
      <point x="1253" y="16" type="line"/>
      <point x="1241" y="128"/>
      <point x="1230" y="240"/>
      <point x="1218" y="352" type="curve" smooth="yes"/>
      <point x="1097" y="1490" type="line"/>
      <point x="1028" y="1490" type="line"/>
      <point x="530" y="352" type="line" smooth="yes"/>
      <point x="481" y="240"/>
      <point x="432" y="128"/>
      <point x="384" y="16" type="curve"/>
      <point x="398" y="16" type="line"/>
      <point x="384" y="128"/>
      <point x="372" y="240"/>
      <point x="359" y="352" type="curve" smooth="yes"/>
      <point x="226" y="1490" type="line"/>
      <point x="179" y="1490" type="line"/>
    </contour>
  </outline>
</glyph>
<glyph name="X" format="2">
  <advance width="1188"/>
  <unicode hex="0058"/>
  <anchor x="507" y="0" name="bottom"/>
  <anchor x="632" y="756" name="cross"/>
  <anchor x="1047" y="0" name="cyrtic"/>
  <anchor x="754" y="1490" name="top"/>
  <outline>
    <contour>
      <point x="-62" y="0" type="line"/>
      <point x="-3" y="0" type="line"/>
      <point x="433" y="496" type="line" smooth="yes"/>
      <point x="503" y="575"/>
      <point x="571" y="655"/>
      <point x="641" y="734" type="curve"/>
      <point x="623" y="734" type="line"/>
      <point x="665" y="655"/>
      <point x="708" y="575"/>
      <point x="751" y="496" type="curve" smooth="yes"/>
      <point x="1023" y="0" type="line"/>
      <point x="1076" y="0" type="line"/>
      <point x="651" y="774" type="line"/>
      <point x="645" y="739" type="line"/>
      <point x="1307" y="1490" type="line"/>
      <point x="1247" y="1490" type="line"/>
      <point x="836" y="1024" type="line" smooth="yes"/>
      <point x="763" y="942"/>
      <point x="693" y="861"/>
      <point x="622" y="779" type="curve"/>
      <point x="642" y="779" type="line"/>
      <point x="599" y="861"/>
      <point x="555" y="942"/>
      <point x="510" y="1024" type="curve" smooth="yes"/>
      <point x="253" y="1490" type="line"/>
      <point x="201" y="1490" type="line"/>
      <point x="613" y="739" type="line"/>
      <point x="619" y="774" type="line"/>
    </contour>
  </outline>
</glyph>
<glyph name="Y" format="2">
  <advance width="1220"/>
  <unicode hex="0059"/>
  <anchor x="523" y="0" name="bottom"/>
  <anchor x="595" y="433" name="cross"/>
  <anchor x="546" y="0" name="ogonek"/>
  <anchor x="179" y="1490" name="tonos"/>
  <anchor x="769" y="1490" name="top"/>
  <outline>
    <contour>
      <point x="500" y="0" type="line"/>
      <point x="546" y="0" type="line"/>
      <point x="663" y="706" type="line"/>
      <point x="1359" y="1490" type="line"/>
      <point x="1299" y="1490" type="line"/>
      <point x="857" y="992" type="line" smooth="yes"/>
      <point x="782" y="907"/>
      <point x="707" y="821"/>
      <point x="632" y="736" type="curve"/>
      <point x="650" y="736" type="line"/>
      <point x="603" y="821"/>
      <point x="557" y="907"/>
      <point x="509" y="992" type="curve" smooth="yes"/>
      <point x="231" y="1490" type="line"/>
      <point x="179" y="1490" type="line"/>
      <point x="617" y="706" type="line"/>
    </contour>
  </outline>
</glyph>
<glyph name="Z" format="2">
  <advance width="1113"/>
  <unicode hex="005A"/>
  <anchor x="469" y="0" name="bottom"/>
  <anchor x="939" y="0" name="bottomr"/>
  <anchor x="592" y="744" name="cross"/>
  <anchor x="716" y="1490" name="top"/>
  <outline>
    <contour>
      <point x="3" y="0" type="line"/>
      <point x="939" y="0" type="line"/>
      <point x="947" y="46" type="line"/>
      <point x="69" y="46" type="line"/>
      <point x="1174" y="1442" type="line"/>
      <point x="1182" y="1490" type="line"/>
      <point x="256" y="1490" type="line"/>
      <point x="248" y="1442" type="line"/>
      <point x="1116" y="1442" type="line"/>
      <point x="11" y="46" type="line"/>
    </contour>
  </outline>
</glyph>
<glyph name="bracketleft" format="2">
  <advance width="518"/>
  <unicode hex="005B"/>
  <anchor x="232.879" y="636" name="cross"/>
  <outline>
    <contour>
      <point x="55.753" y="-295" type="line"/>
      <point x="287.753" y="-295" type="line"/>
      <point x="295.368" y="-249" type="line"/>
      <point x="109.368" y="-249" type="line"/>
      <point x="402.39" y="1521" type="line"/>
      <point x="588.39" y="1521" type="line"/>
      <point x="596.005" y="1567" type="line"/>
      <point x="364.005" y="1567" type="line"/>
    </contour>
  </outline>
</glyph>
<glyph name="backslash" format="2">
  <advance width="532"/>
  <unicode hex="005C"/>
  <outline>
    <contour>
      <point x="358" y="-224" type="line"/>
      <point x="406" y="-224" type="line"/>
      <point x="221" y="1560" type="line"/>
      <point x="173" y="1560" type="line"/>
    </contour>
  </outline>
</glyph>
<glyph name="bracketright" format="2">
  <advance width="518"/>
  <unicode hex="005D"/>
  <anchor x="321" y="636" name="cross"/>
  <outline>
    <contour>
      <point x="-42" y="-295" type="line"/>
      <point x="190" y="-295" type="line"/>
      <point x="498" y="1567" type="line"/>
      <point x="266" y="1567" type="line"/>
      <point x="258" y="1521" type="line"/>
      <point x="444" y="1521" type="line"/>
      <point x="151" y="-249" type="line"/>
      <point x="-35" y="-249" type="line"/>
    </contour>
  </outline>
</glyph>
<glyph name="asciicircum" format="2">
  <advance width="692"/>
  <unicode hex="005E"/>
  <outline>
    <contour>
      <point x="478.676" y="1414" type="line"/>
      <point x="471.061" y="1368" type="line"/>
      <point x="499.061" y="1368" type="line"/>
      <point x="506.676" y="1414" type="line"/>
    </contour>
    <contour>
      <point x="79.347" y="814" type="line"/>
      <point x="131.347" y="814" type="line"/>
      <point x="501.696" y="1396" type="line"/>
      <point x="477.696" y="1396" type="line"/>
      <point x="655.347" y="814" type="line"/>
      <point x="707.347" y="814" type="line"/>
      <point x="515.312" y="1442" type="line"/>
      <point x="479.312" y="1442" type="line"/>
    </contour>
  </outline>
</glyph>
<glyph name="underscore" format="2">
  <advance width="884"/>
  <unicode hex="005F"/>
  <anchor x="405" y="299" name="_bottom"/>
  <outline>
    <contour>
      <point x="797" y="0" type="line"/>
      <point x="-87" y="0" type="line"/>
      <point x="-95" y="-46" type="line"/>
      <point x="789" y="-46" type="line"/>
    </contour>
  </outline>
</glyph>
<glyph name="a" format="2">
  <advance width="1118"/>
  <unicode hex="0061"/>
  <anchor x="530.0" y="0" name="bottom"/>
  <anchor x="984.0" y="0" name="bottomr"/>
  <anchor x="984.0" y="0" name="ogonek"/>
  <anchor x="720.08" y="1056" name="top"/>
  <anchor x="1174.08" y="1056" name="topr"/>
  <outline>
    <contour>
      <point x="527.12" y="-16" type="curve" smooth="yes"/>
      <point x="728.12" y="-16"/>
      <point x="913.34" y="113"/>
      <point x="987.4" y="280" type="curve"/>
      <point x="988.4" y="280" type="line"/>
      <point x="938.0" y="0" type="line"/>
      <point x="984.0" y="0" type="line"/>
      <point x="1174.08" y="1056" type="line"/>
      <point x="1128.08" y="1056" type="line"/>
      <point x="1076.6" y="770" type="line"/>
      <point x="1075.6" y="770" type="line"/>
      <point x="1067.02" y="939"/>
      <point x="923.96" y="1072"/>
      <point x="722.96" y="1072" type="curve" smooth="yes"/>
      <point x="460.96" y="1072"/>
      <point x="220.07999999999998" y="856"/>
      <point x="161.04" y="528" type="curve" smooth="yes"/>
      <point x="101.46000000000001" y="197"/>
      <point x="262.12" y="-16"/>
    </contour>
    <contour>
      <point x="535.4" y="30" type="curve" smooth="yes"/>
      <point x="298.4" y="30"/>
      <point x="151.96" y="222"/>
      <point x="207.04" y="528" type="curve" smooth="yes"/>
      <point x="262.12" y="834"/>
      <point x="477.68" y="1026"/>
      <point x="714.6800000000001" y="1026" type="curve" smooth="yes"/>
      <point x="958.6800000000001" y="1026"/>
      <point x="1088.12" y="834"/>
      <point x="1033.04" y="528" type="curve" smooth="yes"/>
      <point x="977.96" y="222"/>
      <point x="779.4" y="30"/>
    </contour>
  </outline>
</glyph>
<glyph name="b" format="2">
  <advance width="1120"/>
  <unicode hex="0062"/>
  <anchor x="501" y="0" name="bottom"/>
  <anchor x="302" y="1262" name="cross"/>
  <anchor x="710" y="1262" name="top"/>
  <anchor x="293" y="1490" name="topbar"/>
  <outline>
    <contour>
      <point x="501" y="-16" type="curve" smooth="yes"/>
      <point x="836" y="-16"/>
      <point x="1063" y="312"/>
      <point x="1063" y="646" type="curve" smooth="yes"/>
      <point x="1063" y="906"/>
      <point x="905" y="1072"/>
      <point x="675" y="1072" type="curve" smooth="yes"/>
      <point x="473" y="1072"/>
      <point x="288" y="944"/>
      <point x="221" y="770" type="curve"/>
      <point x="220" y="770" type="line"/>
      <point x="339" y="1490" type="line"/>
      <point x="293" y="1490" type="line"/>
      <point x="47" y="0" type="line"/>
      <point x="93" y="0" type="line"/>
      <point x="139" y="281" type="line"/>
      <point x="140" y="281" type="line"/>
      <point x="160" y="113"/>
      <point x="298" y="-16"/>
    </contour>
    <contour>
      <point x="501" y="30" type="curve" smooth="yes"/>
      <point x="294" y="30"/>
      <point x="168" y="170"/>
      <point x="168" y="402" type="curve" smooth="yes"/>
      <point x="168" y="713"/>
      <point x="358" y="1026"/>
      <point x="674" y="1026" type="curve" smooth="yes"/>
      <point x="878" y="1026"/>
      <point x="1017" y="883"/>
      <point x="1017" y="645" type="curve" smooth="yes"/>
      <point x="1017" y="333"/>
      <point x="807" y="30"/>
    </contour>
  </outline>
</glyph>
<glyph name="c" format="2">
  <advance width="1019"/>
  <unicode hex="0063"/>
  <anchor x="442" y="0" name="bottom"/>
  <anchor x="442" y="0" name="cedilla"/>
  <anchor x="529" y="528" name="center"/>
  <anchor x="616" y="1056" name="top"/>
  <anchor x="981" y="712" name="topr"/>
  <outline>
    <contour>
      <point x="442" y="-16" type="curve" smooth="yes"/>
      <point x="658" y="-16"/>
      <point x="847" y="129"/>
      <point x="924" y="350" type="curve"/>
      <point x="875" y="350" type="line"/>
      <point x="799" y="151"/>
      <point x="633" y="30"/>
      <point x="442" y="30" type="curve" smooth="yes"/>
      <point x="196" y="30"/>
      <point x="63" y="233"/>
      <point x="111" y="524" type="curve" smooth="yes"/>
      <point x="160" y="818"/>
      <point x="369" y="1026"/>
      <point x="616" y="1026" type="curve" smooth="yes"/>
      <point x="806" y="1026"/>
      <point x="928" y="906"/>
      <point x="936" y="710" type="curve"/>
      <point x="981" y="710" type="line"/>
      <point x="974" y="926"/>
      <point x="833" y="1072"/>
      <point x="616" y="1072" type="curve" smooth="yes"/>
      <point x="345" y="1072"/>
      <point x="118" y="845"/>
      <point x="66" y="531" type="curve" smooth="yes"/>
      <point x="14" y="215"/>
      <point x="167" y="-16"/>
    </contour>
  </outline>
</glyph>
<glyph name="d" format="2">
  <advance width="1119"/>
  <unicode hex="0064"/>
  <anchor x="444" y="0" name="bottom"/>
  <anchor x="898" y="0" name="bottomr"/>
  <anchor x="1061" y="1262" name="cross"/>
  <anchor x="1252" y="1490" name="raccent"/>
  <anchor x="653" y="1262" name="top"/>
  <anchor x="1144" y="1490" name="topbar"/>
  <outline>
    <contour>
      <point x="444" y="-16" type="curve" smooth="yes"/>
      <point x="643" y="-16"/>
      <point x="825" y="113"/>
      <point x="897" y="280" type="curve"/>
      <point x="898" y="280" type="line"/>
      <point x="852" y="0" type="line"/>
      <point x="898" y="0" type="line"/>
      <point x="1144" y="1490" type="line"/>
      <point x="1098" y="1490" type="line"/>
      <point x="979" y="768" type="line"/>
      <point x="978" y="768" type="line"/>
      <point x="967" y="937"/>
      <point x="821" y="1072"/>
      <point x="618" y="1072" type="curve" smooth="yes"/>
      <point x="294" y="1072"/>
      <point x="56" y="752"/>
      <point x="56" y="406" type="curve" smooth="yes"/>
      <point x="56" y="146"/>
      <point x="212" y="-16"/>
    </contour>
    <contour>
      <point x="445" y="30" type="curve" smooth="yes"/>
      <point x="241" y="30"/>
      <point x="102" y="173"/>
      <point x="102" y="411" type="curve" smooth="yes"/>
      <point x="102" y="721"/>
      <point x="311" y="1026"/>
      <point x="617" y="1026" type="curve" smooth="yes"/>
      <point x="825" y="1026"/>
      <point x="951" y="886"/>
      <point x="951" y="654" type="curve" smooth="yes"/>
      <point x="951" y="342"/>
      <point x="760" y="30"/>
    </contour>
  </outline>
</glyph>
<glyph name="e" format="2">
  <advance width="1003"/>
  <unicode hex="0065"/>
  <anchor x="439" y="0" name="bottom"/>
  <anchor x="437" y="0" name="cedilla"/>
  <anchor x="902" y="304" name="ogonek"/>
  <anchor x="620" y="1056" name="top"/>
  <outline>
    <contour>
      <point x="440" y="-16" type="curve" smooth="yes"/>
      <point x="660" y="-16"/>
      <point x="836.288" y="123.023"/>
      <point x="905.079" y="312.241" type="curve"/>
      <point x="855.806" y="312.241" type="line"/>
      <point x="787" y="144"/>
      <point x="632" y="30"/>
      <point x="440" y="30" type="curve" smooth="yes"/>
      <point x="225" y="30"/>
      <point x="102" y="173.904"/>
      <point x="102" y="410" type="curve" smooth="yes"/>
      <point x="102" y="719"/>
      <point x="315" y="1026"/>
      <point x="623" y="1026" type="curve" smooth="yes"/>
      <point x="818" y="1026"/>
      <point x="914" y="905"/>
      <point x="914" y="769" type="curve" smooth="yes"/>
      <point x="914" y="533"/>
      <point x="587" y="534"/>
      <point x="87" y="534" type="curve"/>
      <point x="87" y="488" type="line"/>
      <point x="583" y="488"/>
      <point x="960" y="482"/>
      <point x="960" y="769" type="curve" smooth="yes"/>
      <point x="960" y="926"/>
      <point x="847" y="1072"/>
      <point x="623" y="1072" type="curve" smooth="yes"/>
      <point x="288" y="1072"/>
      <point x="56" y="742"/>
      <point x="56" y="410" type="curve" smooth="yes"/>
      <point x="56" y="146"/>
      <point x="203" y="-16"/>
    </contour>
  </outline>
</glyph>
<glyph name="f" format="2">
  <advance width="486"/>
  <unicode hex="0066"/>
  <anchor x="246" y="745" name="cross"/>
  <anchor x="479" y="1490" name="top"/>
  <anchor x="124" y="0" name="bottom"/>
  <outline>
    <contour>
      <point x="553" y="1056" type="line"/>
      <point x="87" y="1056" type="line"/>
      <point x="80" y="1010" type="line"/>
      <point x="546" y="1010" type="line"/>
    </contour>
    <component base="_part.f_base" xOffset="-43"/>
  </outline>
</glyph>
<glyph name="g" format="2">
  <advance width="1118"/>
  <unicode hex="0067"/>
  <anchor x="394" y="-436" name="bottom"/>
  <anchor x="960" y="528" name="cross"/>
  <anchor x="617" y="1056" name="top"/>
  <anchor x="1071" y="1056" name="topr"/>
  <outline>
    <contour>
      <point x="391" y="-427" type="curve" smooth="yes"/>
      <point x="675" y="-427"/>
      <point x="853" y="-262"/>
      <point x="896" y="-4" type="curve" smooth="yes"/>
      <point x="1071" y="1056" type="line"/>
      <point x="1025" y="1056" type="line"/>
      <point x="978" y="770" type="line"/>
      <point x="977" y="770" type="line"/>
      <point x="964" y="939"/>
      <point x="824" y="1072"/>
      <point x="617" y="1072" type="curve" smooth="yes"/>
      <point x="287" y="1072"/>
      <point x="56" y="745"/>
      <point x="56" y="406" type="curve" smooth="yes"/>
      <point x="56" y="146"/>
      <point x="211" y="-16"/>
      <point x="443" y="-16" type="curve" smooth="yes"/>
      <point x="646" y="-16"/>
      <point x="824" y="113"/>
      <point x="896" y="280" type="curve"/>
      <point x="897" y="280" type="line"/>
      <point x="851" y="0" type="line" smooth="yes"/>
      <point x="814" y="-228"/>
      <point x="653" y="-381"/>
      <point x="392" y="-381" type="curve" smooth="yes"/>
      <point x="168" y="-381"/>
      <point x="69" y="-289"/>
      <point x="59" y="-112" type="curve"/>
      <point x="14" y="-112" type="line"/>
      <point x="22" y="-314"/>
      <point x="141" y="-427"/>
    </contour>
    <contour>
      <point x="444" y="30" type="curve" smooth="yes"/>
      <point x="236" y="30"/>
      <point x="103" y="172"/>
      <point x="103" y="408" type="curve" smooth="yes"/>
      <point x="103" y="725"/>
      <point x="316" y="1026"/>
      <point x="616" y="1026" type="curve" smooth="yes"/>
      <point x="824" y="1026"/>
      <point x="950" y="886"/>
      <point x="950" y="654" type="curve" smooth="yes"/>
      <point x="950" y="343"/>
      <point x="757" y="30"/>
    </contour>
  </outline>
</glyph>
<glyph name="h" format="2">
  <advance width="1069"/>
  <unicode hex="0068"/>
  <anchor x="447" y="0" name="bottom"/>
  <anchor x="70" y="0" name="cedilla"/>
  <anchor x="302" y="1262" name="cross"/>
  <anchor x="801" y="0" name="lfthook"/>
  <anchor x="317" y="1490" name="top"/>
  <outline>
    <contour>
      <point x="207" y="688" type="line" smooth="yes"/>
      <point x="239" y="884"/>
      <point x="419" y="1026"/>
      <point x="627" y="1026" type="curve" smooth="yes"/>
      <point x="830" y="1026"/>
      <point x="949" y="891"/>
      <point x="915" y="688" type="curve" smooth="yes"/>
      <point x="801" y="0" type="line"/>
      <point x="847" y="0" type="line"/>
      <point x="961" y="688" type="line" smooth="yes"/>
      <point x="999" y="917"/>
      <point x="855" y="1072"/>
      <point x="626" y="1072" type="curve" smooth="yes"/>
      <point x="456" y="1072"/>
      <point x="292" y="987"/>
      <point x="216" y="816" type="curve"/>
      <point x="228" y="816" type="line"/>
      <point x="340" y="1490" type="line"/>
      <point x="294" y="1490" type="line"/>
      <point x="47" y="0" type="line"/>
      <point x="93" y="0" type="line"/>
    </contour>
  </outline>
</glyph>
<glyph name="k" format="2">
  <advance width="848"/>
  <unicode hex="006B"/>
  <anchor x="387" y="0" name="bottom"/>
  <anchor x="317" y="1490" name="top"/>
  <outline>
    <contour>
      <point x="155" y="450" type="line"/>
      <point x="346" y="610" type="line"/>
      <point x="353" y="616" type="line"/>
      <point x="871" y="1056" type="line"/>
      <point x="805" y="1056" type="line"/>
      <point x="187" y="531" type="line"/>
      <point x="169" y="531" type="line"/>
    </contour>
    <contour>
      <point x="47" y="0" type="line"/>
      <point x="93" y="0" type="line"/>
      <point x="340" y="1490" type="line"/>
      <point x="294" y="1490" type="line"/>
    </contour>
    <contour>
      <point x="694" y="0" type="line"/>
      <point x="753" y="0" type="line"/>
      <point x="345" y="645" type="line"/>
      <point x="305" y="616" type="line"/>
    </contour>
  </outline>
</glyph>
<glyph name="m" format="2">
  <advance width="1646"/>
  <unicode hex="006D"/>
  <anchor x="736" y="0" name="bottom"/>
  <anchor x="1379" y="0" name="lfthook"/>
  <anchor x="910" y="1056" name="top"/>
  <outline>
    <contour>
      <point x="47" y="0" type="line"/>
      <point x="93" y="0" type="line"/>
      <point x="206" y="686" type="line" smooth="yes"/>
      <point x="239" y="883"/>
      <point x="408" y="1026"/>
      <point x="598" y="1026" type="curve" smooth="yes"/>
      <point x="771" y="1026"/>
      <point x="863" y="906"/>
      <point x="827" y="690" type="curve" smooth="yes"/>
      <point x="713" y="0" type="line"/>
      <point x="759" y="0" type="line"/>
      <point x="872" y="686" type="line" smooth="yes"/>
      <point x="908" y="902"/>
      <point x="1075" y="1026"/>
      <point x="1258" y="1026" type="curve" smooth="yes"/>
      <point x="1436" y="1026"/>
      <point x="1529" y="906"/>
      <point x="1493" y="690" type="curve" smooth="yes"/>
      <point x="1379" y="0" type="line"/>
      <point x="1425" y="0" type="line"/>
      <point x="1538" y="686" type="line" smooth="yes"/>
      <point x="1577" y="923"/>
      <point x="1470" y="1072"/>
      <point x="1259" y="1072" type="curve" smooth="yes"/>
      <point x="1085" y="1072"/>
      <point x="926" y="969"/>
      <point x="860" y="802" type="curve"/>
      <point x="878" y="798" type="line"/>
      <point x="876" y="965"/>
      <point x="766" y="1072"/>
      <point x="599" y="1072" type="curve" smooth="yes"/>
      <point x="453" y="1072"/>
      <point x="282" y="988"/>
      <point x="212" y="817" type="curve"/>
      <point x="228" y="816" type="line"/>
      <point x="267" y="1056" type="line"/>
      <point x="221" y="1056" type="line"/>
    </contour>
  </outline>
</glyph>
<glyph name="n" format="2">
  <advance width="1068"/>
  <unicode hex="006E"/>
  <anchor x="447" y="0" name="bottom"/>
  <anchor x="847" y="0" name="bottomr"/>
  <anchor x="47" y="0" name="lfthook"/>
  <anchor x="623" y="1056" name="top"/>
  <anchor x="267" y="1056" name="topr"/>
  <outline>
    <contour>
      <point x="206" y="686" type="line" smooth="yes"/>
      <point x="239" y="882"/>
      <point x="420" y="1026"/>
      <point x="630" y="1026" type="curve" smooth="yes"/>
      <point x="831" y="1026"/>
      <point x="948" y="893"/>
      <point x="915" y="690" type="curve" smooth="yes"/>
      <point x="801" y="0" type="line"/>
      <point x="847" y="0" type="line"/>
      <point x="960" y="686" type="line" smooth="yes"/>
      <point x="998" y="915"/>
      <point x="862" y="1072"/>
      <point x="631" y="1072" type="curve" smooth="yes"/>
      <point x="463" y="1072"/>
      <point x="292" y="988"/>
      <point x="216" y="817" type="curve"/>
      <point x="228" y="816" type="line"/>
      <point x="267" y="1056" type="line"/>
      <point x="221" y="1056" type="line"/>
      <point x="47" y="0" type="line"/>
      <point x="93" y="0" type="line"/>
    </contour>
  </outline>
</glyph>
<glyph name="o" format="2">
  <advance width="1058"/>
  <unicode hex="006F"/>
  <anchor x="443" y="0" name="bottom"/>
  <anchor x="530" y="528" name="center"/>
  <anchor x="992" y="528" name="ogonek"/>
  <anchor x="617" y="1056" name="top"/>
  <anchor x="620" y="1072" name="tophorn"/>
  <outline>
    <contour>
      <point x="440" y="-16" type="curve" smooth="yes"/>
      <point x="771" y="-16"/>
      <point x="1002" y="314"/>
      <point x="1002" y="647" type="curve" smooth="yes"/>
      <point x="1002" y="899"/>
      <point x="856" y="1072"/>
      <point x="620" y="1072" type="curve" smooth="yes"/>
      <point x="288" y="1072"/>
      <point x="56" y="742"/>
      <point x="56" y="410" type="curve" smooth="yes"/>
      <point x="56" y="157"/>
      <point x="203" y="-16"/>
    </contour>
    <contour>
      <point x="440" y="30" type="curve" smooth="yes"/>
      <point x="228" y="30"/>
      <point x="102" y="178"/>
      <point x="102" y="410" type="curve" smooth="yes"/>
      <point x="102" y="723"/>
      <point x="316" y="1026"/>
      <point x="620" y="1026" type="curve" smooth="yes"/>
      <point x="833" y="1026"/>
      <point x="956" y="879"/>
      <point x="956" y="647" type="curve" smooth="yes"/>
      <point x="956" y="332"/>
      <point x="743" y="30"/>
    </contour>
  </outline>
</glyph>
<glyph name="p" format="2">
  <advance width="1120"/>
  <unicode hex="0070"/>
  <anchor x="0" y="-418" name="bottom"/>
  <anchor x="43" y="-162" name="cross"/>
  <anchor x="675" y="1056" name="top"/>
  <anchor x="267" y="1056" name="topr"/>
  <outline>
    <contour>
      <point x="-23" y="-418" type="line"/>
      <point x="23" y="-418" type="line"/>
      <point x="139" y="281" type="line"/>
      <point x="140" y="281" type="line"/>
      <point x="161" y="114"/>
      <point x="298" y="-16"/>
      <point x="501" y="-16" type="curve" smooth="yes"/>
      <point x="836" y="-16"/>
      <point x="1063" y="312"/>
      <point x="1063" y="646" type="curve" smooth="yes"/>
      <point x="1063" y="906"/>
      <point x="905" y="1072"/>
      <point x="675" y="1072" type="curve" smooth="yes"/>
      <point x="476" y="1072"/>
      <point x="288" y="941"/>
      <point x="221" y="770" type="curve"/>
      <point x="220" y="770" type="line"/>
      <point x="267" y="1056" type="line"/>
      <point x="221" y="1056" type="line"/>
    </contour>
    <contour>
      <point x="502" y="30" type="curve" smooth="yes"/>
      <point x="294" y="30"/>
      <point x="168" y="170"/>
      <point x="168" y="402" type="curve" smooth="yes"/>
      <point x="168" y="714"/>
      <point x="359" y="1026"/>
      <point x="674" y="1026" type="curve" smooth="yes"/>
      <point x="878" y="1026"/>
      <point x="1017" y="883"/>
      <point x="1017" y="645" type="curve" smooth="yes"/>
      <point x="1017" y="335"/>
      <point x="808" y="30"/>
    </contour>
  </outline>
</glyph>
<glyph name="q" format="2">
  <advance width="1120"/>
  <unicode hex="0071"/>
  <anchor x="806" y="-418" name="bottom"/>
  <anchor x="849" y="-162" name="cross"/>
  <anchor x="648" y="1056" name="top"/>
  <anchor x="1073" y="1056" name="topr"/>
  <outline>
    <contour>
      <point x="829" y="-418" type="line"/>
      <point x="1073" y="1056" type="line"/>
      <point x="1027" y="1056" type="line"/>
      <point x="980" y="770" type="line"/>
      <point x="979" y="770" type="line"/>
      <point x="963" y="939"/>
      <point x="824" y="1072"/>
      <point x="619" y="1072" type="curve" smooth="yes"/>
      <point x="293" y="1072"/>
      <point x="56" y="750"/>
      <point x="56" y="409" type="curve" smooth="yes"/>
      <point x="56" y="147"/>
      <point x="216" y="-16"/>
      <point x="445" y="-16" type="curve" smooth="yes"/>
      <point x="644" y="-16"/>
      <point x="822" y="107"/>
      <point x="898" y="280" type="curve"/>
      <point x="899" y="280" type="line"/>
      <point x="783" y="-418" type="line"/>
    </contour>
    <contour>
      <point x="445" y="30" type="curve" smooth="yes"/>
      <point x="238" y="30"/>
      <point x="103" y="172"/>
      <point x="103" y="409" type="curve" smooth="yes"/>
      <point x="103" y="723"/>
      <point x="315" y="1026"/>
      <point x="623" y="1026" type="curve" smooth="yes"/>
      <point x="827" y="1026"/>
      <point x="952" y="886"/>
      <point x="952" y="655" type="curve" smooth="yes"/>
      <point x="952" y="342"/>
      <point x="760" y="30"/>
    </contour>
  </outline>
</glyph>
<glyph name="r" format="2">
  <advance width="539"/>
  <unicode hex="0072"/>
  <anchor x="71" y="0" name="bottom"/>
  <anchor x="93" y="0" name="bottomr"/>
  <anchor x="160" y="536" name="cross"/>
  <anchor x="452" y="1056" name="top"/>
  <outline>
    <contour>
      <point x="47" y="0" type="line"/>
      <point x="93" y="0" type="line"/>
      <point x="206" y="680" type="line" smooth="yes"/>
      <point x="238" y="875"/>
      <point x="404" y="1016"/>
      <point x="601" y="1016" type="curve" smooth="yes"/>
      <point x="613" y="1016"/>
      <point x="617" y="1016"/>
      <point x="625" y="1016" type="curve"/>
      <point x="633" y="1062" type="line"/>
      <point x="621" y="1062"/>
      <point x="621" y="1062"/>
      <point x="609" y="1062" type="curve" smooth="yes"/>
      <point x="456" y="1062"/>
      <point x="309" y="984"/>
      <point x="236" y="859" type="curve"/>
      <point x="235" y="859" type="line"/>
      <point x="268" y="1056" type="line"/>
      <point x="222" y="1056" type="line"/>
    </contour>
  </outline>
</glyph>
<glyph name="s" format="2">
  <advance width="915"/>
  <unicode hex="0073"/>
  <anchor x="372" y="0" name="bottom"/>
  <anchor x="374" y="0" name="cedilla"/>
  <anchor x="44" y="316" name="rthook"/>
  <anchor x="549" y="1056" name="top"/>
  <outline>
    <contour>
      <point x="373" y="-14" type="curve" smooth="yes"/>
      <point x="603" y="-14"/>
      <point x="798" y="128"/>
      <point x="798" y="332" type="curve" smooth="yes"/>
      <point x="798" y="442"/>
      <point x="714" y="494"/>
      <point x="568" y="529" type="curve" smooth="yes"/>
      <point x="390" y="572" type="line" smooth="yes"/>
      <point x="256" y="604"/>
      <point x="184" y="651"/>
      <point x="184" y="742" type="curve" smooth="yes"/>
      <point x="184" y="914"/>
      <point x="359" y="1024"/>
      <point x="548" y="1024" type="curve" smooth="yes"/>
      <point x="738" y="1024"/>
      <point x="825" y="928"/>
      <point x="809" y="741" type="curve"/>
      <point x="854" y="741" type="line"/>
      <point x="856" y="757"/>
      <point x="856" y="772"/>
      <point x="856" y="787" type="curve" smooth="yes"/>
      <point x="856" y="968"/>
      <point x="746" y="1070"/>
      <point x="546" y="1070" type="curve" smooth="yes"/>
      <point x="326" y="1070"/>
      <point x="137" y="935"/>
      <point x="137" y="738" type="curve" smooth="yes"/>
      <point x="137" y="626"/>
      <point x="223" y="567"/>
      <point x="378" y="529" type="curve" smooth="yes"/>
      <point x="554" y="486" type="line" smooth="yes"/>
      <point x="680" y="455"/>
      <point x="752" y="420"/>
      <point x="752" y="329" type="curve" smooth="yes"/>
      <point x="752" y="157"/>
      <point x="578" y="32"/>
      <point x="373" y="32" type="curve" smooth="yes"/>
      <point x="179" y="32"/>
      <point x="67" y="131"/>
      <point x="90" y="316" type="curve"/>
      <point x="45" y="316" type="line"/>
      <point x="43" y="299"/>
      <point x="42" y="282"/>
      <point x="42" y="266" type="curve" smooth="yes"/>
      <point x="42" y="96"/>
      <point x="159" y="-14"/>
    </contour>
  </outline>
</glyph>
<glyph name="t" format="2">
  <advance width="442"/>
  <unicode hex="0074"/>
  <anchor x="278.0" y="0" name="bottom"/>
  <anchor x="271.0" y="0" name="cedilla"/>
  <anchor x="412.0" y="0" name="lfthook"/>
  <anchor x="398.92" y="1344" name="top"/>
  <anchor x="590.2" y="1490" name="raccent"/>
  <outline>
    <contour>
      <point x="602.0799999999999" y="1056" type="line"/>
      <point x="346.08" y="1056" type="line"/>
      <point x="337.79999999999995" y="1010" type="line"/>
      <point x="593.8" y="1010" type="line"/>
    </contour>
    <component base="_part.t_base" yxScale="0.18" xOffset="-70.0"/>
  </outline>
</glyph>
<glyph name="u" format="2">
  <advance width="1069"/>
  <unicode hex="0075"/>
  <anchor x="447" y="0" name="bottom"/>
  <anchor x="847" y="0" name="ogonek"/>
  <anchor x="976" y="1056" name="rtophorn"/>
  <anchor x="622" y="1056" name="top"/>
  <outline>
    <contour>
      <point x="442" y="-16" type="curve" smooth="yes"/>
      <point x="612" y="-16"/>
      <point x="776" y="69"/>
      <point x="853" y="240" type="curve"/>
      <point x="841" y="240" type="line"/>
      <point x="801" y="0" type="line"/>
      <point x="847" y="0" type="line"/>
      <point x="1022" y="1056" type="line"/>
      <point x="976" y="1056" type="line"/>
      <point x="862" y="368" type="line" smooth="yes"/>
      <point x="830" y="172"/>
      <point x="650" y="30"/>
      <point x="442" y="30" type="curve" smooth="yes"/>
      <point x="239" y="30"/>
      <point x="120" y="165"/>
      <point x="154" y="368" type="curve" smooth="yes"/>
      <point x="268" y="1056" type="line"/>
      <point x="222" y="1056" type="line"/>
      <point x="108" y="368" type="line" smooth="yes"/>
      <point x="70" y="139"/>
      <point x="213" y="-16"/>
    </contour>
  </outline>
</glyph>
<glyph name="v" format="2">
  <advance width="998"/>
  <unicode hex="0076"/>
  <anchor x="411" y="0" name="bottom"/>
  <anchor x="586" y="1056" name="top"/>
  <outline>
    <contour>
      <point x="383" y="0" type="line"/>
      <point x="439" y="0" type="line"/>
      <point x="1050" y="1056" type="line"/>
      <point x="998" y="1056" type="line"/>
      <point x="582" y="336" type="line" smooth="yes"/>
      <point x="523" y="235"/>
      <point x="465" y="131"/>
      <point x="407" y="30" type="curve"/>
      <point x="420" y="30" type="line"/>
      <point x="396" y="131"/>
      <point x="372" y="235"/>
      <point x="347" y="336" type="curve" smooth="yes"/>
      <point x="169" y="1056" type="line"/>
      <point x="122" y="1056" type="line"/>
    </contour>
  </outline>
</glyph>
<glyph name="w" format="2">
  <advance width="1473"/>
  <unicode hex="0077"/>
  <anchor x="651" y="0" name="bottom"/>
  <anchor x="826" y="1056" name="top"/>
  <outline>
    <contour>
      <point x="255" y="0" type="line"/>
      <point x="319" y="0" type="line"/>
      <point x="745" y="864" type="line" smooth="yes"/>
      <point x="774" y="923"/>
      <point x="802" y="981"/>
      <point x="830" y="1040" type="curve"/>
      <point x="811" y="1040" type="line"/>
      <point x="820" y="981"/>
      <point x="828" y="923"/>
      <point x="838" y="864" type="curve" smooth="yes"/>
      <point x="978" y="0" type="line"/>
      <point x="1042" y="0" type="line"/>
      <point x="1525" y="1056" type="line"/>
      <point x="1476" y="1056" type="line"/>
      <point x="1125" y="288" type="line" smooth="yes"/>
      <point x="1083" y="197"/>
      <point x="1043" y="107"/>
      <point x="1003" y="16" type="curve"/>
      <point x="1019" y="16" type="line"/>
      <point x="1005" y="107"/>
      <point x="991" y="197"/>
      <point x="976" y="288" type="curve" smooth="yes"/>
      <point x="852" y="1056" type="line"/>
      <point x="791" y="1056" type="line"/>
      <point x="412" y="288" type="line" smooth="yes"/>
      <point x="367" y="197"/>
      <point x="324" y="107"/>
      <point x="280" y="16" type="curve"/>
      <point x="296" y="16" type="line"/>
      <point x="285" y="107"/>
      <point x="276" y="197"/>
      <point x="265" y="288" type="curve" smooth="yes"/>
      <point x="169" y="1056" type="line"/>
      <point x="122" y="1056" type="line"/>
    </contour>
  </outline>
</glyph>
<glyph name="x" format="2">
  <advance width="974"/>
  <unicode hex="0078"/>
  <anchor x="400" y="0" name="bottom"/>
  <anchor x="812" y="0" name="cyrtic"/>
  <anchor x="674" y="0" name="right"/>
  <anchor x="575" y="1056" name="top"/>
  <outline>
    <contour>
      <point x="-52" y="0" type="line"/>
      <point x="10" y="0" type="line"/>
      <point x="297" y="304" type="line" smooth="yes"/>
      <point x="366" y="377"/>
      <point x="435" y="449"/>
      <point x="503" y="522" type="curve"/>
      <point x="477" y="522" type="line"/>
      <point x="522" y="449"/>
      <point x="566" y="377"/>
      <point x="611" y="304" type="curve" smooth="yes"/>
      <point x="798" y="0" type="line"/>
      <point x="852" y="0" type="line"/>
      <point x="509" y="557" type="line"/>
      <point x="504" y="523" type="line"/>
      <point x="1008" y="1056" type="line"/>
      <point x="946" y="1056" type="line"/>
      <point x="689" y="784" type="line" smooth="yes"/>
      <point x="618" y="709"/>
      <point x="547" y="633"/>
      <point x="475" y="558" type="curve"/>
      <point x="501" y="558" type="line"/>
      <point x="455" y="633"/>
      <point x="409" y="709"/>
      <point x="363" y="784" type="curve" smooth="yes"/>
      <point x="196" y="1056" type="line"/>
      <point x="142" y="1056" type="line"/>
      <point x="470" y="523" type="line"/>
      <point x="475" y="557" type="line"/>
    </contour>
  </outline>
</glyph>
<glyph name="y" format="2">
  <advance width="998"/>
  <unicode hex="0079"/>
  <anchor x="574" y="0" name="bottom"/>
  <anchor x="440" y="0" name="ogonek"/>
  <anchor x="586" y="1056" name="top"/>
  <outline>
    <contour>
      <point x="-42" y="-418" type="line"/>
      <point x="-3" y="-418"/>
      <point x="9" y="-418"/>
      <point x="46" y="-418" type="curve" smooth="yes"/>
      <point x="174" y="-418"/>
      <point x="225" y="-377"/>
      <point x="320" y="-211" type="curve" smooth="yes"/>
      <point x="1050" y="1056" type="line"/>
      <point x="998" y="1056" type="line"/>
      <point x="583" y="336" type="line" smooth="yes"/>
      <point x="524" y="234"/>
      <point x="466" y="132"/>
      <point x="407" y="30" type="curve"/>
      <point x="422" y="30" type="line"/>
      <point x="398" y="132"/>
      <point x="373" y="234"/>
      <point x="348" y="336" type="curve" smooth="yes"/>
      <point x="168" y="1056" type="line"/>
      <point x="122" y="1056" type="line"/>
      <point x="388" y="-8" type="line"/>
      <point x="280" y="-195" type="line" smooth="yes"/>
      <point x="194" y="-344"/>
      <point x="159" y="-372"/>
      <point x="53" y="-372" type="curve" smooth="yes"/>
      <point x="-35" y="-372" type="line"/>
    </contour>
  </outline>
</glyph>
<glyph name="z" format="2">
  <advance width="915"/>
  <unicode hex="007A"/>
  <anchor x="370" y="0" name="bottom"/>
  <anchor x="748" y="0" name="bottomr"/>
  <anchor x="456" y="528" name="cross"/>
  <anchor x="547" y="1056" name="top"/>
  <outline>
    <contour>
      <point x="-8" y="0" type="line"/>
      <point x="748" y="0" type="line"/>
      <point x="756" y="46" type="line"/>
      <point x="61" y="46" type="line"/>
      <point x="61" y="47" type="line"/>
      <point x="909" y="1008" type="line"/>
      <point x="917" y="1056" type="line"/>
      <point x="177" y="1056" type="line"/>
      <point x="169" y="1010" type="line"/>
      <point x="850" y="1010" type="line"/>
      <point x="850" y="1009" type="line"/>
      <point x="0" y="46" type="line"/>
    </contour>
  </outline>
</glyph>
<glyph name="braceleft" format="2">
  <advance width="682"/>
  <unicode hex="007B"/>
  <outline>
    <contour>
      <point x="122.237" y="614" type="line"/>
      <point x="316.237" y="614"/>
      <point x="395.66" y="683"/>
      <point x="427.28" y="874" type="curve" smooth="yes"/>
      <point x="490.52" y="1256" type="line" smooth="yes"/>
      <point x="521.312" y="1442"/>
      <point x="600.39" y="1521"/>
      <point x="752.39" y="1521" type="curve"/>
      <point x="760.005" y="1567" type="line"/>
      <point x="580.005" y="1567"/>
      <point x="479.45" y="1467"/>
      <point x="444.52" y="1256" type="curve" smooth="yes"/>
      <point x="381.28" y="874" type="line" smooth="yes"/>
      <point x="353.799" y="708"/>
      <point x="297.852" y="660"/>
      <point x="129.852" y="660" type="curve"/>
    </contour>
    <contour>
      <point x="451.753" y="-295" type="curve"/>
      <point x="459.368" y="-249" type="line"/>
      <point x="307.368" y="-249"/>
      <point x="254.612" y="-169"/>
      <point x="285.239" y="16" type="curve" smooth="yes"/>
      <point x="348.479" y="398" type="line" smooth="yes"/>
      <point x="380.098" y="589"/>
      <point x="323.852" y="660"/>
      <point x="129.852" y="660" type="curve"/>
      <point x="122.237" y="614" type="line"/>
      <point x="290.237" y="614"/>
      <point x="329.96" y="564"/>
      <point x="302.479" y="398" type="curve" smooth="yes"/>
      <point x="239.239" y="16" type="line" smooth="yes"/>
      <point x="204.474" y="-194"/>
      <point x="271.753" y="-295"/>
    </contour>
    <contour>
      <point x="122.237" y="614" type="line"/>
      <point x="270.237" y="614" type="line"/>
      <point x="277.852" y="660" type="line"/>
      <point x="129.852" y="660" type="line"/>
    </contour>
  </outline>
</glyph>
<glyph name="bar" format="2">
  <advance width="430"/>
  <unicode hex="007C"/>
  <outline>
    <contour>
      <point x="476.722" y="1970" type="line"/>
      <point x="430.722" y="1970" type="line"/>
      <point x="25.127" y="-480" type="line"/>
      <point x="71.127" y="-480" type="line"/>
    </contour>
  </outline>
</glyph>
<glyph name="braceright" format="2">
  <advance width="682"/>
  <unicode hex="007D"/>
  <outline>
    <contour>
      <point x="588" y="614" type="curve"/>
      <point x="596" y="660" type="line"/>
      <point x="428" y="660"/>
      <point x="388" y="708"/>
      <point x="415" y="874" type="curve" smooth="yes"/>
      <point x="479" y="1256" type="line" smooth="yes"/>
      <point x="513" y="1467"/>
      <point x="446" y="1567"/>
      <point x="266" y="1567" type="curve"/>
      <point x="258" y="1521" type="line"/>
      <point x="410" y="1521"/>
      <point x="463" y="1442"/>
      <point x="433" y="1256" type="curve" smooth="yes"/>
      <point x="369" y="874" type="line" smooth="yes"/>
      <point x="338" y="683"/>
      <point x="394" y="614"/>
    </contour>
    <contour>
      <point x="-42" y="-295" type="line"/>
      <point x="138" y="-295"/>
      <point x="238" y="-194"/>
      <point x="273" y="16" type="curve" smooth="yes"/>
      <point x="336" y="398" type="line" smooth="yes"/>
      <point x="364" y="564"/>
      <point x="420" y="614"/>
      <point x="588" y="614" type="curve"/>
      <point x="596" y="660" type="line"/>
      <point x="402" y="660"/>
      <point x="322" y="589"/>
      <point x="290" y="398" type="curve" smooth="yes"/>
      <point x="227" y="16" type="line" smooth="yes"/>
      <point x="197" y="-169"/>
      <point x="117" y="-249"/>
      <point x="-35" y="-249" type="curve"/>
    </contour>
    <contour>
      <point x="588" y="614" type="line"/>
      <point x="596" y="660" type="line"/>
      <point x="448" y="660" type="line"/>
      <point x="440" y="614" type="line"/>
    </contour>
  </outline>
</glyph>
<glyph name="asciitilde" format="2">
  <advance width="1176"/>
  <unicode hex="007E"/>
  <outline>
    <contour>
      <point x="121.378" y="488" type="curve"/>
      <point x="166.385" y="482" type="line"/>
      <point x="196.112" y="577"/>
      <point x="293.204" y="644"/>
      <point x="408.873" y="642" type="curve" smooth="yes"/>
      <point x="493.873" y="642"/>
      <point x="543.582" y="604"/>
      <point x="595.96" y="564" type="curve" smooth="yes"/>
      <point x="648.503" y="525"/>
      <point x="700.716" y="484"/>
      <point x="786.385" y="482" type="curve" smooth="yes"/>
      <point x="909.385" y="482"/>
      <point x="1022.463" y="561"/>
      <point x="1072.17" y="674" type="curve"/>
      <point x="1026.157" y="686" type="line"/>
      <point x="987.926" y="594"/>
      <point x="896.166" y="529"/>
      <point x="794.331" y="530" type="curve" smooth="yes"/>
      <point x="723.331" y="530"/>
      <point x="679.96" y="564"/>
      <point x="628.251" y="602" type="curve" smooth="yes"/>
      <point x="575.873" y="642"/>
      <point x="515.653" y="689"/>
      <point x="416.819" y="690" type="curve" smooth="yes"/>
      <point x="278.819" y="690"/>
      <point x="158.078" y="607"/>
    </contour>
  </outline>
</glyph>
<glyph name="exclamdown" format="2">
  <advance width="400"/>
  <unicode hex="00A1"/>
  <outline>
    <contour>
      <point x="20" y="-418" type="line"/>
      <point x="66" y="-418" type="line"/>
      <point x="255" y="722" type="line"/>
      <point x="209" y="722" type="line"/>
    </contour>
    <contour>
      <point x="272" y="964" type="curve" smooth="yes"/>
      <point x="302" y="964"/>
      <point x="330" y="988"/>
      <point x="335" y="1018" type="curve" smooth="yes"/>
      <point x="339" y="1048"/>
      <point x="319" y="1072"/>
      <point x="289" y="1072" type="curve" smooth="yes"/>
      <point x="259" y="1072"/>
      <point x="231" y="1048"/>
      <point x="227" y="1018" type="curve" smooth="yes"/>
      <point x="222" y="988"/>
      <point x="242" y="964"/>
    </contour>
  </outline>
</glyph>
<glyph name="cent" format="2">
  <advance width="1020"/>
  <unicode hex="00A2"/>
  <anchor x="478" y="217" name="bottom"/>
  <anchor x="478" y="217" name="cedilla"/>
  <anchor x="565" y="745" name="center"/>
  <anchor x="652" y="1273" name="top"/>
  <anchor x="1017" y="929" name="topr"/>
  <outline>
    <contour>
      <point x="417" y="0" type="line"/>
      <point x="463" y="0" type="line"/>
      <point x="710" y="1490" type="line"/>
      <point x="664" y="1490" type="line"/>
    </contour>
    <component base="c" xOffset="36" yOffset="217"/>
  </outline>
</glyph>
<glyph name="sterling" format="2">
  <advance width="1100"/>
  <unicode hex="00A3"/>
  <outline>
    <contour>
      <point x="-8" y="8" type="line"/>
      <point x="148" y="8"/>
      <point x="254" y="124"/>
      <point x="276" y="317" type="curve" smooth="yes"/>
      <point x="362" y="1057" type="line" smooth="yes"/>
      <point x="390" y="1299"/>
      <point x="572" y="1460"/>
      <point x="793" y="1460" type="curve" smooth="yes"/>
      <point x="1003" y="1460"/>
      <point x="1104" y="1319"/>
      <point x="1071" y="1118" type="curve"/>
      <point x="1117" y="1118" type="line"/>
      <point x="1154" y="1344"/>
      <point x="1027" y="1506"/>
      <point x="792" y="1506" type="curve" smooth="yes"/>
      <point x="539" y="1506"/>
      <point x="347" y="1320"/>
      <point x="316" y="1055" type="curve" smooth="yes"/>
      <point x="230" y="315" type="line" smooth="yes"/>
      <point x="210" y="142"/>
      <point x="129" y="46"/>
      <point x="-1" y="46" type="curve"/>
    </contour>
    <contour>
      <point x="-17" y="0" type="line"/>
      <point x="727" y="0" type="line" smooth="yes"/>
      <point x="864" y="0"/>
      <point x="943" y="68"/>
      <point x="966" y="205" type="curve" smooth="yes"/>
      <point x="974" y="252" type="line"/>
      <point x="928" y="252" type="line"/>
      <point x="920" y="205" type="line" smooth="yes"/>
      <point x="901" y="93"/>
      <point x="847" y="46"/>
      <point x="735" y="46" type="curve" smooth="yes"/>
      <point x="-9" y="46" type="line"/>
    </contour>
    <contour>
      <point x="99" y="699" type="line"/>
      <point x="756" y="699" type="line"/>
      <point x="763" y="745" type="line"/>
      <point x="106" y="745" type="line"/>
    </contour>
  </outline>
</glyph>
<glyph name="currency" format="2">
  <advance width="1266"/>
  <unicode hex="00A4"/>
  <outline>
    <contour>
      <point x="539.279" y="-20" type="curve" smooth="yes"/>
      <point x="868.279" y="-20"/>
      <point x="1164.474" y="253"/>
      <point x="1223.244" y="608" type="curve" smooth="yes"/>
      <point x="1282.014" y="963"/>
      <point x="1075.712" y="1233"/>
      <point x="746.878" y="1234" type="curve" smooth="yes"/>
      <point x="421.712" y="1233"/>
      <point x="124.014" y="963"/>
      <point x="65.244" y="608" type="curve" smooth="yes"/>
      <point x="6.474" y="253"/>
      <point x="214.279" y="-20"/>
    </contour>
    <contour>
      <point x="546.894" y="26" type="curve" smooth="yes"/>
      <point x="248.894" y="26"/>
      <point x="57.778" y="279"/>
      <point x="111.244" y="608" type="curve" smooth="yes"/>
      <point x="166.875" y="938"/>
      <point x="442.097" y="1187"/>
      <point x="738.931" y="1186" type="curve" smooth="yes"/>
      <point x="1038.097" y="1187"/>
      <point x="1232.875" y="938"/>
      <point x="1177.244" y="608" type="curve" smooth="yes"/>
      <point x="1120.778" y="279"/>
      <point x="847.894" y="26"/>
    </contour>
    <contour>
      <point x="1124.801" y="1004" type="line"/>
      <point x="1328.6" y="1184" type="line"/>
      <point x="1304.229" y="1218" type="line"/>
      <point x="1100.43" y="1038" type="line"/>
    </contour>
    <contour>
      <point x="1102.59" y="0" type="line"/>
      <point x="1138.219" y="34" type="line"/>
      <point x="994.018" y="214" type="line"/>
      <point x="958.389" y="180" type="line"/>
    </contour>
    <contour>
      <point x="-15.41" y="0" type="line"/>
      <point x="188.389" y="180" type="line"/>
      <point x="164.018" y="214" type="line"/>
      <point x="-41.781" y="34" type="line"/>
    </contour>
    <contour>
      <point x="294.801" y="1004" type="line"/>
      <point x="330.43" y="1038" type="line"/>
      <point x="186.229" y="1218" type="line"/>
      <point x="148.6" y="1184" type="line"/>
    </contour>
  </outline>
</glyph>
<glyph name="yen" format="2">
  <advance width="942"/>
  <unicode hex="00A5"/>
  <outline>
    <contour>
      <point x="191.258" y="1490" type="line"/>
      <point x="139.258" y="1490" type="line"/>
      <point x="460.873" y="642" type="line"/>
      <point x="512.873" y="642" type="line"/>
    </contour>
    <contour>
      <point x="466.873" y="642" type="line"/>
      <point x="518.873" y="642" type="line"/>
      <point x="1121.258" y="1490" type="line"/>
      <point x="1069.258" y="1490" type="line"/>
    </contour>
    <contour>
      <point x="521.15" y="692" type="line"/>
      <point x="475.15" y="692" type="line"/>
      <point x="360.59" y="0" type="line"/>
      <point x="406.59" y="0" type="line"/>
    </contour>
    <contour>
      <point x="866.846" y="666" type="line"/>
      <point x="120.846" y="666" type="line"/>
      <point x="113.231" y="620" type="line"/>
      <point x="859.231" y="620" type="line"/>
    </contour>
    <contour>
      <point x="837.378" y="488" type="line"/>
      <point x="91.378" y="488" type="line"/>
      <point x="83.763" y="442" type="line"/>
      <point x="829.763" y="442" type="line"/>
    </contour>
  </outline>
</glyph>
<glyph name="brokenbar" format="2">
  <advance width="254"/>
  <unicode hex="00A6"/>
  <outline>
    <contour>
      <point x="80.492" y="386" type="line"/>
      <point x="-29.764" y="-280" type="line"/>
      <point x="16.236" y="-280" type="line"/>
      <point x="126.492" y="386" type="line"/>
    </contour>
    <contour>
      <point x="309.258" y="1490" type="line"/>
      <point x="263.258" y="1490" type="line"/>
      <point x="153.334" y="826" type="line"/>
      <point x="199.334" y="826" type="line"/>
    </contour>
  </outline>
</glyph>
<glyph name="section" format="2">
  <advance width="946"/>
  <unicode hex="00A7"/>
  <outline>
    <contour>
      <point x="338" y="-302" type="curve" smooth="yes"/>
      <point x="534" y="-302"/>
      <point x="706" y="-187"/>
      <point x="736" y="-3" type="curve" smooth="yes"/>
      <point x="753" y="100"/>
      <point x="715" y="172"/>
      <point x="588" y="261" type="curve"/>
      <point x="591" y="263" type="line"/>
      <point x="694" y="245"/>
      <point x="850" y="333"/>
      <point x="877" y="497" type="curve" smooth="yes"/>
      <point x="899" y="633"/>
      <point x="815" y="705"/>
      <point x="598" y="851" type="curve" smooth="yes"/>
      <point x="488" y="925" type="line" smooth="yes"/>
      <point x="343" y="1023"/>
      <point x="290" y="1081"/>
      <point x="308" y="1195" type="curve" smooth="yes"/>
      <point x="333" y="1345"/>
      <point x="463" y="1460"/>
      <point x="636" y="1460" type="curve" smooth="yes"/>
      <point x="797" y="1460"/>
      <point x="888" y="1363"/>
      <point x="861" y="1198" type="curve"/>
      <point x="907" y="1198" type="line"/>
      <point x="938" y="1389"/>
      <point x="827" y="1506"/>
      <point x="638" y="1506" type="curve" smooth="yes"/>
      <point x="441" y="1506"/>
      <point x="292" y="1375"/>
      <point x="263" y="1201" type="curve" smooth="yes"/>
      <point x="242" y="1072"/>
      <point x="303" y="1009"/>
      <point x="385" y="940" type="curve"/>
      <point x="382" y="938" type="line"/>
      <point x="278" y="951"/>
      <point x="121" y="871"/>
      <point x="94" y="707" type="curve" smooth="yes"/>
      <point x="71" y="571"/>
      <point x="159" y="495"/>
      <point x="376" y="349" type="curve" smooth="yes"/>
      <point x="488" y="274" type="line" smooth="yes"/>
      <point x="682" y="144"/>
      <point x="706" y="92"/>
      <point x="691" y="3" type="curve" smooth="yes"/>
      <point x="664" y="-159"/>
      <point x="512" y="-256"/>
      <point x="339" y="-256" type="curve" smooth="yes"/>
      <point x="155" y="-256"/>
      <point x="44" y="-144"/>
      <point x="71" y="24" type="curve"/>
      <point x="25" y="24" type="line"/>
      <point x="-8" y="-174"/>
      <point x="128" y="-302"/>
    </contour>
    <contour>
      <point x="491" y="327" type="curve" smooth="yes"/>
      <point x="399" y="389" type="line" smooth="yes"/>
      <point x="198" y="525"/>
      <point x="120" y="589"/>
      <point x="139" y="701" type="curve" smooth="yes"/>
      <point x="164" y="855"/>
      <point x="346" y="966"/>
      <point x="491" y="868" type="curve" smooth="yes"/>
      <point x="578" y="809" type="line" smooth="yes"/>
      <point x="779" y="673"/>
      <point x="850" y="615"/>
      <point x="832" y="503" type="curve" smooth="yes"/>
      <point x="806" y="349"/>
      <point x="633" y="232"/>
    </contour>
  </outline>
</glyph>
<glyph name="copyright" format="2">
  <advance width="1746"/>
  <unicode hex="00A9"/>
  <outline>
    <contour>
      <point x="497" y="744" type="curve" smooth="yes"/>
      <point x="457" y="506"/>
      <point x="627" y="312"/>
      <point x="866" y="312" type="curve" smooth="yes"/>
      <point x="1037" y="312"/>
      <point x="1179" y="413"/>
      <point x="1258" y="558" type="curve"/>
      <point x="1206" y="558" type="line"/>
      <point x="1136" y="439"/>
      <point x="1011" y="360"/>
      <point x="866" y="360" type="curve" smooth="yes"/>
      <point x="653" y="360"/>
      <point x="508" y="532"/>
      <point x="543" y="744" type="curve" smooth="yes"/>
      <point x="579" y="959"/>
      <point x="780" y="1130"/>
      <point x="993" y="1130" type="curve" smooth="yes"/>
      <point x="1138" y="1130"/>
      <point x="1237" y="1050"/>
      <point x="1268" y="930" type="curve"/>
      <point x="1320" y="930" type="line"/>
      <point x="1289" y="1076"/>
      <point x="1164" y="1176"/>
      <point x="993" y="1176" type="curve" smooth="yes"/>
      <point x="754" y="1176"/>
      <point x="536" y="983"/>
    </contour>
    <component base="circlewhite"/>
  </outline>
</glyph>
<glyph name="ordfeminine" format="2">
  <advance width="808"/>
  <unicode hex="00AA"/>
  <anchor x="415" y="648" name="bottom"/>
  <anchor x="721" y="648" name="ogonek"/>
  <anchor x="552" y="1493" name="top"/>
  <outline>
    <contour>
      <point x="362" y="635" type="curve" smooth="yes"/>
      <point x="509" y="635"/>
      <point x="637" y="708"/>
      <point x="702" y="818" type="curve"/>
      <point x="704" y="818" type="line"/>
      <point x="676" y="648" type="line"/>
      <point x="721" y="648" type="line"/>
      <point x="819" y="1239" type="line" smooth="yes"/>
      <point x="844" y="1392"/>
      <point x="729" y="1506"/>
      <point x="554" y="1506" type="curve" smooth="yes"/>
      <point x="376" y="1506"/>
      <point x="223" y="1389"/>
      <point x="197" y="1240" type="curve"/>
      <point x="242" y="1240" type="line"/>
      <point x="264" y="1365"/>
      <point x="396" y="1462"/>
      <point x="547" y="1462" type="curve" smooth="yes"/>
      <point x="696" y="1462"/>
      <point x="795" y="1366"/>
      <point x="774" y="1239" type="curve" smooth="yes"/>
      <point x="771" y="1218" type="line" smooth="yes"/>
      <point x="759" y="1147"/>
      <point x="656" y="1130"/>
      <point x="502" y="1110" type="curve" smooth="yes"/>
      <point x="246" y="1077"/>
      <point x="138" y="1013"/>
      <point x="114" y="872" type="curve" smooth="yes"/>
      <point x="88" y="711"/>
      <point x="213" y="635"/>
    </contour>
    <contour>
      <point x="371" y="679" type="curve" smooth="yes"/>
      <point x="237" y="679"/>
      <point x="138" y="745"/>
      <point x="159" y="871" type="curve" smooth="yes"/>
      <point x="178" y="984"/>
      <point x="269" y="1036"/>
      <point x="498" y="1067" type="curve" smooth="yes"/>
      <point x="638" y="1086"/>
      <point x="707" y="1099"/>
      <point x="757" y="1137" type="curve"/>
      <point x="734" y="996" type="line" smooth="yes"/>
      <point x="699" y="788"/>
      <point x="542" y="679"/>
    </contour>
  </outline>
</glyph>
<glyph name="logicalnot" format="2">
  <advance width="1176"/>
  <unicode hex="00AC"/>
  <outline>
    <contour>
      <point x="847" y="315" type="line"/>
      <point x="893" y="315" type="line"/>
      <point x="955" y="689" type="line"/>
      <point x="223" y="689" type="line"/>
      <point x="215" y="643" type="line"/>
      <point x="901" y="643" type="line"/>
    </contour>
  </outline>
</glyph>
<glyph name="registered" format="2">
  <advance width="1244"/>
  <unicode hex="00AE"/>
  <outline>
    <contour>
      <point x="591" y="346" type="curve" smooth="yes"/>
      <point x="911" y="346"/>
      <point x="1216" y="608"/>
      <point x="1270" y="928" type="curve" smooth="yes"/>
      <point x="1323" y="1248"/>
      <point x="1104" y="1510"/>
      <point x="784" y="1510" type="curve" smooth="yes"/>
      <point x="464" y="1510"/>
      <point x="159" y="1248"/>
      <point x="106" y="928" type="curve" smooth="yes"/>
      <point x="52" y="608"/>
      <point x="270" y="346"/>
    </contour>
    <contour>
      <point x="591" y="392" type="curve" smooth="yes"/>
      <point x="301" y="392"/>
      <point x="103" y="630"/>
      <point x="151" y="920" type="curve" smooth="yes"/>
      <point x="201" y="1219"/>
      <point x="486" y="1464"/>
      <point x="784" y="1464" type="curve" smooth="yes"/>
      <point x="1074" y="1464"/>
      <point x="1272" y="1226"/>
      <point x="1225" y="936" type="curve" smooth="yes"/>
      <point x="1174" y="637"/>
      <point x="889" y="392"/>
    </contour>
    <contour>
      <point x="823" y="666" type="line"/>
      <point x="876" y="666" type="line"/>
      <point x="782" y="908" type="line"/>
      <point x="732" y="908" type="line"/>
    </contour>
    <contour>
      <point x="460" y="666" type="line"/>
      <point x="506" y="666" type="line"/>
      <point x="587" y="1156" type="line"/>
      <point x="761" y="1156" type="line" smooth="yes"/>
      <point x="846" y="1156"/>
      <point x="882" y="1114"/>
      <point x="871" y="1042" type="curve" smooth="yes"/>
      <point x="859" y="972"/>
      <point x="808" y="926"/>
      <point x="723" y="926" type="curve" smooth="yes"/>
      <point x="527" y="926" type="line"/>
      <point x="520" y="880" type="line"/>
      <point x="718" y="880" type="line" smooth="yes"/>
      <point x="828" y="880"/>
      <point x="901" y="950"/>
      <point x="917" y="1042" type="curve" smooth="yes"/>
      <point x="932" y="1136"/>
      <point x="881" y="1202"/>
      <point x="771" y="1202" type="curve" smooth="yes"/>
      <point x="549" y="1202" type="line"/>
    </contour>
  </outline>
</glyph>
<glyph name="degree" format="2">
  <advance width="802"/>
  <unicode hex="00B0"/>
  <outline>
    <contour>
      <point x="465" y="904" type="curve" smooth="yes"/>
      <point x="632" y="905"/>
      <point x="789" y="1040"/>
      <point x="817" y="1208" type="curve" smooth="yes"/>
      <point x="845" y="1375"/>
      <point x="732" y="1510"/>
      <point x="565" y="1510" type="curve" smooth="yes"/>
      <point x="397" y="1510"/>
      <point x="240" y="1375"/>
      <point x="211" y="1208" type="curve" smooth="yes"/>
      <point x="184" y="1040"/>
      <point x="297" y="905"/>
    </contour>
    <contour>
      <point x="473" y="952" type="curve" smooth="yes"/>
      <point x="330" y="951"/>
      <point x="234" y="1065"/>
      <point x="259" y="1208" type="curve" smooth="yes"/>
      <point x="281" y="1349"/>
      <point x="415" y="1463"/>
      <point x="557" y="1464" type="curve" smooth="yes"/>
      <point x="698" y="1463"/>
      <point x="793" y="1349"/>
      <point x="771" y="1208" type="curve" smooth="yes"/>
      <point x="746" y="1065"/>
      <point x="613" y="951"/>
    </contour>
  </outline>
</glyph>
<glyph name="plusminus" format="2">
  <advance width="1176"/>
  <unicode hex="00B1"/>
  <outline>
    <contour>
      <point x="101.767" y="140" type="line"/>
      <point x="945.767" y="140" type="line"/>
      <point x="953.382" y="186" type="line"/>
      <point x="109.382" y="186" type="line"/>
    </contour>
    <contour>
      <point x="194.143" y="698" type="line"/>
      <point x="1038.143" y="698" type="line"/>
      <point x="1045.759" y="744" type="line"/>
      <point x="201.759" y="744" type="line"/>
    </contour>
    <contour>
      <point x="530.559" y="326" type="line"/>
      <point x="576.559" y="326" type="line"/>
      <point x="707.674" y="1118" type="line"/>
      <point x="661.674" y="1118" type="line"/>
    </contour>
  </outline>
</glyph>
<glyph name="two.sups" format="2">
  <advance width="746"/>
  <unicode hex="00B2"/>
  <anchor x="629.2" y="1190" name="cross"/>
  <anchor x="684.54" y="1653" name="top"/>
  <outline>
    <contour>
      <point x="253.48" y="886" type="line"/>
      <point x="811.48" y="886" type="line"/>
      <point x="819.4" y="930" type="line"/>
      <point x="327.4" y="930" type="line"/>
      <point x="327.58" y="931" type="line"/>
      <point x="652.34" y="1163" type="line" smooth="yes"/>
      <point x="811.86" y="1277"/>
      <point x="881.8199999999999" y="1349"/>
      <point x="898.56" y="1442" type="curve" smooth="yes"/>
      <point x="921.78" y="1571"/>
      <point x="826.52" y="1664"/>
      <point x="667.52" y="1664" type="curve" smooth="yes"/>
      <point x="505.52" y="1664"/>
      <point x="376.88" y="1566"/>
      <point x="352.76" y="1432" type="curve"/>
      <point x="398.76" y="1432" type="line"/>
      <point x="418.74" y="1543"/>
      <point x="523.5999999999999" y="1620"/>
      <point x="659.5999999999999" y="1620" type="curve" smooth="yes"/>
      <point x="793.5999999999999" y="1620"/>
      <point x="871.28" y="1546"/>
      <point x="852.38" y="1441" type="curve" smooth="yes"/>
      <point x="837.98" y="1361"/>
      <point x="776.36" y="1302"/>
      <point x="623.38" y="1191" type="curve" smooth="yes"/>
      <point x="261.03999999999996" y="928" type="line"/>
    </contour>
  </outline>
</glyph>
<glyph name="three.sups" format="2">
  <advance width="753"/>
  <unicode hex="00B3"/>
  <anchor x="676.54" y="1653" name="top"/>
  <outline>
    <contour>
      <point x="536.5" y="875" type="curve" smooth="yes"/>
      <point x="708.5" y="875"/>
      <point x="845.24" y="968"/>
      <point x="867.38" y="1091" type="curve" smooth="yes"/>
      <point x="884.3" y="1185"/>
      <point x="818.16" y="1262"/>
      <point x="691.76" y="1282" type="curve"/>
      <point x="691.94" y="1283" type="line"/>
      <point x="809.26" y="1307"/>
      <point x="890.68" y="1376"/>
      <point x="905.98" y="1461" type="curve" smooth="yes"/>
      <point x="927.04" y="1578"/>
      <point x="830.52" y="1664"/>
      <point x="676.52" y="1664" type="curve" smooth="yes"/>
      <point x="520.52" y="1664"/>
      <point x="390.68" y="1576"/>
      <point x="368.18" y="1451" type="curve"/>
      <point x="415.18" y="1451" type="line"/>
      <point x="433.53999999999996" y="1553"/>
      <point x="537.78" y="1621"/>
      <point x="668.78" y="1621" type="curve" smooth="yes"/>
      <point x="798.78" y="1621"/>
      <point x="875.72" y="1554"/>
      <point x="858.62" y="1459" type="curve" smooth="yes"/>
      <point x="841.52" y="1364"/>
      <point x="726.54" y="1303"/>
      <point x="587.54" y="1303" type="curve" smooth="yes"/>
      <point x="560.54" y="1303" type="line"/>
      <point x="552.44" y="1258" type="line"/>
      <point x="579.44" y="1258" type="line" smooth="yes"/>
      <point x="737.44" y="1258"/>
      <point x="838.38" y="1191"/>
      <point x="820.38" y="1091" type="curve" smooth="yes"/>
      <point x="802.74" y="993"/>
      <point x="691.42" y="919"/>
      <point x="544.42" y="919" type="curve" smooth="yes"/>
      <point x="402.41999999999996" y="919"/>
      <point x="312.2" y="990"/>
      <point x="331.1" y="1095" type="curve"/>
      <point x="283.1" y="1095" type="line"/>
      <point x="259.88" y="966"/>
      <point x="369.5" y="875"/>
    </contour>
  </outline>
</glyph>
<glyph name="micro" format="2">
  <advance width="1096"/>
  <unicode hex="00B5"/>
  <outline>
    <contour>
      <point x="-23" y="-418" type="line"/>
      <point x="23" y="-418" type="line"/>
      <point x="153" y="368" type="line"/>
      <point x="117" y="368" type="line"/>
      <point x="70" y="86"/>
      <point x="285" y="-16"/>
      <point x="451" y="-16" type="curve" smooth="yes"/>
      <point x="617" y="-16"/>
      <point x="850" y="86"/>
      <point x="897" y="368" type="curve"/>
      <point x="861" y="368" type="line"/>
      <point x="833" y="198" type="line" smooth="yes"/>
      <point x="811" y="62"/>
      <point x="861" y="0"/>
      <point x="984" y="0" type="curve" smooth="yes"/>
      <point x="1008" y="0" type="line"/>
      <point x="1016" y="46" type="line"/>
      <point x="992" y="46" type="line" smooth="yes"/>
      <point x="896" y="46"/>
      <point x="861" y="89"/>
      <point x="879" y="198" type="curve" smooth="yes"/>
      <point x="1021" y="1056" type="line"/>
      <point x="975" y="1056" type="line"/>
      <point x="861" y="368" type="line" smooth="yes"/>
      <point x="829" y="175"/>
      <point x="654" y="30"/>
      <point x="451" y="30" type="curve" smooth="yes"/>
      <point x="248" y="30"/>
      <point x="121" y="175"/>
      <point x="153" y="368" type="curve" smooth="yes"/>
      <point x="267" y="1056" type="line"/>
      <point x="221" y="1056" type="line"/>
    </contour>
  </outline>
</glyph>
<glyph name="paragraph" format="2">
  <advance width="976"/>
  <unicode hex="00B6"/>
  <outline>
    <contour>
      <point x="943" y="1442" type="line"/>
      <point x="951" y="1490" type="line"/>
      <point x="697" y="1490" type="line" smooth="yes"/>
      <point x="379" y="1490"/>
      <point x="171" y="1289"/>
      <point x="127" y="1022" type="curve" smooth="yes"/>
      <point x="82" y="751"/>
      <point x="224" y="552"/>
      <point x="541" y="552" type="curve" smooth="yes"/>
      <point x="625" y="552" type="line"/>
      <point x="773" y="1442" type="line"/>
    </contour>
    <contour>
      <point x="674" y="0" type="line"/>
      <point x="720" y="0" type="line"/>
      <point x="967" y="1490" type="line"/>
      <point x="921" y="1490" type="line"/>
    </contour>
  </outline>
</glyph>
<glyph name="one.sups" format="2">
  <advance width="472"/>
  <unicode hex="00B9"/>
  <outline>
    <contour>
      <point x="631.54" y="1653" type="line"/>
      <point x="576.54" y="1653" type="line"/>
      <point x="361.02" y="1539" type="line"/>
      <point x="351.84" y="1488" type="line"/>
      <point x="574.9" y="1605" type="line"/>
      <point x="575.9" y="1605" type="line"/>
      <point x="446.48" y="886" type="line"/>
      <point x="493.48" y="886" type="line"/>
    </contour>
  </outline>
</glyph>
<glyph name="ordmasculine" format="2">
  <advance width="850"/>
  <unicode hex="00BA"/>
  <anchor x="446" y="648" name="bottom"/>
  <anchor x="516" y="1070" name="center"/>
  <anchor x="887" y="1070" name="ogonek"/>
  <anchor x="586" y="1493" name="top"/>
  <anchor x="588" y="1506" name="tophorn"/>
  <outline>
    <contour>
      <point x="444" y="635" type="curve" smooth="yes"/>
      <point x="663" y="635"/>
      <point x="846" y="819"/>
      <point x="887" y="1070" type="curve" smooth="yes"/>
      <point x="929" y="1323"/>
      <point x="806" y="1506"/>
      <point x="588" y="1506" type="curve" smooth="yes"/>
      <point x="368" y="1506"/>
      <point x="185" y="1322"/>
      <point x="143" y="1070" type="curve" smooth="yes"/>
      <point x="101" y="818"/>
      <point x="224" y="635"/>
    </contour>
    <contour>
      <point x="451" y="679" type="curve" smooth="yes"/>
      <point x="258" y="679"/>
      <point x="150" y="840"/>
      <point x="188" y="1070" type="curve" smooth="yes"/>
      <point x="226" y="1300"/>
      <point x="388" y="1462"/>
      <point x="581" y="1462" type="curve" smooth="yes"/>
      <point x="773" y="1462"/>
      <point x="880" y="1300"/>
      <point x="842" y="1070" type="curve" smooth="yes"/>
      <point x="804" y="841"/>
      <point x="643" y="679"/>
    </contour>
  </outline>
</glyph>
<glyph name="AE" format="2">
  <advance width="1846"/>
  <unicode hex="00C6"/>
  <anchor x="1370" y="1490" name="top"/>
  <outline>
    <contour>
      <point x="-67" y="0" type="line"/>
      <point x="-13" y="0" type="line"/>
      <point x="962" y="1442" type="line"/>
      <point x="1106" y="1442" type="line"/>
      <point x="867" y="0" type="line"/>
      <point x="1683" y="0" type="line"/>
      <point x="1691" y="46" type="line"/>
      <point x="923" y="46" type="line"/>
      <point x="1035" y="722" type="line"/>
      <point x="1739" y="722" type="line"/>
      <point x="1746" y="768" type="line"/>
      <point x="1042" y="768" type="line"/>
      <point x="1154" y="1442" type="line"/>
      <point x="1900" y="1442" type="line"/>
      <point x="1908" y="1490" type="line"/>
      <point x="940" y="1490" type="line"/>
    </contour>
    <contour>
      <point x="308" y="504" type="line"/>
      <point x="976" y="504" type="line"/>
      <point x="984" y="550" type="line"/>
      <point x="316" y="550" type="line"/>
    </contour>
  </outline>
</glyph>
<glyph name="multiply" format="2">
  <advance width="1176"/>
  <unicode hex="00D7"/>
  <outline>
    <contour>
      <point x="916" y="158" type="line"/>
      <point x="952" y="186" type="line"/>
      <point x="268" y="1006" type="line"/>
      <point x="232" y="978" type="line"/>
    </contour>
    <contour>
      <point x="128" y="154" type="line"/>
      <point x="1086" y="974" type="line"/>
      <point x="1056" y="1010" type="line"/>
      <point x="98" y="190" type="line"/>
    </contour>
  </outline>
</glyph>
<glyph name="Thorn" format="2">
  <advance width="1082"/>
  <unicode hex="00DE"/>
  <outline>
    <contour>
      <point x="307.258" y="1490" type="line"/>
      <point x="60.59" y="0" type="line"/>
      <point x="104.59" y="0" type="line"/>
      <point x="351.258" y="1490" type="line"/>
    </contour>
    <contour>
      <point x="271.992" y="1132" type="line"/>
      <point x="264.376" y="1086" type="line"/>
      <point x="642.376" y="1086" type="line" smooth="yes"/>
      <point x="883.211" y="1085"/>
      <point x="1006.352" y="959"/>
      <point x="971.759" y="744" type="curve" smooth="yes"/>
      <point x="935.331" y="530"/>
      <point x="776.3" y="409"/>
      <point x="530.134" y="408" type="curve" smooth="yes"/>
      <point x="152.134" y="408" type="line"/>
      <point x="144.519" y="362" type="line"/>
      <point x="522.519" y="362" type="line" smooth="yes"/>
      <point x="794.519" y="362"/>
      <point x="979.192" y="505"/>
      <point x="1020.421" y="748" type="curve" smooth="yes"/>
      <point x="1058.49" y="984"/>
      <point x="915.992" y="1132"/>
      <point x="649.992" y="1132" type="curve" smooth="yes"/>
    </contour>
  </outline>
</glyph>
<glyph name="germandbls" format="2">
  <advance width="1056"/>
  <unicode hex="00DF"/>
  <outline>
    <contour>
      <point x="81" y="0" type="line"/>
      <point x="127" y="0" type="line"/>
      <point x="317" y="1152" type="line" smooth="yes"/>
      <point x="350" y="1348"/>
      <point x="486" y="1464"/>
      <point x="683" y="1464" type="curve" smooth="yes"/>
      <point x="880" y="1464"/>
      <point x="978" y="1348"/>
      <point x="945" y="1152" type="curve" smooth="yes"/>
      <point x="908" y="928"/>
      <point x="738" y="791"/>
      <point x="494" y="791" type="curve" smooth="yes"/>
      <point x="472" y="791" type="line"/>
      <point x="465" y="749" type="line"/>
      <point x="487" y="749" type="line" smooth="yes"/>
      <point x="769" y="749"/>
      <point x="923" y="606"/>
      <point x="886" y="386" type="curve" smooth="yes"/>
      <point x="853" y="182"/>
      <point x="676" y="46"/>
      <point x="444" y="46" type="curve" smooth="yes"/>
      <point x="342" y="46" type="line"/>
      <point x="335" y="0" type="line"/>
      <point x="437" y="0" type="line" smooth="yes"/>
      <point x="695" y="0"/>
      <point x="894" y="156"/>
      <point x="932" y="386" type="curve" smooth="yes"/>
      <point x="966" y="590"/>
      <point x="852" y="737"/>
      <point x="648" y="771" type="curve"/>
      <point x="649" y="775" type="line"/>
      <point x="839" y="823"/>
      <point x="960" y="960"/>
      <point x="991" y="1152" type="curve" smooth="yes"/>
      <point x="1028" y="1373"/>
      <point x="913" y="1510"/>
      <point x="691" y="1510" type="curve" smooth="yes"/>
      <point x="469" y="1510"/>
      <point x="308" y="1373"/>
      <point x="271" y="1152" type="curve" smooth="yes"/>
    </contour>
  </outline>
</glyph>
<glyph name="ae" format="2">
  <advance width="1727"/>
  <unicode hex="00E6"/>
  <anchor x="922" y="1056" name="top"/>
  <outline>
    <contour>
      <point x="321" y="-24" type="curve" smooth="yes"/>
      <point x="595" y="-24"/>
      <point x="771" y="178"/>
      <point x="819" y="446" type="curve"/>
      <point x="819" y="451" type="line"/>
      <point x="879" y="802" type="line" smooth="yes"/>
      <point x="912" y="994"/>
      <point x="780" y="1134"/>
      <point x="567" y="1134" type="curve" smooth="yes"/>
      <point x="352" y="1134"/>
      <point x="170" y="986"/>
      <point x="137" y="784" type="curve"/>
      <point x="183" y="784" type="line"/>
      <point x="212" y="958"/>
      <point x="378" y="1088"/>
      <point x="569" y="1088" type="curve" smooth="yes"/>
      <point x="754" y="1088"/>
      <point x="862" y="971"/>
      <point x="834" y="802" type="curve" smooth="yes"/>
      <point x="780" y="478" type="line" smooth="yes"/>
      <point x="737" y="217"/>
      <point x="580" y="22"/>
      <point x="321" y="22" type="curve" smooth="yes"/>
      <point x="134" y="22"/>
      <point x="47" y="122"/>
      <point x="76" y="302" type="curve" smooth="yes"/>
      <point x="104" y="474"/>
      <point x="245" y="559"/>
      <point x="501" y="559" type="curve" smooth="yes"/>
      <point x="604" y="559"/>
      <point x="717" y="559"/>
      <point x="820" y="559" type="curve"/>
      <point x="827" y="605" type="line"/>
      <point x="718" y="605"/>
      <point x="610" y="605"/>
      <point x="501" y="605" type="curve" smooth="yes"/>
      <point x="218" y="605"/>
      <point x="63" y="505"/>
      <point x="29" y="302" type="curve" smooth="yes"/>
      <point x="-4" y="102"/>
      <point x="108" y="-24"/>
    </contour>
    <contour>
      <point x="1176" y="-16" type="curve" smooth="yes"/>
      <point x="1359" y="-16"/>
      <point x="1486" y="47"/>
      <point x="1610" y="198" type="curve"/>
      <point x="1574" y="227" type="line"/>
      <point x="1456" y="83"/>
      <point x="1349" y="30"/>
      <point x="1176" y="30" type="curve" smooth="yes"/>
      <point x="931" y="30"/>
      <point x="828" y="142"/>
      <point x="828" y="408" type="curve" smooth="yes"/>
      <point x="828" y="413"/>
      <point x="828" y="418"/>
      <point x="828" y="422" type="curve" smooth="yes"/>
      <point x="828" y="817"/>
      <point x="1060" y="1088"/>
      <point x="1385" y="1088" type="curve" smooth="yes"/>
      <point x="1557" y="1088"/>
      <point x="1648" y="1015"/>
      <point x="1648" y="879" type="curve" smooth="yes"/>
      <point x="1648" y="673"/>
      <point x="1442" y="605"/>
      <point x="822" y="605" type="curve"/>
      <point x="822" y="559" type="line"/>
      <point x="1459" y="559"/>
      <point x="1694" y="645"/>
      <point x="1694" y="879" type="curve" smooth="yes"/>
      <point x="1694" y="1039"/>
      <point x="1578" y="1134"/>
      <point x="1385" y="1134" type="curve" smooth="yes"/>
      <point x="1031" y="1134"/>
      <point x="784" y="832"/>
      <point x="784" y="408" type="curve" smooth="yes"/>
      <point x="784" y="119"/>
      <point x="908" y="-16"/>
    </contour>
  </outline>
</glyph>
<glyph name="eth" format="2">
  <advance width="1086"/>
  <unicode hex="00F0"/>
  <outline>
    <contour>
      <point x="1071" y="1462" type="line"/>
      <point x="1066" y="1506" type="line"/>
      <point x="453" y="1248" type="line"/>
      <point x="458" y="1202" type="line"/>
    </contour>
    <contour>
      <point x="453" y="-24" type="curve" smooth="yes"/>
      <point x="721" y="-23"/>
      <point x="967" y="200"/>
      <point x="1023" y="548" type="curve" smooth="yes"/>
      <point x="1090" y="961"/>
      <point x="908" y="1367"/>
      <point x="540" y="1582" type="curve"/>
      <point x="517" y="1536" type="line"/>
      <point x="783" y="1377"/>
      <point x="946" y="1119"/>
      <point x="990" y="820" type="curve"/>
      <point x="982" y="820" type="line"/>
      <point x="919" y="980"/>
      <point x="799" y="1062"/>
      <point x="632" y="1062" type="curve" smooth="yes"/>
      <point x="364" y="1062"/>
      <point x="116" y="824"/>
      <point x="65" y="520" type="curve" smooth="yes"/>
      <point x="15" y="215"/>
      <point x="185" y="-23"/>
    </contour>
    <contour>
      <point x="461" y="24" type="curve" smooth="yes"/>
      <point x="219" y="23"/>
      <point x="65" y="241"/>
      <point x="113" y="520" type="curve" smooth="yes"/>
      <point x="157" y="796"/>
      <point x="385" y="1015"/>
      <point x="625" y="1016" type="curve" smooth="yes"/>
      <point x="866" y="1015"/>
      <point x="1020" y="797"/>
      <point x="973" y="520" type="curve" smooth="yes"/>
      <point x="927" y="241"/>
      <point x="701" y="23"/>
    </contour>
  </outline>
</glyph>
<glyph name="divide" format="2">
  <advance width="1176"/>
  <unicode hex="00F7"/>
  <outline>
    <contour>
      <point x="1022.913" y="606" type="line"/>
      <point x="178.913" y="606" type="line"/>
      <point x="170.966" y="558" type="line"/>
      <point x="1014.966" y="558" type="line"/>
    </contour>
    <contour>
      <point x="533.369" y="198" type="curve" smooth="yes"/>
      <point x="562.369" y="198"/>
      <point x="589.176" y="221"/>
      <point x="593.977" y="250" type="curve" smooth="yes"/>
      <point x="598.778" y="279"/>
      <point x="579.751" y="303"/>
      <point x="550.586" y="302" type="curve" smooth="yes"/>
      <point x="521.751" y="303"/>
      <point x="493.778" y="279"/>
      <point x="489.977" y="250" type="curve" smooth="yes"/>
      <point x="484.176" y="221"/>
      <point x="504.369" y="198"/>
    </contour>
    <contour>
      <point x="643.293" y="862" type="curve" smooth="yes"/>
      <point x="672.128" y="861"/>
      <point x="698.935" y="884"/>
      <point x="703.902" y="914" type="curve" smooth="yes"/>
      <point x="708.703" y="943"/>
      <point x="689.51" y="966"/>
      <point x="660.51" y="966" type="curve" smooth="yes"/>
      <point x="631.51" y="966"/>
      <point x="603.703" y="943"/>
      <point x="599.902" y="914" type="curve" smooth="yes"/>
      <point x="593.935" y="884"/>
      <point x="614.128" y="861"/>
    </contour>
  </outline>
</glyph>
<glyph name="thorn" format="2">
  <advance width="1062"/>
  <unicode hex="00FE"/>
  <outline>
    <contour>
      <point x="475" y="-24" type="curve" smooth="yes"/>
      <point x="738" y="-24"/>
      <point x="946" y="225"/>
      <point x="1001" y="556" type="curve" smooth="yes"/>
      <point x="1055" y="884"/>
      <point x="927" y="1134"/>
      <point x="666" y="1134" type="curve" smooth="yes"/>
      <point x="488" y="1134"/>
      <point x="324" y="1018"/>
      <point x="236" y="832" type="curve"/>
      <point x="230" y="832" type="line"/>
      <point x="339" y="1490" type="line"/>
      <point x="293" y="1490" type="line"/>
      <point x="-23" y="-418" type="line"/>
      <point x="23" y="-418" type="line"/>
      <point x="139" y="280" type="line"/>
      <point x="145" y="280" type="line"/>
      <point x="173" y="94"/>
      <point x="295" y="-24"/>
    </contour>
    <contour>
      <point x="482" y="22" type="curve" smooth="yes"/>
      <point x="244" y="22"/>
      <point x="134" y="253"/>
      <point x="185" y="556" type="curve" smooth="yes"/>
      <point x="235" y="858"/>
      <point x="423" y="1088"/>
      <point x="659" y="1088" type="curve" smooth="yes"/>
      <point x="894" y="1088"/>
      <point x="1005" y="858"/>
      <point x="955" y="556" type="curve" smooth="yes"/>
      <point x="904" y="253"/>
      <point x="718" y="22"/>
    </contour>
  </outline>
</glyph>
<glyph name="Hbar" format="2">
  <advance width="1394"/>
  <unicode hex="0126"/>
  <anchor x="613" y="0" name="bottom"/>
  <anchor x="116" y="0" name="cedilla"/>
  <anchor x="1133" y="0" name="cyrtic"/>
  <anchor x="1087" y="0" name="lfthook"/>
  <anchor x="1133" y="0" name="right"/>
  <anchor x="338" y="1490" name="tonos"/>
  <anchor x="860" y="1490" name="top"/>
  <outline>
    <contour>
      <point x="1425" y="1080" type="line"/>
      <point x="151" y="1080" type="line"/>
      <point x="143" y="1032" type="line"/>
      <point x="1417" y="1032" type="line"/>
    </contour>
    <component base="H" xOffset="10"/>
  </outline>
</glyph>
<glyph name="idotless" format="2">
  <advance width="315"/>
  <unicode hex="0131"/>
  <anchor x="70" y="0" name="bottom"/>
  <anchor x="166" y="582" name="cross"/>
  <anchor x="93" y="0" name="ogonek"/>
  <anchor x="245" y="1056" name="top"/>
  <outline>
    <contour>
      <point x="47" y="0" type="line"/>
      <point x="93" y="0" type="line"/>
      <point x="268" y="1056" type="line"/>
      <point x="222" y="1056" type="line"/>
    </contour>
  </outline>
</glyph>
<glyph name="kgreenlandic" format="2">
  <advance width="898"/>
  <unicode hex="0138"/>
  <outline>
    <contour>
      <point x="268" y="1056" type="line"/>
      <point x="222" y="1056" type="line"/>
      <point x="47" y="0" type="line"/>
      <point x="93" y="0" type="line"/>
    </contour>
    <contour>
      <point x="972" y="1056" type="line"/>
      <point x="902" y="1056" type="line"/>
      <point x="294" y="556" type="line"/>
      <point x="155" y="556" type="line"/>
      <point x="147" y="510" type="line"/>
      <point x="309" y="510" type="line"/>
    </contour>
    <contour>
      <point x="741" y="0" type="line"/>
      <point x="803" y="0" type="line"/>
      <point x="323" y="546" type="line"/>
      <point x="272" y="536" type="line"/>
    </contour>
  </outline>
</glyph>
<glyph name="OE" format="2">
  <advance width="1837"/>
  <unicode hex="0152"/>
  <anchor x="1223" y="0" name="bottom"/>
  <anchor x="1220" y="0" name="cedilla"/>
  <anchor x="1674" y="0" name="ogonek"/>
  <anchor x="1019" y="1490" name="tonos"/>
  <anchor x="1470" y="1490" name="top"/>
  <outline>
    <contour>
      <point x="614" y="0" type="curve" smooth="yes"/>
      <point x="796" y="0" type="line"/>
      <point x="803" y="46" type="line"/>
      <point x="621" y="46" type="line" smooth="yes"/>
      <point x="278" y="47"/>
      <point x="98" y="332"/>
      <point x="165" y="744" type="curve" smooth="yes"/>
      <point x="235" y="1164"/>
      <point x="515" y="1444"/>
      <point x="852" y="1442" type="curve" smooth="yes"/>
      <point x="1034" y="1442" type="line"/>
      <point x="1042" y="1490" type="line"/>
      <point x="860" y="1490" type="line" smooth="yes"/>
      <point x="492" y="1489"/>
      <point x="192" y="1188"/>
      <point x="119" y="744" type="curve" smooth="yes"/>
      <point x="46" y="303"/>
      <point x="245" y="0"/>
    </contour>
    <component base="E" xOffset="691"/>
  </outline>
</glyph>
<glyph name="tbar" format="2">
  <advance width="472"/>
  <unicode hex="0167"/>
  <anchor x="308.0" y="0" name="bottom"/>
  <anchor x="301.0" y="0" name="cedilla"/>
  <anchor x="442.0" y="0" name="lfthook"/>
  <anchor x="428.92" y="1344" name="top"/>
  <anchor x="620.2" y="1490" name="raccent"/>
  <outline>
    <contour>
      <point x="576.1" y="745" type="line"/>
      <point x="134.1" y="745" type="line"/>
      <point x="125.82" y="699" type="line"/>
      <point x="567.8199999999999" y="699" type="line"/>
    </contour>
    <component base="t" yxScale="0.18"/>
  </outline>
</glyph>
<glyph name="Btopbar" format="2">
  <advance width="1209"/>
  <unicode hex="0182"/>
  <outline>
    <contour>
      <point x="81" y="0" type="line"/>
      <point x="639" y="0" type="line" smooth="yes"/>
      <point x="905" y="0"/>
      <point x="1080" y="146"/>
      <point x="1121" y="396" type="curve" smooth="yes"/>
      <point x="1158" y="623"/>
      <point x="1012" y="777"/>
      <point x="769" y="776" type="curve" smooth="yes"/>
      <point x="257" y="776" type="line"/>
      <point x="365" y="1442" type="line"/>
      <point x="1127" y="1442" type="line"/>
      <point x="1137" y="1490" type="line"/>
      <point x="327" y="1490" type="line"/>
    </contour>
    <contour>
      <point x="135" y="46" type="line"/>
      <point x="247" y="730" type="line"/>
      <point x="759" y="730" type="line" smooth="yes"/>
      <point x="985" y="730"/>
      <point x="1108" y="602"/>
      <point x="1075" y="398" type="curve" smooth="yes"/>
      <point x="1037" y="180"/>
      <point x="880" y="47"/>
      <point x="647" y="46" type="curve" smooth="yes"/>
    </contour>
  </outline>
</glyph>
<glyph name="Dtopbar" format="2">
  <advance width="1082"/>
  <unicode hex="018B"/>
  <outline>
    <contour>
      <point x="936" y="0" type="line"/>
      <point x="1184" y="1490" type="line"/>
      <point x="376" y="1490" type="line"/>
      <point x="366" y="1442" type="line"/>
      <point x="1128" y="1442" type="line"/>
      <point x="1020" y="776" type="line"/>
      <point x="508" y="776" type="line" smooth="yes"/>
      <point x="249" y="777"/>
      <point x="68" y="636"/>
      <point x="30" y="404" type="curve" smooth="yes"/>
      <point x="-11" y="164"/>
      <point x="131" y="0"/>
      <point x="378" y="0" type="curve" smooth="yes"/>
    </contour>
    <contour>
      <point x="898" y="46" type="line"/>
      <point x="386" y="46" type="line" smooth="yes"/>
      <point x="153" y="47"/>
      <point x="40" y="180"/>
      <point x="78" y="408" type="curve" smooth="yes"/>
      <point x="109" y="602"/>
      <point x="276" y="730"/>
      <point x="498" y="730" type="curve" smooth="yes"/>
      <point x="1010" y="730" type="line"/>
    </contour>
  </outline>
</glyph>
<glyph name="deltaturn" format="2">
  <advance width="826"/>
  <unicode hex="018D"/>
  <outline>
    <contour>
      <point x="554" y="-376" type="line"/>
      <point x="560" y="-344" type="line"/>
      <point x="475" y="-225"/>
      <point x="372" y="-93"/>
      <point x="210" y="102" type="curve"/>
      <point x="263" y="94"/>
      <point x="303" y="90"/>
      <point x="338" y="90" type="curve" smooth="yes"/>
      <point x="592" y="90"/>
      <point x="808" y="295"/>
      <point x="854" y="590" type="curve" smooth="yes"/>
      <point x="856" y="610" type="line" smooth="yes"/>
      <point x="906" y="929"/>
      <point x="765" y="1135"/>
      <point x="510" y="1134" type="curve" smooth="yes"/>
      <point x="245" y="1135"/>
      <point x="33" y="937"/>
      <point x="-10" y="614" type="curve" smooth="yes"/>
      <point x="-14" y="592" type="line" smooth="yes"/>
      <point x="-35" y="426"/>
      <point x="13" y="263"/>
      <point x="148" y="104" type="curve" smooth="yes"/>
      <point x="317" y="-98"/>
      <point x="405" y="-210"/>
      <point x="490" y="-330" type="curve"/>
      <point x="-42" y="-328" type="line"/>
      <point x="-50" y="-376" type="line"/>
    </contour>
    <contour>
      <point x="808" y="590" type="line" smooth="yes"/>
      <point x="767" y="325"/>
      <point x="567" y="137"/>
      <point x="338" y="136" type="curve" smooth="yes"/>
      <point x="288" y="137"/>
      <point x="231" y="145"/>
      <point x="160" y="162" type="curve"/>
      <point x="46" y="320"/>
      <point x="14" y="444"/>
      <point x="34" y="592" type="curve" smooth="yes"/>
      <point x="36" y="614" type="line" smooth="yes"/>
      <point x="75" y="903"/>
      <point x="271" y="1088"/>
      <point x="502" y="1088" type="curve" smooth="yes"/>
      <point x="737" y="1088"/>
      <point x="857" y="910"/>
      <point x="810" y="610" type="curve" smooth="yes"/>
    </contour>
  </outline>
</glyph>
<glyph name="Schwa" format="2">
  <advance width="1383"/>
  <unicode hex="018F"/>
  <outline>
    <contour>
      <point x="604" y="-20" type="curve" smooth="yes"/>
      <point x="981" y="-20"/>
      <point x="1261" y="289"/>
      <point x="1336" y="744" type="curve" smooth="yes"/>
      <point x="1412" y="1203"/>
      <point x="1215" y="1510"/>
      <point x="845" y="1510" type="curve" smooth="yes"/>
      <point x="498" y="1510"/>
      <point x="266" y="1236"/>
      <point x="195" y="1024" type="curve"/>
      <point x="242" y="1024" type="line"/>
      <point x="310" y="1227"/>
      <point x="532" y="1464"/>
      <point x="837" y="1464" type="curve" smooth="yes"/>
      <point x="1180" y="1464"/>
      <point x="1362" y="1175"/>
      <point x="1290" y="744" type="curve" smooth="yes"/>
      <point x="1220" y="319"/>
      <point x="962" y="26"/>
      <point x="611" y="26" type="curve" smooth="yes"/>
      <point x="286" y="26"/>
      <point x="104" y="262"/>
      <point x="166" y="636" type="curve"/>
      <point x="145" y="626" type="line"/>
      <point x="1288" y="626" type="line"/>
      <point x="1295" y="672" type="line"/>
      <point x="126" y="672" type="line"/>
      <point x="119" y="628" type="line" smooth="yes"/>
      <point x="54" y="236"/>
      <point x="256" y="-20"/>
    </contour>
  </outline>
</glyph>
<glyph name="Epsilon1" format="2">
  <advance width="1088"/>
  <unicode hex="0190"/>
  <anchor x="457" y="0" name="bottom"/>
  <anchor x="700" y="1490" name="top"/>
  <outline>
    <contour>
      <point x="453" y="-20" type="curve" smooth="yes"/>
      <point x="722" y="-20"/>
      <point x="954" y="145"/>
      <point x="992" y="372" type="curve"/>
      <point x="946" y="372" type="line"/>
      <point x="913" y="171"/>
      <point x="699" y="26"/>
      <point x="455" y="26" type="curve" smooth="yes"/>
      <point x="197" y="26"/>
      <point x="53" y="185"/>
      <point x="86" y="383" type="curve" smooth="yes"/>
      <point x="122" y="599"/>
      <point x="349" y="744"/>
      <point x="626" y="744" type="curve" smooth="yes"/>
      <point x="647" y="744" type="line"/>
      <point x="655" y="792" type="line"/>
      <point x="631" y="792" type="line" smooth="yes"/>
      <point x="387" y="792"/>
      <point x="223" y="920"/>
      <point x="257" y="1125" type="curve" smooth="yes"/>
      <point x="289" y="1318"/>
      <point x="472" y="1464"/>
      <point x="701" y="1464" type="curve" smooth="yes"/>
      <point x="926" y="1464"/>
      <point x="1067" y="1321"/>
      <point x="1033" y="1118" type="curve"/>
      <point x="1078" y="1118" type="line"/>
      <point x="1116" y="1347"/>
      <point x="957" y="1510"/>
      <point x="703" y="1510" type="curve" smooth="yes"/>
      <point x="453" y="1510"/>
      <point x="248" y="1349"/>
      <point x="212" y="1131" type="curve" smooth="yes"/>
      <point x="183" y="956"/>
      <point x="280" y="814"/>
      <point x="469" y="770" type="curve"/>
      <point x="465" y="769" type="line"/>
      <point x="238" y="728"/>
      <point x="72" y="578"/>
      <point x="41" y="389" type="curve" smooth="yes"/>
      <point x="3" y="160"/>
      <point x="170" y="-20"/>
    </contour>
  </outline>
</glyph>
<glyph name="florin" format="2">
  <advance width="480"/>
  <unicode hex="0192"/>
  <outline>
    <contour>
      <point x="552.39" y="1074" type="line"/>
      <point x="354.39" y="1074" type="line"/>
      <point x="391.804" y="1300" type="line" smooth="yes"/>
      <point x="412.491" y="1431"/>
      <point x="524.569" y="1510"/>
      <point x="634.569" y="1510" type="curve" smooth="yes"/>
      <point x="664.569" y="1510"/>
      <point x="685.741" y="1505"/>
      <point x="706.251" y="1496" type="curve"/>
      <point x="729.536" y="1540" type="line"/>
      <point x="703.357" y="1551"/>
      <point x="678.184" y="1556"/>
      <point x="642.184" y="1556" type="curve" smooth="yes"/>
      <point x="506.184" y="1556"/>
      <point x="370.795" y="1457"/>
      <point x="343.804" y="1300" type="curve" smooth="yes"/>
      <point x="306.39" y="1074" type="line"/>
      <point x="108.39" y="1074" type="line"/>
      <point x="100.443" y="1026" type="line"/>
      <point x="298.443" y="1026" type="line"/>
      <point x="101.771" y="-162" type="line" smooth="yes"/>
      <point x="80.919" y="-294"/>
      <point x="-30.994" y="-372"/>
      <point x="-140.994" y="-372" type="curve" smooth="yes"/>
      <point x="-170.994" y="-372"/>
      <point x="-192.332" y="-368"/>
      <point x="-215.007" y="-360" type="curve"/>
      <point x="-235.961" y="-402" type="line"/>
      <point x="-209.782" y="-413"/>
      <point x="-184.775" y="-419"/>
      <point x="-148.609" y="-418" type="curve" smooth="yes"/>
      <point x="-12.775" y="-419"/>
      <point x="122.615" y="-320"/>
      <point x="149.771" y="-162" type="curve" smooth="yes"/>
      <point x="346.443" y="1026" type="line"/>
      <point x="544.443" y="1026" type="line"/>
    </contour>
  </outline>
</glyph>
<glyph name="Gamma1" format="2">
  <advance width="930"/>
  <unicode hex="0194"/>
  <outline>
    <contour>
      <point x="51.258" y="1490" type="line"/>
      <point x="378.801" y="110" type="line" smooth="yes"/>
      <point x="443.943" y="-167"/>
      <point x="458.706" y="-253"/>
      <point x="451.919" y="-294" type="curve" smooth="yes"/>
      <point x="441.482" y="-351"/>
      <point x="384.033" y="-396"/>
      <point x="313.033" y="-396" type="curve" smooth="yes"/>
      <point x="238.033" y="-396"/>
      <point x="196.482" y="-351"/>
      <point x="205.919" y="-294" type="curve" smooth="yes"/>
      <point x="212.706" y="-253"/>
      <point x="260.44" y="-164"/>
      <point x="405.821" y="92" type="curve" smooth="yes"/>
      <point x="1201.258" y="1490" type="line"/>
      <point x="1149.258" y="1490" type="line"/>
      <point x="330.868" y="50" type="line" smooth="yes"/>
      <point x="195.467" y="-188"/>
      <point x="167.196" y="-244"/>
      <point x="160.912" y="-288" type="curve" smooth="yes"/>
      <point x="145.675" y="-374"/>
      <point x="200.418" y="-442"/>
      <point x="305.418" y="-442" type="curve" smooth="yes"/>
      <point x="408.418" y="-442"/>
      <point x="484.675" y="-374"/>
      <point x="498.912" y="-288" type="curve" smooth="yes"/>
      <point x="506.196" y="-244"/>
      <point x="495.116" y="-172"/>
      <point x="438.51" y="72" type="curve" smooth="yes"/>
      <point x="103.258" y="1490" type="line"/>
    </contour>
  </outline>
</glyph>
<glyph name="hv" format="2">
  <advance width="1752"/>
  <unicode hex="0195"/>
  <outline>
    <contour>
      <point x="47" y="0" type="line"/>
      <point x="93" y="0" type="line"/>
      <point x="217" y="750" type="line" smooth="yes"/>
      <point x="249" y="945"/>
      <point x="415" y="1085"/>
      <point x="612" y="1086" type="curve" smooth="yes"/>
      <point x="811" y="1085"/>
      <point x="925" y="948"/>
      <point x="893" y="750" type="curve" smooth="yes"/>
      <point x="850" y="494" type="line"/>
      <point x="896" y="494" type="line"/>
      <point x="939" y="750" type="line" smooth="yes"/>
      <point x="976" y="975"/>
      <point x="845" y="1132"/>
      <point x="620" y="1132" type="curve" smooth="yes"/>
      <point x="469" y="1132"/>
      <point x="327" y="1057"/>
      <point x="254" y="940" type="curve"/>
      <point x="248" y="940" type="line"/>
      <point x="339" y="1490" type="line"/>
      <point x="293" y="1490" type="line"/>
    </contour>
    <contour>
      <point x="1074" y="-18" type="curve" smooth="yes"/>
      <point x="1380" y="-19"/>
      <point x="1584" y="329"/>
      <point x="1699" y="1016" type="curve" smooth="yes"/>
      <point x="1716" y="1118" type="line"/>
      <point x="1668" y="1118" type="line"/>
      <point x="1653" y="1032" type="line" smooth="yes"/>
      <point x="1544" y="364"/>
      <point x="1358" y="28"/>
      <point x="1081" y="28" type="curve" smooth="yes"/>
      <point x="901" y="28"/>
      <point x="840" y="153"/>
      <point x="887" y="440" type="curve" smooth="yes"/>
      <point x="918" y="622" type="line"/>
      <point x="872" y="622" type="line"/>
      <point x="841" y="440" type="line" smooth="yes"/>
      <point x="789" y="128"/>
      <point x="866" y="-19"/>
    </contour>
  </outline>
</glyph>
<glyph name="Khook" format="2">
  <advance width="1214"/>
  <unicode hex="0198"/>
  <outline>
    <contour>
      <point x="80.59" y="0" type="line"/>
      <point x="128.59" y="0" type="line"/>
      <point x="209.047" y="486" type="line"/>
      <point x="474.103" y="734" type="line"/>
      <point x="1040.59" y="0" type="line"/>
      <point x="1104.59" y="0" type="line"/>
      <point x="511.732" y="768" type="line"/>
      <point x="1178.372" y="1388" type="line" smooth="yes"/>
      <point x="1248.464" y="1455"/>
      <point x="1314.782" y="1469"/>
      <point x="1375.67" y="1420" type="curve"/>
      <point x="1412.636" y="1450" type="line"/>
      <point x="1360.225" y="1520"/>
      <point x="1233.741" y="1505"/>
      <point x="1147.67" y="1420" type="curve"/>
      <point x="227.629" y="562" type="line"/>
      <point x="221.629" y="562" type="line"/>
      <point x="375.258" y="1490" type="line"/>
      <point x="327.258" y="1490" type="line"/>
    </contour>
  </outline>
</glyph>
<glyph name="lambdabar" format="2">
  <advance width="1102"/>
  <unicode hex="019B"/>
  <outline>
    <contour>
      <point x="658" y="1436" type="line"/>
      <point x="232" y="1250" type="line"/>
      <point x="222" y="1198" type="line"/>
      <point x="648" y="1384" type="line"/>
    </contour>
    <contour>
      <point x="556" y="1054" type="line"/>
      <point x="564" y="1084" type="line"/>
      <point x="544" y="1128" type="line"/>
      <point x="-46" y="0" type="line"/>
      <point x="8" y="0" type="line"/>
    </contour>
    <contour>
      <point x="342" y="1510" type="curve" smooth="yes"/>
      <point x="309" y="1511"/>
      <point x="274" y="1505"/>
      <point x="240" y="1496" type="curve"/>
      <point x="250" y="1454" type="line"/>
      <point x="282" y="1460"/>
      <point x="310" y="1465"/>
      <point x="334" y="1464" type="curve" smooth="yes"/>
      <point x="425" y="1462"/>
      <point x="473" y="1415"/>
      <point x="496" y="1298" type="curve" smooth="yes"/>
      <point x="552" y="1006" type="line"/>
      <point x="718" y="186" type="line" smooth="yes"/>
      <point x="748" y="35"/>
      <point x="779" y="-12"/>
      <point x="856" y="-12" type="curve" smooth="yes"/>
      <point x="879" y="-12"/>
      <point x="898" y="-9"/>
      <point x="916" y="-2" type="curve"/>
      <point x="906" y="42" type="line"/>
      <point x="888" y="38"/>
      <point x="871" y="35"/>
      <point x="860" y="34" type="curve" smooth="yes"/>
      <point x="808" y="35"/>
      <point x="786" y="76"/>
      <point x="756" y="226" type="curve" smooth="yes"/>
      <point x="540" y="1312" type="line" smooth="yes"/>
      <point x="511" y="1455"/>
      <point x="457" y="1507"/>
    </contour>
  </outline>
</glyph>
<glyph name="mcapturn" format="2">
  <advance width="1576"/>
  <unicode hex="019C"/>
  <outline>
    <contour>
      <point x="1368" y="228" type="line"/>
      <point x="1336" y="0" type="line"/>
      <point x="1376" y="0" type="line"/>
      <point x="1624" y="1490" type="line"/>
      <point x="1576" y="1490" type="line"/>
    </contour>
    <contour>
      <point x="1390" y="366" type="line"/>
      <point x="1357" y="172"/>
      <point x="1194" y="32"/>
      <point x="1030" y="32" type="curve" smooth="yes"/>
      <point x="828" y="32"/>
      <point x="746" y="164"/>
      <point x="780" y="366" type="curve" smooth="yes"/>
      <point x="966" y="1490" type="line"/>
      <point x="920" y="1490" type="line"/>
      <point x="734" y="366" type="line" smooth="yes"/>
      <point x="697" y="146"/>
      <point x="801" y="-15"/>
      <point x="1022" y="-14" type="curve" smooth="yes"/>
      <point x="1220" y="-15"/>
      <point x="1399" y="138"/>
      <point x="1422" y="366" type="curve"/>
    </contour>
    <contour>
      <point x="734" y="366" type="line"/>
      <point x="700" y="171"/>
      <point x="538" y="32"/>
      <point x="372" y="32" type="curve" smooth="yes"/>
      <point x="169" y="32"/>
      <point x="89" y="163"/>
      <point x="122" y="366" type="curve" smooth="yes"/>
      <point x="308" y="1490" type="line"/>
      <point x="262" y="1490" type="line"/>
      <point x="76" y="366" type="line" smooth="yes"/>
      <point x="39" y="145"/>
      <point x="142" y="-15"/>
      <point x="364" y="-14" type="curve" smooth="yes"/>
      <point x="563" y="-15"/>
      <point x="741" y="138"/>
      <point x="766" y="366" type="curve"/>
    </contour>
  </outline>
</glyph>
<glyph name="Ohorn" format="2">
  <advance width="1401"/>
  <unicode hex="01A0"/>
  <anchor x="615" y="0" name="bottom"/>
  <anchor x="738" y="745" name="center"/>
  <anchor x="1369" y="926" name="ogonek"/>
  <anchor x="365" y="1490" name="tonos"/>
  <anchor x="861" y="1490" name="top"/>
  <anchor x="865" y="1510" name="tophorn"/>
  <outline>
    <contour>
      <point x="856" y="1469" type="line"/>
      <point x="1021" y="1469"/>
      <point x="1029" y="1444"/>
      <point x="1346" y="1444" type="curve" smooth="yes"/>
      <point x="1425" y="1444"/>
      <point x="1476" y="1488"/>
      <point x="1489" y="1567" type="curve" smooth="yes"/>
      <point x="1516" y="1730" type="line"/>
      <point x="1470" y="1730" type="line"/>
      <point x="1443" y="1567" type="line" smooth="yes"/>
      <point x="1434" y="1513"/>
      <point x="1408" y="1490"/>
      <point x="1354" y="1490" type="curve" smooth="yes"/>
      <point x="1037" y="1490"/>
      <point x="1028" y="1510"/>
      <point x="863" y="1510" type="curve"/>
    </contour>
    <component base="O"/>
  </outline>
</glyph>
<glyph name="ohorn" format="2">
  <advance width="1058"/>
  <unicode hex="01A1"/>
  <anchor x="443" y="0" name="bottom"/>
  <anchor x="530" y="528" name="center"/>
  <anchor x="992" y="528" name="ogonek"/>
  <anchor x="617" y="1056" name="top"/>
  <anchor x="620" y="1072" name="tophorn"/>
  <outline>
    <contour>
      <point x="612" y="1030" type="line"/>
      <point x="726" y="1024"/>
      <point x="840" y="1011"/>
      <point x="956" y="1011" type="curve" smooth="yes"/>
      <point x="1035" y="1011"/>
      <point x="1086" y="1054"/>
      <point x="1100" y="1133" type="curve" smooth="yes"/>
      <point x="1127" y="1296" type="line"/>
      <point x="1081" y="1296" type="line"/>
      <point x="1054" y="1133" type="line" smooth="yes"/>
      <point x="1045" y="1079"/>
      <point x="1018" y="1056"/>
      <point x="964" y="1056" type="curve" smooth="yes"/>
      <point x="848" y="1056"/>
      <point x="734" y="1067"/>
      <point x="618" y="1072" type="curve"/>
    </contour>
    <component base="o"/>
  </outline>
</glyph>
<glyph name="OI" format="2">
  <advance width="1454"/>
  <unicode hex="01A2"/>
  <outline>
    <contour>
      <point x="1100" y="786" type="line"/>
      <point x="1054" y="786" type="line"/>
      <point x="954" y="184" type="line"/>
      <point x="876" y="90"/>
      <point x="729" y="26"/>
      <point x="588" y="26" type="curve" smooth="yes"/>
      <point x="281" y="26"/>
      <point x="87" y="287"/>
      <point x="150" y="672" type="curve" smooth="yes"/>
      <point x="158" y="714" type="line"/>
      <point x="110" y="714" type="line"/>
      <point x="104" y="672" type="line" smooth="yes"/>
      <point x="36" y="269"/>
      <point x="255" y="-20"/>
      <point x="576" y="-20" type="curve" smooth="yes"/>
      <point x="737" y="-20"/>
      <point x="897" y="51"/>
      <point x="998" y="174" type="curve"/>
    </contour>
    <contour>
      <point x="1190" y="1330" type="line"/>
      <point x="1117" y="1444"/>
      <point x="984" y="1510"/>
      <point x="830" y="1510" type="curve" smooth="yes"/>
      <point x="487" y="1510"/>
      <point x="192" y="1207"/>
      <point x="122" y="786" type="curve" smooth="yes"/>
      <point x="108" y="702" type="line"/>
      <point x="154" y="702" type="line"/>
      <point x="168" y="786" type="line" smooth="yes"/>
      <point x="233" y="1175"/>
      <point x="513" y="1463"/>
      <point x="822" y="1464" type="curve" smooth="yes"/>
      <point x="960" y="1463"/>
      <point x="1084" y="1405"/>
      <point x="1138" y="1308" type="curve"/>
      <point x="1034" y="670" type="line"/>
      <point x="1080" y="670" type="line"/>
    </contour>
    <contour>
      <point x="1438" y="1490" type="line"/>
      <point x="1372" y="1490" type="line"/>
      <point x="1154" y="1338" type="line"/>
      <point x="1144" y="1278" type="line"/>
      <point x="1384" y="1446" type="line"/>
      <point x="1076" y="-418" type="line"/>
      <point x="1122" y="-418" type="line"/>
    </contour>
  </outline>
</glyph>
<glyph name="oi" format="2">
  <advance width="934"/>
  <unicode hex="01A3"/>
  <outline>
    <contour>
      <point x="346" y="20" type="curve" smooth="yes"/>
      <point x="114" y="23"/>
      <point x="-16" y="228"/>
      <point x="32" y="514" type="curve" smooth="yes"/>
      <point x="36" y="542" type="line" smooth="yes"/>
      <point x="103" y="871"/>
      <point x="292" y="1088"/>
      <point x="528" y="1088" type="curve" smooth="yes"/>
      <point x="602" y="1088"/>
      <point x="667" y="1068"/>
      <point x="718" y="1034" type="curve"/>
      <point x="622" y="444" type="line"/>
      <point x="668" y="444" type="line"/>
      <point x="770" y="1062" type="line"/>
      <point x="699" y="1108"/>
      <point x="624" y="1135"/>
      <point x="536" y="1134" type="curve" smooth="yes"/>
      <point x="272" y="1135"/>
      <point x="49" y="900"/>
      <point x="-10" y="542" type="curve" smooth="yes"/>
      <point x="-14" y="522" type="line" smooth="yes"/>
      <point x="-65" y="204"/>
      <point x="89" y="-24"/>
      <point x="338" y="-26" type="curve" smooth="yes"/>
      <point x="432" y="-27"/>
      <point x="513" y="3"/>
      <point x="604" y="58" type="curve"/>
      <point x="716" y="738" type="line"/>
      <point x="670" y="738" type="line"/>
      <point x="562" y="82" type="line"/>
      <point x="497" y="44"/>
      <point x="426" y="20"/>
    </contour>
    <contour>
      <point x="1030" y="1118" type="line"/>
      <point x="966" y="1118" type="line"/>
      <point x="744" y="984" type="line"/>
      <point x="736" y="930" type="line"/>
      <point x="976" y="1074" type="line"/>
      <point x="730" y="-418" type="line"/>
      <point x="776" y="-418" type="line"/>
    </contour>
  </outline>
</glyph>
<glyph name="YR" format="2">
  <advance width="1224"/>
  <unicode hex="01A6"/>
  <outline>
    <contour>
      <point x="190" y="1384" type="line"/>
      <point x="238" y="1384" type="line"/>
      <point x="270" y="1588" type="line"/>
      <point x="224" y="1588" type="line"/>
    </contour>
    <contour>
      <point x="208" y="1490" type="line"/>
      <point x="-38" y="0" type="line"/>
      <point x="8" y="0" type="line"/>
      <point x="248" y="1442" type="line"/>
      <point x="638" y="1442" type="line" smooth="yes"/>
      <point x="860" y="1443"/>
      <point x="993" y="1293"/>
      <point x="956" y="1064" type="curve" smooth="yes"/>
      <point x="919" y="838"/>
      <point x="735" y="689"/>
      <point x="566" y="690" type="curve" smooth="yes"/>
      <point x="98" y="690" type="line"/>
      <point x="92" y="642" type="line"/>
      <point x="606" y="642" type="line"/>
      <point x="620" y="648" type="line"/>
      <point x="815" y="692"/>
      <point x="967" y="852"/>
      <point x="1002" y="1064" type="curve" smooth="yes"/>
      <point x="1044" y="1320"/>
      <point x="895" y="1489"/>
      <point x="644" y="1490" type="curve" smooth="yes"/>
    </contour>
    <contour>
      <point x="966" y="-372" type="line"/>
      <point x="1016" y="-372" type="line"/>
      <point x="1016" y="-366" type="line"/>
      <point x="630" y="664" type="line"/>
      <point x="578" y="664" type="line"/>
    </contour>
  </outline>
</glyph>
<glyph name="Tonetwo" format="2">
  <advance width="1125"/>
  <unicode hex="01A7"/>
  <anchor x="474" y="0" name="bottom"/>
  <anchor x="474" y="0" name="cedilla"/>
  <anchor x="721" y="1490" name="top"/>
  <outline>
    <contour>
      <point x="476" y="-22" type="curve" smooth="yes"/>
      <point x="747" y="-22"/>
      <point x="952" y="130"/>
      <point x="1002" y="350" type="curve"/>
      <point x="956" y="350" type="line"/>
      <point x="910" y="156"/>
      <point x="729" y="24"/>
      <point x="484" y="24" type="curve" smooth="yes"/>
      <point x="227" y="24"/>
      <point x="80" y="167"/>
      <point x="115" y="378" type="curve" smooth="yes"/>
      <point x="141" y="538"/>
      <point x="256" y="636"/>
      <point x="510" y="711" type="curve" smooth="yes"/>
      <point x="686" y="763" type="line" smooth="yes"/>
      <point x="933" y="836"/>
      <point x="1068" y="956"/>
      <point x="1097" y="1128" type="curve" smooth="yes"/>
      <point x="1133" y="1348"/>
      <point x="972" y="1512"/>
      <point x="718" y="1512" type="curve" smooth="yes"/>
      <point x="463" y="1512"/>
      <point x="262.994" y="1347"/>
      <point x="211" y="1118" type="curve"/>
      <point x="257" y="1118" type="line"/>
      <point x="306" y="1321"/>
      <point x="480" y="1466"/>
      <point x="711" y="1466" type="curve" smooth="yes"/>
      <point x="938" y="1466"/>
      <point x="1083" y="1324"/>
      <point x="1051" y="1128" type="curve" smooth="yes"/>
      <point x="1026" y="977"/>
      <point x="908" y="873"/>
      <point x="684" y="808" type="curve" smooth="yes"/>
      <point x="505" y="756" type="line" smooth="yes"/>
      <point x="235" y="677"/>
      <point x="99" y="561"/>
      <point x="69" y="378" type="curve" smooth="yes"/>
      <point x="30.005" y="145"/>
      <point x="193" y="-22"/>
    </contour>
  </outline>
</glyph>
<glyph name="tonetwo" format="2">
  <advance width="915"/>
  <unicode hex="01A8"/>
  <anchor x="368" y="0" name="bottom"/>
  <anchor x="368" y="0" name="cedilla"/>
  <anchor x="543" y="1056" name="top"/>
  <outline>
    <contour>
      <point x="131" y="740" type="curve"/>
      <point x="177" y="740" type="line"/>
      <point x="225" y="926"/>
      <point x="348" y="1024"/>
      <point x="537" y="1024" type="curve" smooth="yes"/>
      <point x="726" y="1024"/>
      <point x="834" y="926"/>
      <point x="810" y="777" type="curve" smooth="yes"/>
      <point x="790" y="661"/>
      <point x="699" y="608"/>
      <point x="538" y="572" type="curve" smooth="yes"/>
      <point x="346" y="529" type="line" smooth="yes"/>
      <point x="168" y="489"/>
      <point x="65" y="432"/>
      <point x="41" y="292" type="curve" smooth="yes"/>
      <point x="11" y="110"/>
      <point x="137" y="-14"/>
      <point x="366" y="-14" type="curve" smooth="yes"/>
      <point x="598" y="-14"/>
      <point x="760" y="118"/>
      <point x="800" y="316" type="curve"/>
      <point x="754" y="316" type="line"/>
      <point x="718" y="143"/>
      <point x="580" y="32"/>
      <point x="373" y="32" type="curve" smooth="yes"/>
      <point x="170" y="32"/>
      <point x="62" y="137"/>
      <point x="87" y="292" type="curve" smooth="yes"/>
      <point x="107" y="408"/>
      <point x="193" y="449"/>
      <point x="348" y="484" type="curve" smooth="yes"/>
      <point x="538" y="527" type="line" smooth="yes"/>
      <point x="726" y="570"/>
      <point x="833" y="638"/>
      <point x="856" y="777" type="curve" smooth="yes"/>
      <point x="885" y="953"/>
      <point x="759" y="1070"/>
      <point x="544" y="1070" type="curve" smooth="yes"/>
      <point x="330" y="1070"/>
      <point x="180" y="949"/>
    </contour>
  </outline>
</glyph>
<glyph name="eshlooprev" format="2">
  <advance width="782"/>
  <unicode hex="01AA"/>
  <outline>
    <contour>
      <point x="634" y="1264" type="line"/>
      <point x="398" y="-162" type="line" smooth="yes"/>
      <point x="370" y="-335"/>
      <point x="412" y="-419"/>
      <point x="528" y="-418" type="curve" smooth="yes"/>
      <point x="551" y="-419"/>
      <point x="577" y="-415"/>
      <point x="594" y="-410" type="curve"/>
      <point x="604" y="-364" type="line"/>
      <point x="583" y="-369"/>
      <point x="556" y="-372"/>
      <point x="532" y="-372" type="curve" smooth="yes"/>
      <point x="442" y="-372"/>
      <point x="420" y="-317"/>
      <point x="446" y="-162" type="curve" smooth="yes"/>
      <point x="686" y="1294" type="line"/>
    </contour>
    <contour>
      <point x="152" y="1290" type="curve" smooth="yes"/>
      <point x="129" y="1147"/>
      <point x="233" y="1023"/>
      <point x="378" y="1024" type="curve" smooth="yes"/>
      <point x="529" y="1025"/>
      <point x="661" y="1137"/>
      <point x="686" y="1290" type="curve" smooth="yes"/>
      <point x="708" y="1433"/>
      <point x="607" y="1556"/>
      <point x="460" y="1556" type="curve" smooth="yes"/>
      <point x="308" y="1556"/>
      <point x="179" y="1446"/>
    </contour>
    <contour>
      <point x="382" y="1070" type="curve" smooth="yes"/>
      <point x="260" y="1070"/>
      <point x="178" y="1167"/>
      <point x="200" y="1290" type="curve" smooth="yes"/>
      <point x="220" y="1412"/>
      <point x="335" y="1510"/>
      <point x="456" y="1510" type="curve" smooth="yes"/>
      <point x="583" y="1510"/>
      <point x="657" y="1416"/>
      <point x="638" y="1290" type="curve" smooth="yes"/>
      <point x="620" y="1169"/>
      <point x="506" y="1071"/>
    </contour>
  </outline>
</glyph>
<glyph name="thook" format="2">
  <advance width="589"/>
  <unicode hex="01AD"/>
  <anchor x="343" y="1118" name="_topr"/>
  <anchor x="280" y="0" name="bottom"/>
  <anchor x="381" y="1490" name="top"/>
  <anchor x="343" y="1118" name="topr"/>
  <outline>
    <contour>
      <point x="365" y="-20" type="curve" smooth="yes"/>
      <point x="400" y="-20"/>
      <point x="427" y="-14"/>
      <point x="458" y="-2" type="curve"/>
      <point x="451" y="40" type="line"/>
      <point x="423" y="31"/>
      <point x="400" y="26"/>
      <point x="372" y="26" type="curve" smooth="yes"/>
      <point x="260" y="26"/>
      <point x="175" y="105"/>
      <point x="197" y="236" type="curve" smooth="yes"/>
      <point x="339" y="1096" type="line"/>
      <point x="293" y="1096" type="line"/>
      <point x="151" y="236" type="line" smooth="yes"/>
      <point x="125" y="79"/>
      <point x="227" y="-20"/>
    </contour>
    <contour>
      <point x="125" y="1072" type="line"/>
      <point x="567" y="1072" type="line"/>
      <point x="575" y="1118" type="line"/>
      <point x="133" y="1118" type="line"/>
    </contour>
    <component base="_part.top_r_hook" xOffset="70"/>
  </outline>
</glyph>
<glyph name="Trthook" format="2">
  <advance width="1207"/>
  <unicode hex="01AE"/>
  <anchor x="515" y="0" name="bottom"/>
  <anchor x="539" y="0" name="bottomr"/>
  <anchor x="516" y="0" name="cedilla"/>
  <anchor x="642" y="768" name="cross"/>
  <anchor x="539" y="0" name="cyrtic"/>
  <anchor x="527" y="0" name="right"/>
  <anchor x="762" y="1490" name="top"/>
  <outline>
    <contour>
      <point x="500.59" y="0" type="line"/>
      <point x="454.59" y="0" type="line"/>
      <point x="426.778" y="-168" type="line" smooth="yes"/>
      <point x="398.959" y="-330"/>
      <point x="455.722" y="-416"/>
      <point x="581.722" y="-416" type="curve"/>
      <point x="631.722" y="-416" type="line"/>
      <point x="639.337" y="-370" type="line"/>
      <point x="595.337" y="-370" type="line"/>
      <point x="491.503" y="-369"/>
      <point x="450.098" y="-305"/>
      <point x="472.778" y="-168" type="curve" smooth="yes"/>
    </contour>
    <component base="T"/>
  </outline>
</glyph>
<glyph name="Uhorn" format="2">
  <advance width="1351"/>
  <unicode hex="01AF"/>
  <anchor x="589" y="0" name="bottom"/>
  <anchor x="1209" y="508" name="ogonek"/>
  <anchor x="651" y="0" name="right"/>
  <anchor x="1323" y="1490" name="rtophorn"/>
  <anchor x="835" y="1490" name="top"/>
  <outline>
    <contour>
      <point x="1317" y="1444" type="line"/>
      <point x="1426" y="1444" type="line" smooth="yes"/>
      <point x="1505" y="1444"/>
      <point x="1556" y="1488"/>
      <point x="1569" y="1567" type="curve" smooth="yes"/>
      <point x="1596" y="1730" type="line"/>
      <point x="1550" y="1730" type="line"/>
      <point x="1523" y="1567" type="line" smooth="yes"/>
      <point x="1514" y="1513"/>
      <point x="1488" y="1490"/>
      <point x="1434" y="1490" type="curve" smooth="yes"/>
      <point x="1325" y="1490" type="line"/>
    </contour>
    <component base="U"/>
  </outline>
</glyph>
<glyph name="Upsilon2" format="2">
  <advance width="1396"/>
  <unicode hex="01B1"/>
  <outline>
    <contour>
      <point x="121.11" y="728" type="curve" smooth="yes"/>
      <point x="48.758" y="297"/>
      <point x="257.279" y="-20"/>
      <point x="607.279" y="-20" type="curve" smooth="yes"/>
      <point x="959.279" y="-20"/>
      <point x="1271.427" y="295"/>
      <point x="1343.11" y="728" type="curve" smooth="yes"/>
      <point x="1393.423" y="1044"/>
      <point x="1302.989" y="1283"/>
      <point x="1037.656" y="1432" type="curve"/>
      <point x="1039.312" y="1442" type="line"/>
      <point x="1461.312" y="1442" type="line"/>
      <point x="1469.258" y="1490" type="line"/>
      <point x="999.258" y="1490" type="line"/>
      <point x="988" y="1422" type="line"/>
      <point x="1205.307" y="1297"/>
      <point x="1356.542" y="1087"/>
      <point x="1295.441" y="730" type="curve" smooth="yes"/>
      <point x="1229.049" y="335"/>
      <point x="953.226" y="28"/>
      <point x="614.894" y="26" type="curve" smooth="yes"/>
      <point x="278.729" y="25"/>
      <point x="100.049" y="335"/>
      <point x="167.441" y="730" type="curve" smooth="yes"/>
      <point x="227.873" y="1089"/>
      <point x="444.142" y="1296"/>
      <point x="704" y="1422" type="curve"/>
      <point x="715.258" y="1490" type="line"/>
      <point x="247.258" y="1490" type="line"/>
      <point x="239.312" y="1442" type="line"/>
      <point x="661.312" y="1442" type="line"/>
      <point x="659.656" y="1432" type="line"/>
      <point x="344.989" y="1283"/>
      <point x="173.092" y="1042"/>
    </contour>
  </outline>
</glyph>
<glyph name="Vcursive" format="2">
  <advance width="1088"/>
  <unicode hex="01B2"/>
  <outline>
    <contour>
      <point x="440" y="-24" type="curve" smooth="yes"/>
      <point x="751" y="-23"/>
      <point x="964" y="160"/>
      <point x="1016" y="474" type="curve" smooth="yes"/>
      <point x="1144" y="1262" type="line" smooth="yes"/>
      <point x="1170" y="1429"/>
      <point x="1116" y="1510"/>
      <point x="976" y="1510" type="curve" smooth="yes"/>
      <point x="944" y="1510"/>
      <point x="915" y="1505"/>
      <point x="888" y="1496" type="curve"/>
      <point x="880" y="1450" type="line"/>
      <point x="909" y="1460"/>
      <point x="932" y="1463"/>
      <point x="962" y="1464" type="curve" smooth="yes"/>
      <point x="1082" y="1463"/>
      <point x="1121" y="1406"/>
      <point x="1098" y="1262" type="curve" smooth="yes"/>
      <point x="968" y="474" type="line" smooth="yes"/>
      <point x="922" y="193"/>
      <point x="726" y="23"/>
      <point x="450" y="24" type="curve" smooth="yes"/>
      <point x="173" y="23"/>
      <point x="46" y="185"/>
      <point x="94" y="474" type="curve" smooth="yes"/>
      <point x="258" y="1490" type="line"/>
      <point x="216" y="1490" type="line"/>
      <point x="46" y="474" type="line" smooth="yes"/>
      <point x="-4" y="168"/>
      <point x="147" y="-23"/>
    </contour>
  </outline>
</glyph>
<glyph name="Yhook" format="2">
  <advance width="1146"/>
  <unicode hex="01B3"/>
  <outline>
    <contour>
      <point x="536.448" y="724" type="line"/>
      <point x="570.448" y="724" type="line"/>
      <point x="576.407" y="760" type="line"/>
      <point x="542.407" y="760" type="line"/>
    </contour>
    <contour>
      <point x="121.258" y="1490" type="line"/>
      <point x="527.468" y="706" type="line"/>
      <point x="410.59" y="0" type="line"/>
      <point x="456.59" y="0" type="line"/>
      <point x="573.468" y="706" type="line"/>
      <point x="1159.365" y="1394" type="line" smooth="yes"/>
      <point x="1223.616" y="1468"/>
      <point x="1304.106" y="1477"/>
      <point x="1347.974" y="1446" type="curve"/>
      <point x="1384.94" y="1476" type="line"/>
      <point x="1345.714" y="1529"/>
      <point x="1211.887" y="1524"/>
      <point x="1133.987" y="1434" type="curve" smooth="yes"/>
      <point x="557.745" y="756" type="line"/>
      <point x="179.258" y="1490" type="line"/>
    </contour>
  </outline>
</glyph>
<glyph name="yhook" format="2">
  <advance width="1286"/>
  <unicode hex="01B4"/>
  <anchor x="574" y="0" name="bottom"/>
  <anchor x="440" y="0" name="ogonek"/>
  <anchor x="586" y="1056" name="top"/>
  <outline>
    <contour>
      <point x="1001" y="1056" type="line"/>
      <point x="1051" y="1056" type="line"/>
      <point x="1178" y="1274" type="line" smooth="yes"/>
      <point x="1258" y="1412"/>
      <point x="1281" y="1444"/>
      <point x="1366" y="1444" type="curve" smooth="yes"/>
      <point x="1383" y="1444"/>
      <point x="1399" y="1444"/>
      <point x="1417" y="1444" type="curve"/>
      <point x="1425" y="1490" type="line"/>
      <point x="1406" y="1490"/>
      <point x="1388" y="1490"/>
      <point x="1367" y="1490" type="curve" smooth="yes"/>
      <point x="1253" y="1490"/>
      <point x="1217" y="1432"/>
      <point x="1137" y="1293" type="curve" smooth="yes"/>
    </contour>
    <component base="y"/>
  </outline>
</glyph>
<glyph name="Ezh" format="2">
  <advance width="1299"/>
  <unicode hex="01B7"/>
  <anchor x="837" y="1676" name="top"/>
  <outline>
    <contour>
      <point x="-15" y="72" type="line"/>
      <point x="-65" y="-230"/>
      <point x="153" y="-442"/>
      <point x="467" y="-442" type="curve" smooth="yes"/>
      <point x="831" y="-442"/>
      <point x="1084" y="-157"/>
      <point x="1137" y="154" type="curve" smooth="yes"/>
      <point x="1193" y="492"/>
      <point x="962" y="751"/>
      <point x="563" y="768" type="curve"/>
      <point x="563" y="774" type="line"/>
      <point x="1303" y="1452" type="line"/>
      <point x="1309" y="1490" type="line"/>
      <point x="299" y="1490" type="line"/>
      <point x="291" y="1442" type="line"/>
      <point x="1253" y="1442" type="line"/>
      <point x="1259" y="1470" type="line"/>
      <point x="493" y="768" type="line"/>
      <point x="485" y="722" type="line"/>
      <point x="555" y="722" type="line" smooth="yes"/>
      <point x="921" y="707"/>
      <point x="1142" y="472"/>
      <point x="1091" y="154" type="curve" smooth="yes"/>
      <point x="1038" y="-169"/>
      <point x="776" y="-396"/>
      <point x="465" y="-396" type="curve" smooth="yes"/>
      <point x="180" y="-396"/>
      <point x="-12" y="-201"/>
      <point x="31" y="72" type="curve"/>
    </contour>
  </outline>
</glyph>
<glyph name="Ezhreversed" format="2">
  <advance width="1297"/>
  <unicode hex="01B8"/>
  <anchor x="842" y="1676" name="top"/>
  <outline>
    <contour>
      <point x="1162" y="72" type="curve"/>
      <point x="1116" y="72" type="line"/>
      <point x="1070" y="-199"/>
      <point x="812" y="-396"/>
      <point x="516" y="-396" type="curve" smooth="yes"/>
      <point x="216" y="-396"/>
      <point x="31" y="-169"/>
      <point x="84" y="144" type="curve" smooth="yes"/>
      <point x="137" y="471"/>
      <point x="435" y="705"/>
      <point x="810" y="722" type="curve" smooth="yes"/>
      <point x="878" y="722" type="line"/>
      <point x="884" y="768" type="line"/>
      <point x="352" y="1470" type="line"/>
      <point x="348" y="1442" type="line"/>
      <point x="1310" y="1442" type="line"/>
      <point x="1318" y="1490" type="line"/>
      <point x="308" y="1490" type="line"/>
      <point x="302" y="1452" type="line"/>
      <point x="816" y="774" type="line"/>
      <point x="814" y="768" type="line"/>
      <point x="411" y="751"/>
      <point x="94" y="492"/>
      <point x="36" y="144" type="curve" smooth="yes"/>
      <point x="-13" y="-157"/>
      <point x="147" y="-442"/>
      <point x="510" y="-442" type="curve" smooth="yes"/>
      <point x="824" y="-442"/>
      <point x="1112" y="-230"/>
    </contour>
  </outline>
</glyph>
<glyph name="ezhreversed" format="2">
  <advance width="1020"/>
  <unicode hex="01B9"/>
  <anchor x="586" y="1056" name="top"/>
  <outline>
    <contour>
      <point x="354" y="-392" type="curve" smooth="yes"/>
      <point x="606" y="-392"/>
      <point x="825" y="-227"/>
      <point x="863" y="0" type="curve"/>
      <point x="817" y="0" type="line"/>
      <point x="784" y="-200"/>
      <point x="588" y="-346"/>
      <point x="362" y="-346" type="curve" smooth="yes"/>
      <point x="111" y="-346"/>
      <point x="-4" y="-165"/>
      <point x="30" y="42" type="curve" smooth="yes"/>
      <point x="71" y="287"/>
      <point x="291" y="433"/>
      <point x="563" y="433" type="curve" smooth="yes"/>
      <point x="627" y="433" type="line"/>
      <point x="634" y="478" type="line"/>
      <point x="250" y="1009" type="line"/>
      <point x="250" y="1010" type="line"/>
      <point x="968" y="1010" type="line"/>
      <point x="976" y="1056" type="line"/>
      <point x="190" y="1056" type="line"/>
      <point x="184" y="1018" type="line"/>
      <point x="573" y="479" type="line"/>
      <point x="573" y="478" type="line"/>
      <point x="266" y="478"/>
      <point x="28" y="308"/>
      <point x="-16" y="42" type="curve" smooth="yes"/>
      <point x="-55" y="-195"/>
      <point x="81" y="-392"/>
    </contour>
  </outline>
</glyph>
<glyph name="ezhtail" format="2">
  <advance width="877"/>
  <unicode hex="01BA"/>
  <outline>
    <contour>
      <point x="128" y="1058" type="line" name="hr00"/>
      <point x="120" y="1010" type="line"/>
      <point x="888" y="1010" type="line"/>
      <point x="269" y="592" type="line"/>
      <point x="261" y="544" type="line"/>
      <point x="275" y="544" type="line"/>
      <point x="951" y="1004" type="line"/>
      <point x="960" y="1056" type="line"/>
    </contour>
    <contour>
      <point x="-52" y="-162" type="curve" smooth="yes"/>
      <point x="-29" y="-26"/>
      <point x="61" y="49"/>
      <point x="291" y="106" type="curve" smooth="yes"/>
      <point x="569" y="175"/>
      <point x="665" y="239"/>
      <point x="686" y="370" type="curve" smooth="yes"/>
      <point x="712" y="526"/>
      <point x="599" y="590"/>
      <point x="305" y="590" type="curve" smooth="yes"/>
      <point x="281" y="590" type="line"/>
      <point x="269" y="544" type="line"/>
      <point x="297" y="544" type="line" smooth="yes"/>
      <point x="564" y="544"/>
      <point x="661" y="495"/>
      <point x="640" y="370" type="curve" smooth="yes"/>
      <point x="623" y="263"/>
      <point x="541" y="212"/>
      <point x="282" y="150" type="curve" smooth="yes"/>
      <point x="37" y="91"/>
      <point x="-74" y="-5"/>
      <point x="-100" y="-162" type="curve" smooth="yes"/>
      <point x="-131" y="-348"/>
      <point x="-15" y="-442"/>
      <point x="212" y="-442" type="curve" smooth="yes"/>
      <point x="436" y="-442"/>
      <point x="614" y="-305"/>
      <point x="667" y="-94" type="curve"/>
      <point x="619" y="-94" type="line"/>
      <point x="574" y="-278"/>
      <point x="417" y="-396"/>
      <point x="219" y="-396" type="curve" smooth="yes"/>
      <point x="17" y="-396"/>
      <point x="-78" y="-319"/>
    </contour>
  </outline>
</glyph>
<glyph name="Tonefive" format="2">
  <advance width="1079"/>
  <unicode hex="01BC"/>
  <outline>
    <contour>
      <point x="380" y="1490" type="line"/>
      <point x="220" y="1490" type="line"/>
      <point x="212" y="1444" type="line"/>
      <point x="372" y="1444" type="line"/>
    </contour>
    <component base="five" xOffset="37"/>
  </outline>
</glyph>
<glyph name="tonefive" format="2">
  <advance width="704"/>
  <unicode hex="01BD"/>
  <outline>
    <contour>
      <point x="126" y="524" type="line" name="hr00"/>
      <point x="188" y="613"/>
      <point x="306" y="675"/>
      <point x="420" y="674" type="curve" smooth="yes"/>
      <point x="592" y="671"/>
      <point x="680" y="548"/>
      <point x="648" y="352" type="curve" smooth="yes"/>
      <point x="614" y="159"/>
      <point x="465" y="29"/>
      <point x="274" y="30" type="curve" smooth="yes"/>
      <point x="107" y="29"/>
      <point x="12" y="137"/>
      <point x="30" y="300" type="curve"/>
      <point x="-18" y="288" type="line"/>
      <point x="-33" y="108"/>
      <point x="83" y="-17"/>
      <point x="280" y="-18" type="curve" smooth="yes"/>
      <point x="490" y="-17"/>
      <point x="659" y="132"/>
      <point x="696" y="360" type="curve" smooth="yes"/>
      <point x="728" y="573"/>
      <point x="614" y="720"/>
      <point x="420" y="720" type="curve" smooth="yes"/>
      <point x="318" y="720"/>
      <point x="220" y="679"/>
      <point x="152" y="612" type="curve"/>
      <point x="266" y="1036" type="line"/>
      <point x="772" y="1036" type="line"/>
      <point x="782" y="1082" type="line"/>
      <point x="232" y="1082" type="line"/>
      <point x="82" y="532" type="line"/>
    </contour>
    <contour>
      <point x="310" y="1082" type="line"/>
      <point x="62" y="1082" type="line"/>
      <point x="54" y="1036" type="line"/>
      <point x="302" y="1036" type="line"/>
    </contour>
  </outline>
</glyph>
<glyph name="glottalstopbarinv" format="2">
  <advance width="904"/>
  <unicode hex="01BE"/>
  <outline>
    <contour>
      <point x="758" y="286" type="curve" smooth="yes"/>
      <point x="733" y="133"/>
      <point x="568" y="28"/>
      <point x="368" y="28" type="curve" smooth="yes"/>
      <point x="145" y="28"/>
      <point x="49" y="172"/>
      <point x="76" y="334" type="curve"/>
      <point x="30" y="334" type="line"/>
      <point x="-1" y="153"/>
      <point x="119" y="-19"/>
      <point x="360" y="-18" type="curve" smooth="yes"/>
      <point x="596" y="-19"/>
      <point x="773" y="100"/>
      <point x="804" y="286" type="curve" smooth="yes"/>
      <point x="852" y="569"/>
      <point x="455" y="495"/>
      <point x="508" y="816" type="curve" smooth="yes"/>
      <point x="594" y="1334" type="line"/>
      <point x="546" y="1334" type="line"/>
      <point x="462" y="816" type="line" smooth="yes"/>
      <point x="404" y="468"/>
      <point x="798" y="529"/>
    </contour>
    <contour>
      <point x="798" y="1070" type="line"/>
      <point x="256" y="1070" type="line"/>
      <point x="248" y="1022" type="line"/>
      <point x="790" y="1022" type="line"/>
    </contour>
  </outline>
</glyph>
<glyph name="wynn" format="2">
  <advance width="1014"/>
  <unicode hex="01BF"/>
  <outline>
    <contour>
      <point x="184" y="952" type="line"/>
      <point x="200" y="1118" type="line"/>
      <point x="162" y="1118" type="line"/>
      <point x="-66" y="-416" type="line"/>
      <point x="-18" y="-416" type="line"/>
    </contour>
    <contour>
      <point x="162" y="890" type="line"/>
      <point x="290" y="1023"/>
      <point x="424" y="1088"/>
      <point x="558" y="1088" type="curve" smooth="yes"/>
      <point x="788" y="1088"/>
      <point x="900" y="919"/>
      <point x="862" y="644" type="curve" smooth="yes"/>
      <point x="854" y="594" type="line" smooth="yes"/>
      <point x="804" y="244"/>
      <point x="567" y="50"/>
      <point x="-6" y="-118" type="curve"/>
      <point x="-14" y="-164" type="line"/>
      <point x="576" y="-4"/>
      <point x="841" y="221"/>
      <point x="902" y="596" type="curve" smooth="yes"/>
      <point x="910" y="642" type="line" smooth="yes"/>
      <point x="958" y="942"/>
      <point x="820" y="1135"/>
      <point x="566" y="1134" type="curve" smooth="yes"/>
      <point x="421" y="1135"/>
      <point x="281" y="1068"/>
      <point x="146" y="932" type="curve"/>
    </contour>
  </outline>
</glyph>
<glyph name="pipe" format="2">
  <advance width="254"/>
  <unicode hex="01C0"/>
  <outline>
    <contour>
      <point x="310" y="1516" type="line"/>
      <point x="264" y="1516" type="line"/>
      <point x="12" y="0" type="line"/>
      <point x="58" y="0" type="line"/>
    </contour>
  </outline>
</glyph>
<glyph name="uni01F6" format="2">
  <advance width="2096"/>
  <unicode hex="01F6"/>
  <outline>
    <contour>
      <point x="1475" y="-16" type="curve" smooth="yes"/>
      <point x="1702" y="-16"/>
      <point x="1897" y="137"/>
      <point x="1935" y="366" type="curve" smooth="yes"/>
      <point x="2049" y="1056" type="line"/>
      <point x="2003" y="1056" type="line"/>
      <point x="1890" y="370" type="line" smooth="yes"/>
      <point x="1856" y="167"/>
      <point x="1681" y="30"/>
      <point x="1477" y="30" type="curve" smooth="yes"/>
      <point x="1275" y="30"/>
      <point x="1148" y="163"/>
      <point x="1181" y="366" type="curve" smooth="yes"/>
      <point x="1367" y="1490" type="line"/>
      <point x="1321" y="1490" type="line"/>
      <point x="1204" y="784" type="line"/>
      <point x="256" y="784" type="line"/>
      <point x="373" y="1490" type="line"/>
      <point x="327" y="1490" type="line"/>
      <point x="81" y="0" type="line"/>
      <point x="127" y="0" type="line"/>
      <point x="249" y="738" type="line"/>
      <point x="1197" y="738" type="line"/>
      <point x="1136" y="370" type="line" smooth="yes"/>
      <point x="1098" y="141"/>
      <point x="1244" y="-16"/>
    </contour>
  </outline>
</glyph>
<glyph name="uni01F7" format="2">
  <advance width="852"/>
  <unicode hex="01F7"/>
  <outline>
    <contour>
      <point x="196" y="1488" type="line"/>
      <point x="150" y="1488" type="line"/>
      <point x="-168" y="-418" type="line"/>
      <point x="-120" y="-418" type="line"/>
    </contour>
    <contour>
      <point x="-106" y="-136" type="line"/>
      <point x="476" y="-12"/>
      <point x="819" y="321"/>
      <point x="912" y="856" type="curve" smooth="yes"/>
      <point x="918" y="888" type="line" smooth="yes"/>
      <point x="990" y="1304"/>
      <point x="849" y="1510"/>
      <point x="520" y="1510" type="curve" smooth="yes"/>
      <point x="385" y="1510"/>
      <point x="254" y="1476"/>
      <point x="152" y="1412" type="curve"/>
      <point x="166" y="1370" type="line"/>
      <point x="263" y="1431"/>
      <point x="390" y="1463"/>
      <point x="516" y="1464" type="curve" smooth="yes"/>
      <point x="817" y="1463"/>
      <point x="944" y="1270"/>
      <point x="872" y="892" type="curve" smooth="yes"/>
      <point x="864" y="854" type="line" smooth="yes"/>
      <point x="767" y="349"/>
      <point x="458" y="39"/>
      <point x="-98" y="-90" type="curve"/>
    </contour>
  </outline>
</glyph>
<glyph name="uni021C" format="2">
  <advance width="1082"/>
  <unicode hex="021C"/>
  <outline>
    <contour>
      <point x="110" y="368" type="line"/>
      <point x="644" y="515"/>
      <point x="1031" y="802"/>
      <point x="1084" y="1120" type="curve" smooth="yes"/>
      <point x="1123" y="1356"/>
      <point x="972" y="1510"/>
      <point x="700" y="1510" type="curve" smooth="yes"/>
      <point x="425" y="1510"/>
      <point x="199" y="1345"/>
      <point x="160" y="1116" type="curve"/>
      <point x="206" y="1116" type="line"/>
      <point x="238" y="1312"/>
      <point x="444" y="1463"/>
      <point x="700" y="1464" type="curve" smooth="yes"/>
      <point x="936" y="1463"/>
      <point x="1071" y="1332"/>
      <point x="1038" y="1128" type="curve" smooth="yes"/>
      <point x="993" y="833"/>
      <point x="619" y="559"/>
      <point x="118" y="418" type="curve"/>
    </contour>
    <contour>
      <point x="790" y="718" type="line"/>
      <point x="911" y="654"/>
      <point x="962" y="516"/>
      <point x="930" y="320" type="curve" smooth="yes"/>
      <point x="873" y="-17"/>
      <point x="646" y="-185"/>
      <point x="-16" y="-386" type="curve"/>
      <point x="-24" y="-436" type="line"/>
      <point x="678" y="-228"/>
      <point x="915" y="-46"/>
      <point x="976" y="322" type="curve" smooth="yes"/>
      <point x="1010" y="530"/>
      <point x="959" y="672"/>
      <point x="824" y="754" type="curve"/>
    </contour>
  </outline>
</glyph>
<glyph name="uni021D" format="2">
  <advance width="902"/>
  <unicode hex="021D"/>
  <outline>
    <contour>
      <point x="78" y="264" type="line"/>
      <point x="468" y="308"/>
      <point x="799" y="533"/>
      <point x="846" y="818" type="curve" smooth="yes"/>
      <point x="878" y="1007"/>
      <point x="765" y="1135"/>
      <point x="552" y="1134" type="curve" smooth="yes"/>
      <point x="338" y="1135"/>
      <point x="154" y="1003"/>
      <point x="118" y="792" type="curve"/>
      <point x="164" y="792" type="line"/>
      <point x="193" y="975"/>
      <point x="366" y="1088"/>
      <point x="554" y="1088" type="curve" smooth="yes"/>
      <point x="740" y="1088"/>
      <point x="824" y="979"/>
      <point x="802" y="824" type="curve" smooth="yes"/>
      <point x="764" y="560"/>
      <point x="453" y="353"/>
      <point x="88" y="312" type="curve"/>
    </contour>
    <contour>
      <point x="616" y="494" type="line"/>
      <point x="702" y="422"/>
      <point x="736" y="305"/>
      <point x="708" y="140" type="curve" smooth="yes"/>
      <point x="654" y="-189"/>
      <point x="420" y="-363"/>
      <point x="-30" y="-388" type="curve"/>
      <point x="-36" y="-436" type="line"/>
      <point x="452" y="-404"/>
      <point x="697" y="-219"/>
      <point x="754" y="142" type="curve" smooth="yes"/>
      <point x="783" y="320"/>
      <point x="749" y="441"/>
      <point x="654" y="526" type="curve"/>
    </contour>
  </outline>
</glyph>
<glyph name="uni0220" format="2">
  <advance width="934"/>
  <unicode hex="0220"/>
  <outline>
    <contour>
      <point x="740" y="-418" type="line"/>
      <point x="966" y="946" type="line" smooth="yes"/>
      <point x="1031" y="1341"/>
      <point x="909" y="1510"/>
      <point x="570" y="1510" type="curve" smooth="yes"/>
      <point x="420" y="1510"/>
      <point x="294" y="1476"/>
      <point x="190" y="1412" type="curve"/>
      <point x="206" y="1370" type="line"/>
      <point x="309" y="1435"/>
      <point x="428" y="1463"/>
      <point x="568" y="1464" type="curve" smooth="yes"/>
      <point x="887" y="1463"/>
      <point x="980" y="1319"/>
      <point x="920" y="950" type="curve" smooth="yes"/>
      <point x="692" y="-418" type="line"/>
    </contour>
    <contour>
      <point x="238" y="1490" type="line"/>
      <point x="192" y="1490" type="line"/>
      <point x="-56" y="0" type="line"/>
      <point x="-8" y="0" type="line"/>
    </contour>
  </outline>
</glyph>
<glyph name="uni0222" format="2">
  <advance width="1030"/>
  <unicode hex="0222"/>
  <outline>
    <contour>
      <point x="542" y="830" type="line" smooth="yes"/>
      <point x="201" y="831"/>
      <point x="14" y="685"/>
      <point x="-32" y="406" type="curve" smooth="yes"/>
      <point x="-77" y="129"/>
      <point x="87" y="-20"/>
      <point x="412" y="-20" type="curve" smooth="yes"/>
      <point x="424" y="-20" type="line" smooth="yes"/>
      <point x="762" y="-20"/>
      <point x="961" y="117"/>
      <point x="1010" y="406" type="curve" smooth="yes"/>
      <point x="1054" y="675"/>
      <point x="907" y="831"/>
      <point x="576" y="830" type="curve" smooth="yes"/>
    </contour>
    <contour>
      <point x="568" y="784" type="line" smooth="yes"/>
      <point x="879" y="784"/>
      <point x="1003" y="650"/>
      <point x="962" y="406" type="curve" smooth="yes"/>
      <point x="921" y="153"/>
      <point x="738" y="26"/>
      <point x="434" y="26" type="curve" smooth="yes"/>
      <point x="418" y="26" type="line" smooth="yes"/>
      <point x="111" y="26"/>
      <point x="-27" y="154"/>
      <point x="14" y="406" type="curve" smooth="yes"/>
      <point x="55" y="652"/>
      <point x="221" y="784"/>
      <point x="534" y="784" type="curve" smooth="yes"/>
    </contour>
    <contour>
      <point x="542" y="830" type="line" smooth="yes"/>
      <point x="260" y="831"/>
      <point x="123" y="940"/>
      <point x="160" y="1166" type="curve" smooth="yes"/>
      <point x="188" y="1334"/>
      <point x="291" y="1433"/>
      <point x="420" y="1460" type="curve"/>
      <point x="430" y="1510" type="line"/>
      <point x="265" y="1477"/>
      <point x="147" y="1365"/>
      <point x="114" y="1166" type="curve" smooth="yes"/>
      <point x="72" y="916"/>
      <point x="234" y="784"/>
      <point x="534" y="784" type="curve" smooth="yes"/>
      <point x="568" y="784" type="line" smooth="yes"/>
      <point x="880" y="784"/>
      <point x="1073" y="912"/>
      <point x="1114" y="1166" type="curve" smooth="yes"/>
      <point x="1147" y="1367"/>
      <point x="1045" y="1493"/>
      <point x="888" y="1518" type="curve"/>
      <point x="880" y="1470" type="line"/>
      <point x="1016" y="1449"/>
      <point x="1097" y="1344"/>
      <point x="1068" y="1166" type="curve" smooth="yes"/>
      <point x="1031" y="941"/>
      <point x="857" y="831"/>
      <point x="578" y="830" type="curve" smooth="yes"/>
    </contour>
  </outline>
</glyph>
